<?xml version="1.0" encoding="UTF-8"?>
<svg width="22px" height="22px" viewBox="0 0 22 22" version="1.1" xmlns="http://www.w3.org/2000/svg" xmlns:xlink="http://www.w3.org/1999/xlink">
    <!-- Generator: Sketch 55.1 (78136) - https://sketchapp.com -->
    <title>uEA09-avatar</title>
    <desc>Created with Sketch.</desc>
    <g id="uEA09-avatar" stroke="none" stroke-width="1" fill="none" fill-rule="evenodd">
        <path d="M10.9812037,1 C7.01830551,1.00752939 3.43373222,3.3545171 1.84214502,6.98376899 C0.250557821,10.6130209 0.952272554,14.8397352 3.63120375,17.76 L3.63120375,17.76 C5.52435959,19.8121118 8.18921484,20.9793289 10.9812037,20.9793289 C13.7731927,20.9793289 16.4380479,19.8121118 18.3312037,17.76 L18.3312037,17.76 C21.0101349,14.8397352 21.7118497,10.6130209 20.1202625,6.98376899 C18.5286753,3.3545171 14.944102,1.00752939 10.9812037,1 Z M10.9812037,19 C8.90966881,18.9968517 6.92011882,18.1902774 5.43120375,16.75 C6.35573681,14.4992971 8.54801138,13.0298026 10.9812037,13.0298026 C13.4143961,13.0298026 15.6066707,14.4992971 16.5312037,16.75 C15.0422887,18.1902774 13.0527387,18.9968517 10.9812037,19 Z M8.98120375,9 C8.98120375,7.8954305 9.87663425,7 10.9812037,7 C12.0857732,7 12.9812037,7.8954305 12.9812037,9 C12.9812037,10.1045695 12.0857732,11 10.9812037,11 C9.87663425,11 8.98120375,10.1045695 8.98120375,9 Z M17.8912037,15 C16.997735,13.471759 15.6226057,12.2830283 13.9812037,11.62 C15.3994321,10.0118803 15.2974241,7.57151486 13.7499381,6.08736276 C12.202452,4.60321066 9.75995553,4.60321066 8.21246944,6.08736276 C6.66498336,7.57151486 6.56297544,10.0118803 7.98120375,11.62 C6.33980181,12.2830283 4.96467247,13.471759 4.07120375,15 C3.35914752,13.787102 2.98292381,12.4064646 2.98120375,11 C2.98120375,6.581722 6.56292575,3 10.9812037,3 C15.3994817,3 18.9812037,6.581722 18.9812037,11 C18.9794837,12.4064646 18.60326,13.787102 17.8912037,15 Z" id="Shape" fill="#000000" fill-rule="nonzero"></path>
    </g>
</svg>