<?xml version="1.0" encoding="UTF-8"?>
<svg width="22px" height="22px" viewBox="0 0 22 22" version="1.1" xmlns="http://www.w3.org/2000/svg" xmlns:xlink="http://www.w3.org/1999/xlink">
    <!-- Generator: Sketch 55.1 (78136) - https://sketchapp.com -->
    <title>uEA0C-chat</title>
    <desc>Created with Sketch.</desc>
    <g id="uEA0C-chat" stroke="none" stroke-width="1" fill="none" fill-rule="evenodd">
        <path d="M11,8 C10.4477153,8 10,8.44771525 10,9 C10,9.55228475 10.4477153,10 11,10 C11.5522847,10 12,9.55228475 12,9 C12,8.44771525 11.5522847,8 11,8 Z M18,1 L4,1 C2.34314575,1 1,2.34314575 1,4 L1,14 C1,15.6568542 2.34314575,17 4,17 L15.59,17 L19.29,20.71 C19.4787188,20.8971865 19.734197,21.0015368 20,21 C20.1311765,21.0033801 20.2613206,20.9759814 20.38,20.92 C20.7534255,20.7665964 20.9979849,20.4037019 21,20 L21,4 C21,2.34314575 19.6568542,1 18,1 Z M19,17.59 L16.71,15.29 C16.5212812,15.1028135 16.265803,14.9984632 16,15 L4,15 C3.44771525,15 3,14.5522847 3,14 L3,4 C3,3.44771525 3.44771525,3 4,3 L18,3 C18.5522847,3 19,3.44771525 19,4 L19,17.59 Z M7,8 C6.44771525,8 6,8.44771525 6,9 C6,9.55228475 6.44771525,10 7,10 C7.55228475,10 8,9.55228475 8,9 C8,8.44771525 7.55228475,8 7,8 Z M15,8 C14.4477153,8 14,8.44771525 14,9 C14,9.55228475 14.4477153,10 15,10 C15.5522847,10 16,9.55228475 16,9 C16,8.44771525 15.5522847,8 15,8 Z" id="Shape" fill="#000000" fill-rule="nonzero"></path>
    </g>
</svg>