<?xml version="1.0" encoding="UTF-8"?>
<svg width="22px" height="22px" viewBox="0 0 22 22" version="1.1" xmlns="http://www.w3.org/2000/svg" xmlns:xlink="http://www.w3.org/1999/xlink">
    <!-- Generator: Sketch 55.1 (78136) - https://sketchapp.com -->
    <title>uEA0D-check</title>
    <desc>Created with Sketch.</desc>
    <g id="uEA0D-check" stroke="none" stroke-width="1" fill="none" fill-rule="evenodd">
        <path d="M17.7319463,6.29579832 C17.5441797,6.10648567 17.2885838,6 17.0219463,6 C16.7553087,6 16.4997129,6.10648567 16.3119463,6.29579832 L8.86194626,13.7557983 L5.73194626,10.6157983 C5.46935606,10.3621397 5.09138746,10.2678398 4.74041759,10.3684203 C4.38944771,10.4690008 4.11879724,10.7491812 4.03041758,11.1034203 C3.94203792,11.4576594 4.04935605,11.8321398 4.31194626,12.0857983 L8.15194626,15.9257983 C8.33971286,16.115111 8.59530873,16.2215966 8.86194626,16.2215966 C9.1285838,16.2215966 9.38417966,16.115111 9.57194626,15.9257983 L17.7319463,7.76579832 C17.9371574,7.57648274 18.0538792,7.30999721 18.0538792,7.03079832 C18.0538792,6.75159943 17.9371574,6.48511391 17.7319463,6.29579832 Z" id="Path" fill="#000000" fill-rule="nonzero"></path>
    </g>
</svg>