<?xml version="1.0" encoding="UTF-8"?>
<svg width="50px" height="50px" viewBox="0 0 50 50" version="1.1" xmlns="http://www.w3.org/2000/svg" xmlns:xlink="http://www.w3.org/1999/xlink">
    <!-- Generator: Sketch 46.1 (44463) - http://www.bohemiancoding.com/sketch -->
    <title>Icon_Arrow_down_filled</title>
    <desc>Created with Sketch.</desc>
    <defs></defs>
    <g id="Page-1" stroke="none" stroke-width="1" fill="none" fill-rule="evenodd">
        <g id="Icon_Arrow_down_filled">
            <path d="M46,50 L4,50 C1.790861,50 0,48.209139 0,46 L7.10542736e-15,4 C7.10542736e-15,1.790861 1.790861,0 4,0 L46,7.10542736e-15 C48.209139,7.10542736e-15 50,1.790861 50,4 L50,46 C50,48.209139 48.209139,50 46,50 Z" id="Rectangle-8" fill="#000000"></path>
            <path d="M25.9745658,29.7251861 L33.7996278,21.9001241 C33.9332099,21.7665419 34,21.6083549 34,21.4255583 C34,21.2427617 33.9332099,21.0845747 33.7996278,20.9509926 L32.0490074,19.2003722 C31.9154253,19.0667901 31.7572383,19 31.5744417,19 C31.3916451,19 31.2334581,19.0667901 31.0998759,19.2003722 L25.5,24.8002481 L19.9001241,19.2003722 C19.7665419,19.0667901 19.6083549,19 19.4255583,19 C19.2427617,19 19.0845747,19.0667901 18.9509926,19.2003722 L17.2003722,20.9509926 C17.0667901,21.0845747 17,21.2427617 17,21.4255583 C17,21.6083549 17.0667901,21.7665419 17.2003722,21.9001241 L25.0254342,29.7251861 C25.1590164,29.8587682 25.3172034,29.9255583 25.5,29.9255583 C25.6827966,29.9255583 25.8409836,29.8587682 25.9745658,29.7251861 Z" id="ï”" fill="#FFFFFF"></path>
        </g>
    </g>
</svg>