<?xml version="1.0" encoding="UTF-8"?>
<svg width="50px" height="50px" viewBox="0 0 50 50" version="1.1" xmlns="http://www.w3.org/2000/svg" xmlns:xlink="http://www.w3.org/1999/xlink">
    <!-- Generator: Sketch 46.1 (44463) - http://www.bohemiancoding.com/sketch -->
    <title>Icon_Arrow_down_outlined</title>
    <desc>Created with Sketch.</desc>
    <defs></defs>
    <g id="Page-1" stroke="none" stroke-width="1" fill="none" fill-rule="evenodd">
        <g id="Icon_Arrow_down_outlined" fill-rule="nonzero" fill="#000000">
            <path d="M46,46 L46,4 L4,4 L4,46 L46,46 Z M46,50 L4,50 C1.790861,50 0,48.209139 0,46 L7.10542736e-15,4 C7.10542736e-15,1.790861 1.790861,0 4,0 L46,7.10542736e-15 C48.209139,7.10542736e-15 50,1.790861 50,4 L50,46 C50,48.209139 48.209139,50 46,50 Z M24.0254342,30.7996278 L16.2003722,22.9745658 C16.0667901,22.8409836 16,22.6827966 16,22.5 C16,22.3172034 16.0667901,22.1590164 16.2003722,22.0254342 L17.9509926,20.2748139 C18.0845747,20.1412318 18.2427617,20.0744417 18.4255583,20.0744417 C18.6083549,20.0744417 18.7665419,20.1412318 18.9001241,20.2748139 L24.5,25.8746898 L30.0998759,20.2748139 C30.2334581,20.1412318 30.3916451,20.0744417 30.5744417,20.0744417 C30.7572383,20.0744417 30.9154253,20.1412318 31.0490074,20.2748139 L32.7996278,22.0254342 C32.9332099,22.1590164 33,22.3172034 33,22.5 C33,22.6827966 32.9332099,22.8409836 32.7996278,22.9745658 L24.9745658,30.7996278 C24.8409836,30.9332099 24.6827966,31 24.5,31 C24.3172034,31 24.1590164,30.9332099 24.0254342,30.7996278 Z" id="Combined-Shape"></path>
        </g>
    </g>
</svg>