<?xml version="1.0" encoding="UTF-8"?>
<svg width="22px" height="22px" viewBox="0 0 22 22" version="1.1" xmlns="http://www.w3.org/2000/svg" xmlns:xlink="http://www.w3.org/1999/xlink">
    <!-- Generator: Sketch 55.1 (78136) - https://sketchapp.com -->
    <title>uEA0F-cropper</title>
    <desc>Created with Sketch.</desc>
    <g id="uEA0F-cropper" stroke="none" stroke-width="1" fill="none" fill-rule="evenodd">
        <path d="M18,15 L17,15 L17,6 C17,5.44771525 16.5522847,5 16,5 L7,5 L7,4 C7,3.44771525 6.55228475,3 6,3 C5.44771525,3 5,3.44771525 5,4 L5,5 L4,5 C3.44771525,5 3,5.44771525 3,6 C3,6.55228475 3.44771525,7 4,7 L5,7 L5,16 C5,16.5522847 5.44771525,17 6,17 L15,17 L15,18 C15,18.5522847 15.4477153,19 16,19 C16.5522847,19 17,18.5522847 17,18 L17,17 L18,17 C18.5522847,17 19,16.5522847 19,16 C19,15.4477153 18.5522847,15 18,15 Z M15,15 L7,15 L7,7 L15,7 L15,15 Z" id="Shape" fill="#000000" fill-rule="nonzero"></path>
    </g>
</svg>