<?xml version="1.0" encoding="UTF-8"?>
<svg width="22px" height="22px" viewBox="0 0 22 22" version="1.1" xmlns="http://www.w3.org/2000/svg" xmlns:xlink="http://www.w3.org/1999/xlink">
    <!-- Generator: Sketch 55.1 (78136) - https://sketchapp.com -->
    <title>uEA0E-close-cross</title>
    <desc>Created with Sketch.</desc>
    <g id="uEA0E-close-cross" stroke="none" stroke-width="1" fill="none" fill-rule="evenodd">
        <path d="M12.4157983,11.0040916 L16.7157983,6.71409163 C17.1079205,6.32196946 17.1079205,5.6862138 16.7157983,5.29409163 C16.3236762,4.90196946 15.6879205,4.90196946 15.2957983,5.29409163 L11.0057983,9.59409163 L6.71579832,5.29409163 C6.32367615,4.90196947 5.6879205,4.90196947 5.29579833,5.29409164 C4.90367617,5.68621381 4.90367616,6.32196946 5.29579832,6.71409163 L9.59579832,11.0040916 L5.29579832,15.2940916 C5.10648567,15.4818582 5,15.7374541 5,16.0040916 C5,16.2707292 5.10648567,16.526325 5.29579832,16.7140916 C5.48356492,16.9034043 5.73916079,17.00989 6.00579832,17.00989 C6.27243586,17.00989 6.52803172,16.9034043 6.71579832,16.7140916 L11.0057983,12.4140916 L15.2957983,16.7140916 C15.4835649,16.9034043 15.7391608,17.00989 16.0057983,17.00989 C16.2724359,17.00989 16.5280317,16.9034043 16.7157983,16.7140916 C16.905111,16.526325 17.0115966,16.2707292 17.0115966,16.0040916 C17.0115966,15.7374541 16.905111,15.4818582 16.7157983,15.2940916 L12.4157983,11.0040916 Z" id="Path" fill="#000000" fill-rule="nonzero"></path>
    </g>
</svg>