<?xml version="1.0" encoding="UTF-8"?>
<svg width="50px" height="50px" viewBox="0 0 50 50" version="1.1" xmlns="http://www.w3.org/2000/svg" xmlns:xlink="http://www.w3.org/1999/xlink">
    <!-- Generator: Sketch 46.1 (44463) - http://www.bohemiancoding.com/sketch -->
    <title>Icon_Arrow_up_filled</title>
    <desc>Created with Sketch.</desc>
    <defs></defs>
    <g id="Page-1" stroke="none" stroke-width="1" fill="none" fill-rule="evenodd">
        <g id="Icon_Arrow_up_filled">
            <path d="M46,50 L4,50 C1.790861,50 0,48.209139 0,46 L7.10542736e-15,4 C7.10542736e-15,1.790861 1.790861,0 4,0 L46,7.10542736e-15 C48.209139,7.10542736e-15 50,1.790861 50,4 L50,46 C50,48.209139 48.209139,50 46,50 Z" id="Rectangle-8" fill="#000000"></path>
            <path d="M25.9745658,20.2003722 L33.7996278,28.0254342 C33.9332099,28.1590164 34,28.3172034 34,28.5 C34,28.6827966 33.9332099,28.8409836 33.7996278,28.9745658 L32.0490074,30.7251861 C31.9154253,30.8587682 31.7572383,30.9255583 31.5744417,30.9255583 C31.3916451,30.9255583 31.2334581,30.8587682 31.0998759,30.7251861 L25.5,25.1253102 L19.9001241,30.7251861 C19.7665419,30.8587682 19.6083549,30.9255583 19.4255583,30.9255583 C19.2427617,30.9255583 19.0845747,30.8587682 18.9509926,30.7251861 L17.2003722,28.9745658 C17.0667901,28.8409836 17,28.6827966 17,28.5 C17,28.3172034 17.0667901,28.1590164 17.2003722,28.0254342 L25.0254342,20.2003722 C25.1590164,20.0667901 25.3172034,20 25.5,20 C25.6827966,20 25.8409836,20.0667901 25.9745658,20.2003722 Z" id="ï”" fill="#FFFFFF"></path>
        </g>
    </g>
</svg>