<?xml version="1.0" encoding="UTF-8"?>
<svg width="22px" height="22px" viewBox="0 0 22 22" version="1.1" xmlns="http://www.w3.org/2000/svg" xmlns:xlink="http://www.w3.org/1999/xlink">
    <!-- Generator: Sketch 55.1 (78136) - https://sketchapp.com -->
    <title>uEA0B-calendar</title>
    <desc>Created with Sketch.</desc>
    <g id="uEA0B-calendar" stroke="none" stroke-width="1" fill="none" fill-rule="evenodd">
        <path d="M11,18 C11.5522847,18 12,17.5522847 12,17 C12,16.4477153 11.5522847,16 11,16 C10.4477153,16 10,16.4477153 10,17 C10,17.5522847 10.4477153,18 11,18 Z M16,18 C16.5522847,18 17,17.5522847 17,17 C17,16.4477153 16.5522847,16 16,16 C15.4477153,16 15,16.4477153 15,17 C15,17.5522847 15.4477153,18 16,18 Z M16,14 C16.5522847,14 17,13.5522847 17,13 C17,12.4477153 16.5522847,12 16,12 C15.4477153,12 15,12.4477153 15,13 C15,13.5522847 15.4477153,14 16,14 Z M11,14 C11.5522847,14 12,13.5522847 12,13 C12,12.4477153 11.5522847,12 11,12 C10.4477153,12 10,12.4477153 10,13 C10,13.5522847 10.4477153,14 11,14 Z M18,2 L17,2 L17,1 C17,0.44771525 16.5522847,0 16,0 C15.4477153,0 15,0.44771525 15,1 L15,2 L7,2 L7,1 C7,0.44771525 6.55228475,0 6,0 C5.44771525,0 5,0.44771525 5,1 L5,2 L4,2 C2.34314575,2 1,3.34314575 1,5 L1,19 C1,20.6568542 2.34314575,22 4,22 L18,22 C19.6568542,22 21,20.6568542 21,19 L21,5 C21,3.34314575 19.6568542,2 18,2 Z M19,19 C19,19.5522847 18.5522847,20 18,20 L4,20 C3.44771525,20 3,19.5522847 3,19 L3,10 L19,10 L19,19 Z M19,8 L3,8 L3,5 C3,4.44771525 3.44771525,4 4,4 L5,4 L5,5 C5,5.55228475 5.44771525,6 6,6 C6.55228475,6 7,5.55228475 7,5 L7,4 L15,4 L15,5 C15,5.55228475 15.4477153,6 16,6 C16.5522847,6 17,5.55228475 17,5 L17,4 L18,4 C18.5522847,4 19,4.44771525 19,5 L19,8 Z M6,14 C6.55228475,14 7,13.5522847 7,13 C7,12.4477153 6.55228475,12 6,12 C5.44771525,12 5,12.4477153 5,13 C5,13.5522847 5.44771525,14 6,14 Z M6,18 C6.55228475,18 7,17.5522847 7,17 C7,16.4477153 6.55228475,16 6,16 C5.44771525,16 5,16.4477153 5,17 C5,17.5522847 5.44771525,18 6,18 Z" id="Shape" fill="#000000" fill-rule="nonzero"></path>
    </g>
</svg>