<?xml version="1.0" encoding="UTF-8"?>
<svg width="22px" height="22px" viewBox="0 0 22 22" version="1.1" xmlns="http://www.w3.org/2000/svg" xmlns:xlink="http://www.w3.org/1999/xlink">
    <!-- Generator: Sketch 55.1 (78136) - https://sketchapp.com -->
    <title>uEA0A-briefcase</title>
    <desc>Created with Sketch.</desc>
    <g id="uEA0A-briefcase" stroke="none" stroke-width="1" fill="none" fill-rule="evenodd">
        <path d="M18,5 L15,5 L15,4 C15,2.8954305 14.1045695,2 13,2 L9,2 C7.8954305,2 7,2.8954305 7,4 L7,5 L4,5 C2.34314575,5 1,6.34314575 1,8 L1,17 C1,18.6568542 2.34314575,20 4,20 L18,20 C19.6568542,20 21,18.6568542 21,17 L21,8 C21,6.34314575 19.6568542,5 18,5 Z M9,4 L13,4 L13,5 L9,5 L9,4 Z M19,17 C19,17.5522847 18.5522847,18 18,18 L4,18 C3.44771525,18 3,17.5522847 3,17 L3,12 L7,12 L7,13 C7,13.5522847 7.44771525,14 8,14 C8.55228475,14 9,13.5522847 9,13 L9,12 L13,12 L13,13 C13,13.5522847 13.4477153,14 14,14 C14.5522847,14 15,13.5522847 15,13 L15,12 L19,12 L19,17 Z M19,10 L3,10 L3,8 C3,7.44771525 3.44771525,7 4,7 L18,7 C18.5522847,7 19,7.44771525 19,8 L19,10 Z" id="Shape" fill="#000000" fill-rule="nonzero"></path>
    </g>
</svg>