<?xml version="1.0" encoding="UTF-8"?>
<svg width="19px" height="19px" viewBox="0 0 19 19" version="1.1" xmlns="http://www.w3.org/2000/svg" xmlns:xlink="http://www.w3.org/1999/xlink">
    <!-- Generator: Sketch 55.1 (78136) - https://sketchapp.com -->
    <title>uEA03-arrow-down</title>
    <desc>Created with Sketch.</desc>
    <g id="uEA03-arrow-down" stroke="none" stroke-width="1" fill="none" fill-rule="evenodd">
        <path d="M15.3707927,10.9457983 L9.7107927,5.29579832 C9.5230261,5.10648567 9.26743023,5 9.0007927,5 C8.73415516,5 8.4785593,5.10648567 8.2907927,5.29579832 C7.9030691,5.68583578 7.9030691,6.31576087 8.2907927,6.70579832 L13.2407927,11.7057983 L8.2907927,16.6557983 C7.9030691,17.0458358 7.9030691,17.6757609 8.2907927,18.0657983 C8.47786413,18.256654 8.7335468,18.3646889 9.0007927,18.3657983 C9.26803859,18.3646889 9.52372126,18.256654 9.7107927,18.0657983 L15.3707927,12.4157983 C15.5760039,12.2264827 15.6927256,11.9599972 15.6927256,11.6807983 C15.6927256,11.4015994 15.5760039,11.1351139 15.3707927,10.9457983 Z" id="Path" fill="#000000" fill-rule="nonzero" transform="translate(11.846363, 11.682899) rotate(90.000000) translate(-11.846363, -11.682899) "></path>
    </g>
</svg>