<?xml version="1.0" encoding="UTF-8"?>
<svg width="50px" height="50px" viewBox="0 0 50 50" version="1.1" xmlns="http://www.w3.org/2000/svg" xmlns:xlink="http://www.w3.org/1999/xlink">
    <!-- Generator: Sketch 46.1 (44463) - http://www.bohemiancoding.com/sketch -->
    <title>Icon_Arrow_up_outlined</title>
    <desc>Created with Sketch.</desc>
    <defs></defs>
    <g id="Page-1" stroke="none" stroke-width="1" fill="none" fill-rule="evenodd">
        <g id="Icon_Arrow_up_outlined" fill-rule="nonzero" fill="#000000">
            <path d="M4,4 L4,46 L46,46 L46,4 L4,4 Z M4,0 L46,0 C48.209139,-4.05812251e-16 50,1.790861 50,4 L50,46 C50,48.209139 48.209139,50 46,50 L4,50 C1.790861,50 2.705415e-16,48.209139 0,46 L0,4 C-2.705415e-16,1.790861 1.790861,4.05812251e-16 4,0 Z M25.9745658,19.2003722 C25.8409836,19.0667901 25.6827966,19 25.5,19 C25.3172034,19 25.1590164,19.0667901 25.0254342,19.2003722 L17.2003722,27.0254342 C17.0667901,27.1590164 17,27.3172034 17,27.5 C17,27.6827966 17.0667901,27.8409836 17.2003722,27.9745658 L18.9509926,29.7251861 C19.0845747,29.8587682 19.2427617,29.9255583 19.4255583,29.9255583 C19.6083549,29.9255583 19.7665419,29.8587682 19.9001241,29.7251861 L25.5,24.1253102 L31.0998759,29.7251861 C31.2334581,29.8587682 31.3916451,29.9255583 31.5744417,29.9255583 C31.7572383,29.9255583 31.9154253,29.8587682 32.0490074,29.7251861 L33.7996278,27.9745658 C33.9332099,27.8409836 34,27.6827966 34,27.5 C34,27.3172034 33.9332099,27.1590164 33.7996278,27.0254342 L25.9745658,19.2003722 Z" id="Combined-Shape"></path>
        </g>
    </g>
</svg>