<?xml version="1.0" encoding="UTF-8" standalone="no"?>
<!DOCTYPE svg PUBLIC "-//W3C//DTD SVG 1.1//EN" "http://www.w3.org/Graphics/SVG/1.1/DTD/svg11.dtd">
<svg version="1.1" xmlns="http://www.w3.org/2000/svg" xmlns:xlink="http://www.w3.org/1999/xlink" preserveAspectRatio="xMidYMid meet" viewBox="0 0 48 48" width="48" height="48"><defs><path d="M25.1 9.04L25.66 9.09L26.2 9.16L26.75 9.25L27.29 9.36L27.83 9.49L28.37 9.64L28.9 9.81L29.42 10L29.94 10.21L30.45 10.43L30.96 10.68L31.45 10.95L31.94 11.24L32.41 11.55L32.51 11.62L32.6 11.69L32.69 11.76L32.77 11.84L32.85 11.92L32.93 12L33 12.09L33.07 12.18L33.13 12.27L33.19 12.36L33.24 12.46L33.3 12.55L33.34 12.65L33.38 12.75L33.42 12.85L33.46 12.95L33.49 13.06L33.51 13.16L33.53 13.27L33.55 13.37L33.56 13.48L33.57 13.59L33.57 13.69L33.57 13.8L33.57 13.91L33.56 14.02L33.55 14.12L33.53 14.23L33.51 14.34L33.48 14.44L33.45 14.55L33.41 14.65L33.51 14.75L33.62 14.86L33.72 14.97L33.82 15.08L33.91 15.19L34.01 15.3L34.11 15.41L34.2 15.53L34.29 15.64L34.39 15.76L34.48 15.88L34.57 15.99L34.66 16.11L34.74 16.24L34.83 16.36L34.91 16.48L35 16.6L35.08 16.73L35.16 16.85L35.24 16.98L35.32 17.11L35.39 17.24L35.47 17.37L35.54 17.5L35.61 17.63L35.68 17.76L35.75 17.89L35.82 18.03L35.89 18.16L35.95 18.3L36.01 18.43L36.08 18.57L36.15 18.73L36.22 18.9L36.28 19.06L36.35 19.23L36.41 19.39L36.47 19.56L36.53 19.73L36.58 19.89L36.64 20.06L36.69 20.23L36.74 20.4L36.79 20.57L36.83 20.74L36.87 20.91L36.91 21.08L36.95 21.25L36.98 21.42L37.02 21.6L37.05 21.77L37.08 21.94L37.1 22.12L37.13 22.29L37.15 22.47L37.17 22.64L37.19 22.82L37.2 22.99L37.21 23.17L37.22 23.35L37.23 23.52L37.24 23.7L37.24 23.88L37.24 24.06L37.34 24.13L37.44 24.21L37.53 24.3L37.62 24.38L37.71 24.47L37.8 24.56L37.88 24.65L37.97 24.74L38.05 24.84L38.12 24.94L38.2 25.04L38.27 25.14L38.34 25.25L38.4 25.36L38.46 25.47L38.52 25.58L38.58 25.69L38.63 25.81L38.68 25.92L38.73 26.04L38.77 26.16L38.81 26.28L38.84 26.41L38.88 26.53L38.9 26.66L38.93 26.78L38.95 26.91L38.97 27.04L38.98 27.17L38.99 27.3L39 27.44L39 27.57L39 27.77L38.98 27.97L38.96 28.17L38.93 28.37L38.89 28.56L38.84 28.75L38.78 28.93L38.72 29.11L38.65 29.29L38.57 29.46L38.48 29.63L38.39 29.8L38.29 29.96L38.19 30.12L38.07 30.27L37.95 30.41L37.83 30.56L37.7 30.69L37.56 30.82L37.42 30.95L37.27 31.06L37.12 31.17L36.96 31.28L36.8 31.38L36.63 31.47L36.46 31.55L36.28 31.63L36.11 31.7L35.92 31.76L35.74 31.82L35.55 31.86L35.36 31.9L35.33 31.98L35.3 32.05L35.27 32.12L35.24 32.19L35.21 32.26L35.17 32.33L35.13 32.4L35.09 32.47L35.05 32.53L35.01 32.6L34.96 32.66L34.92 32.72L34.87 32.78L34.82 32.84L34.76 32.89L34.71 32.95L34.66 33L34.6 33.06L34.54 33.11L34.48 33.16L34.42 33.2L34.36 33.25L34.29 33.29L34.23 33.33L34.16 33.37L34.09 33.41L34.02 33.45L33.95 33.48L33.88 33.51L33.81 33.54L33.74 33.57L33.66 33.59L33.63 33.76L33.59 33.93L33.54 34.1L33.49 34.26L33.43 34.42L33.37 34.57L33.3 34.73L33.23 34.88L33.14 35.03L33.06 35.17L32.97 35.31L32.87 35.45L32.77 35.58L32.66 35.71L32.55 35.83L32.44 35.95L32.32 36.07L32.19 36.18L32.06 36.28L31.93 36.38L31.8 36.48L31.66 36.57L31.51 36.66L31.37 36.74L31.22 36.81L31.06 36.88L30.91 36.95L30.75 37L30.58 37.06L30.42 37.1L30.25 37.14L30.08 37.17L30.05 37.27L30.01 37.37L29.97 37.46L29.92 37.56L29.88 37.65L29.82 37.73L29.77 37.82L29.71 37.9L29.65 37.99L29.58 38.07L29.52 38.14L29.45 38.22L29.37 38.29L29.3 38.35L29.22 38.42L29.14 38.48L29.05 38.54L28.97 38.6L28.88 38.65L28.79 38.7L28.7 38.74L28.61 38.79L28.51 38.83L28.41 38.86L28.31 38.89L28.21 38.92L28.11 38.94L28 38.96L27.9 38.98L27.79 38.99L27.68 38.99L27.57 39L27.44 38.99L27.31 38.98L27.17 38.97L27.04 38.94L26.92 38.91L26.79 38.88L26.67 38.84L26.55 38.79L26.43 38.74L26.32 38.68L26.21 38.61L26.1 38.55L26 38.47L25.9 38.39L25.8 38.31L25.71 38.22L25.62 38.13L25.54 38.04L25.46 37.94L25.39 37.83L25.32 37.73L25.26 37.62L25.2 37.5L25.15 37.39L25.1 37.27L25.06 37.14L25.02 37.02L24.99 36.89L24.97 36.76L24.95 36.63L24.94 36.5L24.94 36.36L24.94 36.22L24.95 36.09L24.97 35.96L24.99 35.83L25.02 35.7L25.06 35.58L25.1 35.45L25.15 35.34L25.2 35.22L25.26 35.1L25.32 34.99L25.39 34.89L25.46 34.78L25.54 34.68L25.62 34.59L25.71 34.5L25.8 34.41L25.9 34.33L26 34.25L26.1 34.17L26.21 34.11L26.32 34.04L26.43 33.98L26.55 33.93L26.67 33.88L26.79 33.84L26.92 33.81L27.04 33.78L27.17 33.75L27.31 33.74L27.44 33.73L27.57 33.72L27.68 33.73L27.78 33.73L27.88 33.74L27.98 33.76L28.08 33.77L28.18 33.79L28.28 33.82L28.37 33.85L28.46 33.88L28.56 33.91L28.65 33.95L28.74 33.99L28.82 34.04L28.91 34.09L28.99 34.14L29.07 34.19L29.15 34.25L29.23 34.31L29.3 34.37L29.37 34.43L29.44 34.5L29.51 34.57L29.57 34.64L29.63 34.72L29.69 34.79L29.75 34.87L29.8 34.95L29.85 35.04L29.9 35.12L29.95 35.21L29.99 35.3L30.02 35.39L30.11 35.36L30.19 35.34L30.27 35.31L30.35 35.28L30.43 35.24L30.51 35.2L30.58 35.16L30.66 35.12L30.73 35.08L30.8 35.03L30.87 34.98L30.94 34.93L31.01 34.88L31.07 34.82L31.13 34.77L31.2 34.71L31.25 34.65L31.31 34.58L31.37 34.52L31.42 34.45L31.47 34.39L31.52 34.32L31.57 34.24L31.61 34.17L31.65 34.1L31.69 34.02L31.73 33.94L31.76 33.86L31.8 33.78L31.82 33.7L31.85 33.62L31.88 33.54L31.79 33.5L31.7 33.46L31.61 33.41L31.52 33.37L31.44 33.32L31.36 33.26L31.28 33.21L31.2 33.15L31.13 33.09L31.06 33.02L30.99 32.95L30.92 32.88L30.86 32.81L30.79 32.74L30.73 32.66L30.68 32.58L30.62 32.5L30.57 32.42L30.53 32.33L30.48 32.25L30.44 32.16L30.4 32.07L30.37 31.98L30.33 31.88L30.31 31.79L30.28 31.69L30.26 31.59L30.24 31.5L30.23 31.39L30.22 31.29L30.21 31.19L30.21 31.09L30.21 24.06L30.21 23.92L30.22 23.79L30.24 23.65L30.26 23.52L30.29 23.4L30.33 23.27L30.37 23.15L30.42 23.03L30.47 22.91L30.53 22.8L30.59 22.69L30.66 22.58L30.74 22.48L30.81 22.38L30.9 22.28L30.98 22.19L31.08 22.1L31.17 22.02L31.27 21.94L31.37 21.87L31.48 21.8L31.59 21.74L31.71 21.68L31.82 21.63L31.94 21.58L32.06 21.54L32.19 21.5L32.32 21.47L32.45 21.45L32.58 21.43L32.71 21.42L32.85 21.42L32.96 21.42L33.06 21.43L33.17 21.44L33.28 21.45L33.38 21.47L33.48 21.5L33.59 21.52L33.68 21.56L33.78 21.59L33.88 21.63L33.97 21.67L34.06 21.72L34.15 21.77L34.24 21.82L34.33 21.88L34.41 21.93L34.49 22L34.57 22.06L34.65 22.13L34.72 22.2L34.79 22.27L34.86 22.35L34.92 22.43L34.98 22.51L35.04 22.6L35.1 22.68L35.15 22.77L35.2 22.86L35.24 22.95L35.28 23.05L35.32 23.14L35.36 23.24L35.39 23.25L35.42 23.25L35.43 23.26L35.46 23.26L35.44 23L35.41 22.75L35.38 22.49L35.34 22.24L35.3 21.99L35.26 21.74L35.2 21.49L35.14 21.24L35.08 21L35.01 20.76L34.94 20.51L34.86 20.27L34.78 20.03L34.69 19.8L34.6 19.57L34.5 19.33L34.39 19.1L34.29 18.88L34.17 18.65L34.06 18.43L33.93 18.21L33.81 18L33.67 17.78L33.54 17.57L33.39 17.36L33.25 17.16L33.1 16.96L32.94 16.76L32.78 16.57L32.62 16.38L32.45 16.19L32.28 16L32.2 16.05L32.12 16.09L32.03 16.13L31.95 16.17L31.86 16.2L31.78 16.23L31.69 16.26L31.6 16.28L31.51 16.31L31.42 16.32L31.33 16.34L31.24 16.35L31.15 16.36L31.06 16.37L30.97 16.37L30.88 16.37L30.79 16.37L30.69 16.36L30.6 16.35L30.51 16.34L30.42 16.32L30.33 16.3L30.24 16.28L30.15 16.25L30.06 16.22L29.97 16.19L29.89 16.15L29.8 16.11L29.71 16.07L29.63 16.02L29.55 15.97L29.46 15.92L29.16 15.73L28.85 15.54L28.54 15.38L28.21 15.22L27.89 15.07L27.55 14.94L27.21 14.82L26.87 14.72L26.52 14.62L26.16 14.54L25.81 14.47L25.45 14.42L25.09 14.37L24.73 14.34L24.36 14.32L24 14.32L23.64 14.32L23.27 14.34L22.91 14.37L22.55 14.42L22.19 14.47L21.84 14.54L21.48 14.62L21.13 14.72L20.79 14.82L20.45 14.94L20.12 15.07L19.79 15.22L19.46 15.37L19.15 15.54L18.84 15.73L18.54 15.92L18.46 15.97L18.38 16.02L18.29 16.07L18.21 16.11L18.12 16.15L18.04 16.19L17.95 16.22L17.86 16.25L17.77 16.27L17.68 16.3L17.59 16.32L17.5 16.33L17.41 16.35L17.32 16.36L17.23 16.37L17.14 16.37L17.05 16.37L16.95 16.37L16.86 16.36L16.77 16.36L16.68 16.34L16.59 16.33L16.5 16.31L16.41 16.29L16.32 16.26L16.23 16.24L16.14 16.21L16.06 16.17L15.97 16.14L15.89 16.09L15.8 16.05L15.72 16L15.55 16.19L15.38 16.38L15.22 16.57L15.06 16.76L14.9 16.96L14.75 17.16L14.61 17.36L14.46 17.57L14.33 17.78L14.19 18L14.07 18.21L13.94 18.43L13.83 18.65L13.71 18.88L13.61 19.1L13.5 19.33L13.4 19.57L13.31 19.8L13.22 20.03L13.14 20.27L13.06 20.51L12.99 20.76L12.92 21L12.86 21.24L12.8 21.49L12.75 21.74L12.7 21.99L12.66 22.24L12.62 22.49L12.59 22.75L12.56 23L12.54 23.26L12.56 23.26L12.58 23.25L12.61 23.25L12.64 23.24L12.68 23.14L12.72 23.05L12.76 22.95L12.8 22.86L12.85 22.77L12.9 22.68L12.96 22.6L13.02 22.51L13.08 22.43L13.14 22.35L13.21 22.27L13.28 22.2L13.35 22.13L13.43 22.06L13.51 22L13.59 21.93L13.67 21.88L13.76 21.82L13.85 21.77L13.94 21.72L14.03 21.67L14.12 21.63L14.22 21.59L14.32 21.56L14.41 21.52L14.52 21.5L14.62 21.47L14.72 21.45L14.83 21.44L14.94 21.43L15.04 21.42L15.15 21.42L15.29 21.42L15.42 21.43L15.55 21.45L15.68 21.47L15.81 21.5L15.94 21.54L16.06 21.58L16.18 21.63L16.29 21.68L16.41 21.74L16.52 21.8L16.63 21.87L16.73 21.94L16.83 22.02L16.92 22.1L17.02 22.19L17.1 22.28L17.19 22.38L17.26 22.48L17.34 22.58L17.41 22.69L17.47 22.8L17.53 22.91L17.58 23.03L17.63 23.15L17.67 23.27L17.71 23.4L17.74 23.52L17.76 23.65L17.78 23.79L17.79 23.92L17.79 24.06L17.79 31.09L17.79 31.22L17.78 31.36L17.76 31.49L17.74 31.62L17.71 31.75L17.67 31.87L17.63 31.99L17.58 32.11L17.53 32.23L17.47 32.34L17.41 32.45L17.34 32.56L17.26 32.66L17.19 32.76L17.1 32.86L17.02 32.95L16.92 33.04L16.83 33.12L16.73 33.2L16.63 33.27L16.52 33.34L16.41 33.4L16.29 33.46L16.18 33.52L16.06 33.56L15.94 33.6L15.81 33.64L15.68 33.67L15.55 33.69L15.42 33.71L15.29 33.72L15.15 33.72L15.04 33.72L14.94 33.71L14.83 33.7L14.72 33.69L14.62 33.67L14.52 33.65L14.41 33.62L14.32 33.59L14.22 33.55L14.12 33.51L14.03 33.47L13.94 33.43L13.85 33.38L13.76 33.32L13.67 33.27L13.59 33.21L13.51 33.15L13.43 33.08L13.35 33.01L13.28 32.94L13.21 32.87L13.14 32.79L13.08 32.71L13.02 32.63L12.96 32.55L12.9 32.46L12.85 32.37L12.8 32.28L12.76 32.19L12.72 32.1L12.68 32L12.64 31.9L12.45 31.86L12.26 31.82L12.08 31.76L11.89 31.7L11.72 31.63L11.54 31.55L11.37 31.47L11.2 31.38L11.04 31.28L10.88 31.17L10.73 31.06L10.58 30.95L10.44 30.82L10.3 30.69L10.17 30.56L10.05 30.41L9.93 30.27L9.81 30.12L9.71 29.96L9.61 29.8L9.52 29.63L9.43 29.46L9.35 29.29L9.28 29.11L9.22 28.93L9.16 28.75L9.11 28.56L9.07 28.37L9.04 28.17L9.02 27.97L9 27.77L9 27.57L9 27.44L9.01 27.3L9.02 27.17L9.03 27.04L9.05 26.91L9.07 26.78L9.1 26.66L9.12 26.53L9.16 26.41L9.19 26.28L9.23 26.16L9.27 26.04L9.32 25.92L9.37 25.81L9.42 25.69L9.48 25.58L9.54 25.47L9.6 25.36L9.66 25.25L9.73 25.14L9.8 25.04L9.88 24.94L9.95 24.84L10.03 24.74L10.12 24.65L10.2 24.56L10.29 24.47L10.38 24.38L10.47 24.3L10.56 24.21L10.66 24.13L10.76 24.06L10.76 23.88L10.76 23.7L10.77 23.52L10.78 23.35L10.79 23.17L10.8 22.99L10.81 22.82L10.83 22.64L10.85 22.47L10.87 22.29L10.9 22.12L10.92 21.94L10.95 21.77L10.98 21.6L11.02 21.42L11.05 21.25L11.09 21.08L11.13 20.91L11.17 20.74L11.21 20.57L11.26 20.4L11.31 20.23L11.36 20.06L11.42 19.89L11.47 19.73L11.53 19.56L11.59 19.39L11.65 19.23L11.72 19.06L11.78 18.9L11.85 18.73L11.92 18.57L11.99 18.43L12.05 18.3L12.11 18.16L12.18 18.03L12.25 17.89L12.32 17.76L12.39 17.63L12.46 17.5L12.53 17.37L12.61 17.24L12.68 17.11L12.76 16.98L12.84 16.85L12.92 16.73L13 16.6L13.09 16.48L13.17 16.36L13.26 16.24L13.34 16.11L13.43 15.99L13.52 15.88L13.61 15.76L13.71 15.64L13.8 15.53L13.89 15.41L13.99 15.3L14.09 15.19L14.18 15.08L14.28 14.97L14.38 14.86L14.49 14.75L14.59 14.65L14.55 14.55L14.52 14.44L14.49 14.34L14.47 14.23L14.45 14.12L14.44 14.02L14.43 13.91L14.43 13.8L14.43 13.69L14.43 13.59L14.44 13.48L14.45 13.37L14.47 13.27L14.49 13.16L14.51 13.06L14.54 12.95L14.58 12.85L14.62 12.75L14.66 12.65L14.71 12.55L14.76 12.45L14.81 12.36L14.87 12.27L14.93 12.18L15 12.09L15.07 12L15.15 11.92L15.23 11.84L15.31 11.76L15.4 11.69L15.49 11.62L15.59 11.55L16.06 11.24L16.55 10.95L17.04 10.68L17.55 10.43L18.06 10.21L18.58 10L19.1 9.81L19.63 9.64L20.17 9.49L20.71 9.36L21.25 9.25L21.8 9.16L22.34 9.09L22.9 9.04L23.45 9.01L24 9L24.55 9.01L25.1 9.04ZM26.95 35.74L26.76 36.02L26.7 36.36L26.76 36.7L26.95 36.98L27.23 37.17L27.57 37.24L27.92 37.17L28.2 36.98L28.38 36.7L28.45 36.36L28.38 36.02L28.2 35.74L27.92 35.55L27.57 35.48L27.23 35.55L26.95 35.74ZM14.69 23.4L14.48 23.67L14.27 24.06L14.27 31.09L14.34 31.43L14.53 31.71L14.81 31.9L15.15 31.97L15.49 31.9L15.77 31.71L15.96 31.43L16.03 31.09L16.03 24.06L15.96 23.71L15.77 23.43L15.49 23.25L15.15 23.18L14.92 23.23L14.69 23.4ZM32.23 23.43L32.04 23.71L31.97 24.06L31.97 31.09L32.04 31.43L32.23 31.71L32.51 31.9L32.85 31.97L33.08 31.91L33.31 31.75L33.52 31.47L33.73 31.09L33.73 24.06L33.66 23.71L33.47 23.43L33.19 23.25L32.85 23.18L32.51 23.25L32.23 23.43ZM36.19 29.68L36.75 29.11L37.11 28.39L37.24 27.57L37.11 26.75L36.75 26.03L36.19 25.47L35.48 25.09L35.48 30.06L36.19 29.68ZM10.89 26.75L10.76 27.57L10.87 28.16L11.2 28.77L11.75 29.4L12.52 30.06L12.52 25.09L11.81 25.47L11.25 26.04L10.89 26.75ZM21.41 11.01L20.14 11.32L18.91 11.76L17.71 12.32L16.57 13.01L16.39 13.16L16.27 13.36L16.2 13.57L16.19 13.79L16.23 14.02L16.33 14.23L16.49 14.4L16.68 14.53L16.89 14.6L17.12 14.61L17.34 14.57L17.55 14.46L18.51 13.89L19.52 13.42L20.59 13.04L21.7 12.77L22.84 12.6L24 12.55L25.16 12.6L26.3 12.77L27.41 13.04L28.48 13.42L29.49 13.89L30.45 14.46L30.66 14.57L30.88 14.61L31.11 14.6L31.32 14.53L31.51 14.4L31.67 14.23L31.77 14.02L31.82 13.79L31.8 13.57L31.73 13.35L31.61 13.16L31.43 13.01L30.29 12.32L29.09 11.76L27.86 11.32L26.59 11.01L25.3 10.82L24 10.75L22.7 10.82L21.41 11.01Z" id="b1GoULvQxK"></path></defs><g><g><g><use xlink:href="#b1GoULvQxK" opacity="1" fill="#000000" fill-opacity="1"></use><g><use xlink:href="#b1GoULvQxK" opacity="1" fill-opacity="0" stroke="#000000" stroke-width="1" stroke-opacity="0"></use></g></g></g></g></svg>