<?xml version="1.0" encoding="UTF-8"?>
<svg width="22px" height="22px" viewBox="0 0 22 22" version="1.1" xmlns="http://www.w3.org/2000/svg" xmlns:xlink="http://www.w3.org/1999/xlink">
    <!-- Generator: Sketch 55.1 (78136) - https://sketchapp.com -->
    <title>uEA1F-matching-empty</title>
    <desc>Created with Sketch.</desc>
    <g id="uEA1F-matching-empty" stroke="none" stroke-width="1" fill="none" fill-rule="evenodd">
        <path d="M15.4654519,15.4723109 C15.521194,15.9924654 15.1469868,16.4602245 14.5758448,16.5229717 L14.5233036,16.5229634 C14.0356114,16.525922 13.624477,16.1600123 13.5709139,15.6760109 C13.3680583,13.8700644 11.8408189,12.5047755 10.0235143,12.5047755 C8.20620964,12.5047755 6.67897017,13.8700644 6.47622152,15.6749813 C6.41852193,16.1995229 5.94652214,16.5779732 5.42198048,16.5202736 C4.89743881,16.462574 4.51898853,15.9905742 4.57673443,15.4656133 C4.77426793,13.685212 5.82699857,12.1294677 7.37098188,11.2770086 C6.58957313,10.3561104 6.33324315,9.07510399 6.73936274,7.90211942 C7.22247332,6.50676381 8.53684277,5.5709154 10.013465,5.5709154 C11.4900872,5.5709154 12.8044566,6.50676381 13.2875672,7.90211942 C13.6934559,9.07443726 13.437648,10.3546542 12.65728,11.2754379 C14.2081585,12.12588 15.2667934,13.685111 15.4654519,15.4723109 Z M10.013465,10.5983242 C10.4271653,10.5983242 10.8239215,10.4339824 11.1164518,10.1414521 C11.4089821,9.84892182 11.5733239,9.45216559 11.5733239,9.03846527 C11.5733239,8.17697895 10.8749513,7.4786063 10.013465,7.4786063 C9.15197864,7.4786063 8.45360599,8.17697895 8.45360599,9.03846527 C8.45360599,9.89995159 9.15197864,10.5983242 10.013465,10.5983242 Z" id="Shape" fill="#111111" fill-rule="nonzero"></path>
        <path d="M20.7309154,19.3109154 L17.0209154,15.6309154 C20.0111294,11.9025602 19.5656881,6.48718845 16.0064354,3.29755951 C12.4471827,0.10793057 7.01555512,0.256559283 3.6360572,3.6360572 C0.256559283,7.01555512 0.10793057,12.4471827 3.29755951,16.0064354 C6.48718845,19.5656881 11.9025602,20.0111294 15.6309154,17.0209154 L19.3109154,20.7009154 C19.498682,20.8902281 19.7542779,20.9967137 20.0209154,20.9967137 C20.2875529,20.9967137 20.5431488,20.8902281 20.7309154,20.7009154 C21.1055691,20.3133188 21.1055691,19.698512 20.7309154,19.3109154 Z M10.0209154,17.0209154 C6.15492215,17.0209154 3.0209154,13.8869087 3.0209154,10.0209154 C3.0209154,6.15492215 6.15492215,3.0209154 10.0209154,3.0209154 C13.8869087,3.0209154 17.0209154,6.15492215 17.0209154,10.0209154 C17.0209154,11.8774308 16.2834175,13.6579082 14.9706629,14.9706629 C13.6579082,16.2834175 11.8774308,17.0209154 10.0209154,17.0209154 Z" id="Shape" fill="#000000" fill-rule="nonzero"></path>
    </g>
</svg>