<?xml version="1.0" encoding="UTF-8" standalone="no"?>
<!DOCTYPE svg PUBLIC "-//W3C//DTD SVG 1.1//EN" "http://www.w3.org/Graphics/SVG/1.1/DTD/svg11.dtd">
<svg version="1.1" xmlns="http://www.w3.org/2000/svg" xmlns:xlink="http://www.w3.org/1999/xlink" preserveAspectRatio="xMidYMid meet" viewBox="0 0 48 48" width="48" height="48"><defs><path d="M28.03 9.01L28.12 9.02L28.21 9.03L28.3 9.04L28.39 9.06L28.47 9.08L28.56 9.11L28.64 9.14L28.73 9.17L28.81 9.2L28.89 9.24L28.97 9.28L29.04 9.32L29.12 9.37L29.19 9.41L29.27 9.46L29.34 9.52L29.4 9.57L29.47 9.63L29.53 9.69L29.6 9.75L29.66 9.82L29.71 9.88L29.77 9.95L29.82 10.02L29.87 10.09L29.92 10.17L29.96 10.24L30.01 10.32L30.05 10.4L30.08 10.48L30.12 10.57L30.15 10.65L30.17 10.74L30.2 10.82L30.22 10.91L30.24 11L30.25 11.1L31.2 17.83L31.21 17.88L31.21 17.94L31.22 17.99L31.22 18.05L31.22 18.1L31.22 18.15L31.22 18.21L31.22 18.26L31.22 18.31L31.22 18.37L31.21 18.42L31.2 18.47L31.2 18.52L31.19 18.58L31.18 18.63L31.17 18.68L31.16 18.73L31.15 18.78L31.13 18.83L31.12 18.88L31.1 18.93L31.08 18.98L31.07 19.03L31.05 19.08L31.03 19.13L31 19.18L30.98 19.23L30.96 19.27L30.93 19.32L30.91 19.37L30.88 19.41L30.85 19.46L30.82 19.5L30.79 19.55L30.76 19.59L30.73 19.64L30.69 19.68L30.66 19.72L30.62 19.76L30.59 19.8L30.55 19.84L30.51 19.88L30.47 19.92L30.44 19.96L30.4 19.99L30.35 20.03L30.31 20.06L30.27 20.1L30.23 20.13L30.19 20.16L30.14 20.19L30.1 20.22L30.05 20.25L30.01 20.27L29.96 20.3L29.92 20.33L29.87 20.35L29.82 20.37L29.77 20.39L29.73 20.42L29.68 20.43L29.63 20.45L29.58 20.47L29.53 20.49L29.48 20.5L29.43 20.52L29.38 20.53L29.32 20.54L29.27 20.55L29.22 20.56L29.17 20.57L29.11 20.58L29.06 20.59L29.01 20.59L28.95 20.59L28.9 20.6L28.84 20.6L28.79 20.6L28.23 20.6L28.23 24.54L30.08 24.54L30.19 24.54L30.29 24.55L30.4 24.56L30.51 24.57L30.61 24.59L30.72 24.61L30.82 24.63L30.92 24.66L31.02 24.69L31.12 24.72L31.21 24.76L31.31 24.8L31.4 24.84L31.5 24.88L31.59 24.93L31.68 24.98L31.76 25.04L31.85 25.09L31.93 25.15L32.01 25.21L32.09 25.28L32.17 25.34L32.24 25.41L32.31 25.48L32.38 25.56L32.45 25.63L32.52 25.71L32.58 25.79L32.64 25.88L32.7 25.96L32.75 26.05L32.8 26.13L32.85 26.22L32.9 26.32L32.94 26.41L32.98 26.5L33.02 26.6L33.05 26.7L33.09 26.8L33.16 26.79L33.23 26.78L33.3 26.77L33.37 26.76L33.44 26.74L33.51 26.72L33.58 26.7L33.64 26.68L33.71 26.65L33.77 26.62L33.83 26.59L33.89 26.56L33.95 26.52L34.01 26.49L34.07 26.45L34.12 26.41L34.17 26.36L34.23 26.32L34.28 26.27L34.32 26.22L34.37 26.17L34.41 26.12L34.45 26.06L34.49 26.01L34.53 25.95L34.57 25.89L34.6 25.83L34.63 25.77L34.66 25.71L34.68 25.64L34.71 25.58L34.73 25.51L34.75 25.44L34.76 25.37L34.77 25.31L34.79 25.23L34.79 25.16L34.8 25.09L34.8 25.02L34.8 20.7L34.55 20.7L34.45 20.69L34.36 20.69L34.27 20.68L34.18 20.67L34.09 20.65L34.01 20.63L33.92 20.61L33.84 20.58L33.75 20.55L33.67 20.51L33.59 20.48L33.51 20.44L33.44 20.4L33.36 20.35L33.29 20.3L33.22 20.25L33.15 20.2L33.09 20.14L33.02 20.08L32.96 20.02L32.9 19.96L32.85 19.89L32.79 19.82L32.74 19.75L32.7 19.68L32.65 19.61L32.61 19.53L32.57 19.45L32.53 19.37L32.5 19.29L32.47 19.21L32.44 19.12L32.42 19.04L32.4 18.95L32.38 18.86L32.37 18.77L32.36 18.68L32.35 18.59L32.35 18.5L32.35 18.41L32.36 18.31L32.37 18.22L32.38 18.13L32.4 18.04L32.42 17.96L32.44 17.87L32.47 17.79L32.5 17.7L32.53 17.62L32.57 17.54L32.61 17.47L32.65 17.39L32.7 17.32L32.74 17.24L32.79 17.17L32.85 17.1L32.9 17.04L32.96 16.98L33.02 16.91L33.09 16.86L33.15 16.8L33.22 16.74L33.29 16.69L33.36 16.65L33.44 16.6L33.51 16.56L33.59 16.52L33.67 16.48L33.75 16.45L33.84 16.42L33.92 16.39L34.01 16.37L34.09 16.35L34.18 16.33L34.27 16.32L34.36 16.31L34.45 16.3L34.55 16.3L36.8 16.3L36.89 16.3L36.99 16.31L37.08 16.32L37.17 16.33L37.26 16.35L37.34 16.37L37.43 16.39L37.51 16.42L37.6 16.45L37.68 16.48L37.76 16.52L37.83 16.56L37.91 16.6L37.98 16.65L38.06 16.69L38.13 16.74L38.19 16.8L38.26 16.85L38.32 16.91L38.39 16.98L38.44 17.04L38.5 17.1L38.55 17.17L38.61 17.24L38.65 17.32L38.7 17.39L38.74 17.47L38.78 17.54L38.82 17.62L38.85 17.7L38.88 17.79L38.91 17.87L38.93 17.96L38.95 18.04L38.97 18.13L38.98 18.22L38.99 18.31L39 18.41L39 18.5L39 18.59L38.99 18.68L38.98 18.77L38.97 18.86L38.95 18.95L38.93 19.04L38.91 19.12L38.88 19.21L38.85 19.29L38.82 19.37L38.78 19.45L38.74 19.53L38.7 19.61L38.65 19.68L38.61 19.75L38.55 19.82L38.5 19.89L38.44 19.96L38.39 20.02L38.32 20.08L38.26 20.14L38.19 20.2L38.13 20.25L38.06 20.3L37.98 20.35L37.91 20.4L37.83 20.44L37.76 20.48L37.68 20.51L37.6 20.55L37.51 20.58L37.43 20.61L37.34 20.63L37.26 20.65L37.17 20.67L37.08 20.68L36.99 20.69L36.89 20.69L36.8 20.7L36.56 20.7L36.56 25.02L36.55 25.17L36.54 25.31L36.53 25.45L36.51 25.6L36.48 25.74L36.45 25.87L36.41 26.01L36.37 26.14L36.32 26.28L36.27 26.4L36.21 26.53L36.15 26.66L36.08 26.78L36.01 26.89L35.94 27.01L35.86 27.12L35.77 27.23L35.68 27.33L35.59 27.44L35.49 27.53L35.39 27.63L35.29 27.72L35.18 27.81L35.07 27.89L34.96 27.97L34.84 28.04L34.72 28.11L34.6 28.17L34.47 28.24L34.34 28.29L34.21 28.34L34.08 28.39L33.94 28.43L33.81 28.46L33.67 28.49L33.52 28.52L33.38 28.54L33.23 28.55L33.09 28.56L33.06 28.66L33.02 28.75L32.98 28.85L32.94 28.95L32.9 29.04L32.86 29.13L32.81 29.22L32.75 29.31L32.7 29.4L32.64 29.48L32.58 29.56L32.52 29.64L32.45 29.72L32.39 29.8L32.32 29.87L32.24 29.94L32.17 30.01L32.09 30.08L32.01 30.14L31.93 30.21L31.85 30.26L31.76 30.32L31.68 30.37L31.59 30.43L31.5 30.47L31.41 30.52L31.31 30.56L31.22 30.6L31.12 30.64L31.02 30.67L30.92 30.7L30.82 30.73L30.72 30.75L30.61 30.77L30.51 30.79L30.4 30.8L30.29 30.81L30.19 30.81L30.08 30.82L24.88 30.82L24.88 33.02L27.68 33.02L27.89 33.03L28.1 33.04L28.31 33.06L28.52 33.09L28.72 33.13L28.93 33.18L29.12 33.23L29.32 33.29L29.51 33.36L29.7 33.44L29.88 33.52L30.06 33.62L30.24 33.71L30.41 33.82L30.58 33.93L30.74 34.05L30.89 34.17L31.05 34.3L31.19 34.44L31.33 34.58L31.47 34.73L31.6 34.88L31.72 35.04L31.84 35.2L31.95 35.36L32.06 35.54L32.16 35.71L32.25 35.89L32.33 36.08L32.41 36.26L32.48 36.45L32.54 36.65L32.6 36.85L32.64 37.05L32.68 37.25L32.71 37.46L32.74 37.67L32.75 37.88L32.75 38.1L32.75 38.13L32.75 38.17L32.75 38.21L32.74 38.24L32.73 38.28L32.73 38.31L32.72 38.35L32.71 38.38L32.69 38.41L32.68 38.45L32.67 38.48L32.65 38.51L32.63 38.54L32.61 38.57L32.6 38.6L32.57 38.63L32.55 38.65L32.53 38.68L32.51 38.7L32.48 38.73L32.46 38.75L32.43 38.77L32.4 38.8L32.38 38.82L32.35 38.84L32.32 38.85L32.29 38.87L32.26 38.89L32.22 38.9L32.19 38.92L32.16 38.93L32.12 38.94L32.09 38.95L32.06 38.96L32.02 38.96L31.98 38.97L31.95 38.97L31.91 38.97L31.87 38.97L31.84 38.97L31.8 38.97L31.76 38.97L31.73 38.96L31.69 38.96L31.66 38.95L31.62 38.94L31.59 38.93L31.56 38.92L31.52 38.9L31.49 38.89L31.46 38.87L31.43 38.85L31.4 38.84L31.37 38.82L31.34 38.8L31.32 38.77L31.29 38.75L31.26 38.73L31.24 38.7L31.22 38.68L31.19 38.65L31.17 38.63L31.15 38.6L31.13 38.57L31.11 38.54L31.1 38.51L31.08 38.48L31.07 38.45L31.05 38.41L31.04 38.38L31.03 38.35L31.02 38.31L31.01 38.28L31.01 38.24L31 38.21L31 38.17L31 38.13L30.99 38.1L30.99 37.96L30.98 37.82L30.97 37.68L30.95 37.54L30.92 37.41L30.89 37.28L30.86 37.15L30.82 37.02L30.77 36.9L30.72 36.78L30.67 36.65L30.61 36.54L30.54 36.42L30.47 36.31L30.4 36.2L30.32 36.1L30.24 35.99L30.16 35.89L30.07 35.8L29.98 35.71L29.88 35.62L29.78 35.53L29.68 35.45L29.57 35.37L29.46 35.3L29.35 35.23L29.24 35.17L29.12 35.11L29 35.05L28.88 35L28.75 34.96L28.62 34.92L28.49 34.88L28.36 34.85L28.23 34.82L28.09 34.8L27.96 34.79L27.82 34.78L27.68 34.78L24.88 34.78L24.88 38.1L24.88 38.13L24.88 38.17L24.87 38.21L24.87 38.24L24.86 38.28L24.85 38.31L24.84 38.35L24.83 38.38L24.82 38.41L24.81 38.45L24.79 38.48L24.78 38.51L24.76 38.54L24.74 38.57L24.72 38.6L24.7 38.63L24.68 38.65L24.66 38.68L24.63 38.7L24.61 38.73L24.58 38.75L24.56 38.78L24.53 38.8L24.5 38.82L24.47 38.84L24.44 38.85L24.41 38.87L24.38 38.89L24.35 38.9L24.32 38.92L24.28 38.93L24.25 38.94L24.22 38.95L24.18 38.96L24.15 38.96L24.11 38.97L24.07 38.97L24.04 38.97L24 38.97L23.96 38.97L23.93 38.97L23.89 38.97L23.85 38.96L23.82 38.96L23.78 38.95L23.75 38.94L23.72 38.93L23.68 38.92L23.65 38.9L23.62 38.89L23.59 38.87L23.56 38.85L23.53 38.84L23.5 38.82L23.47 38.8L23.44 38.78L23.42 38.75L23.39 38.73L23.37 38.7L23.34 38.68L23.32 38.65L23.3 38.63L23.28 38.6L23.26 38.57L23.24 38.54L23.22 38.51L23.21 38.48L23.19 38.45L23.18 38.41L23.17 38.38L23.16 38.35L23.15 38.31L23.14 38.28L23.13 38.24L23.13 38.21L23.12 38.17L23.12 38.13L23.12 38.1L23.12 34.78L20.41 34.78L20.27 34.78L20.13 34.79L19.99 34.8L19.86 34.82L19.72 34.85L19.59 34.88L19.46 34.92L19.34 34.96L19.21 35L19.09 35.05L18.97 35.11L18.85 35.17L18.74 35.23L18.62 35.3L18.51 35.37L18.41 35.45L18.31 35.53L18.21 35.62L18.11 35.71L18.02 35.8L17.93 35.89L17.84 35.99L17.76 36.1L17.69 36.2L17.61 36.31L17.54 36.42L17.48 36.54L17.42 36.65L17.37 36.78L17.31 36.9L17.27 37.02L17.23 37.15L17.19 37.28L17.16 37.41L17.14 37.54L17.12 37.68L17.1 37.82L17.09 37.96L17.09 38.1L17.09 38.13L17.09 38.17L17.08 38.21L17.08 38.24L17.07 38.28L17.06 38.31L17.05 38.35L17.04 38.38L17.03 38.41L17.02 38.45L17 38.48L16.99 38.51L16.97 38.54L16.95 38.57L16.93 38.6L16.91 38.63L16.89 38.65L16.87 38.68L16.85 38.7L16.82 38.73L16.8 38.75L16.77 38.77L16.74 38.8L16.71 38.82L16.69 38.84L16.66 38.85L16.63 38.87L16.59 38.89L16.56 38.9L16.53 38.92L16.5 38.93L16.46 38.94L16.43 38.95L16.39 38.96L16.36 38.96L16.32 38.97L16.29 38.97L16.25 38.97L16.21 38.97L16.18 38.97L16.14 38.97L16.1 38.97L16.07 38.96L16.03 38.96L16 38.95L15.96 38.94L15.93 38.93L15.89 38.92L15.86 38.9L15.83 38.89L15.8 38.87L15.77 38.85L15.74 38.84L15.71 38.82L15.68 38.8L15.65 38.77L15.63 38.75L15.6 38.73L15.58 38.7L15.56 38.68L15.53 38.65L15.51 38.63L15.49 38.6L15.47 38.57L15.45 38.54L15.44 38.51L15.42 38.48L15.41 38.45L15.39 38.41L15.38 38.38L15.37 38.35L15.36 38.31L15.35 38.28L15.35 38.24L15.34 38.21L15.34 38.17L15.33 38.13L15.33 38.1L15.34 37.88L15.35 37.67L15.37 37.46L15.4 37.25L15.44 37.05L15.49 36.85L15.54 36.65L15.61 36.45L15.68 36.26L15.75 36.08L15.84 35.89L15.93 35.71L16.03 35.54L16.13 35.36L16.24 35.2L16.36 35.04L16.49 34.88L16.62 34.73L16.75 34.58L16.89 34.44L17.04 34.3L17.19 34.17L17.35 34.05L17.51 33.93L17.68 33.82L17.85 33.71L18.02 33.62L18.2 33.52L18.39 33.44L18.58 33.36L18.77 33.29L18.96 33.23L19.16 33.18L19.36 33.13L19.57 33.09L19.77 33.06L19.98 33.04L20.19 33.03L20.41 33.02L23.12 33.02L23.12 30.82L17.92 30.82L17.81 30.81L17.71 30.81L17.6 30.8L17.49 30.79L17.39 30.77L17.28 30.75L17.18 30.73L17.08 30.7L16.98 30.67L16.88 30.64L16.78 30.6L16.69 30.56L16.59 30.52L16.5 30.47L16.41 30.43L16.32 30.37L16.24 30.32L16.15 30.26L16.07 30.21L15.99 30.14L15.91 30.08L15.83 30.01L15.76 29.94L15.68 29.87L15.61 29.8L15.55 29.72L15.48 29.64L15.42 29.56L15.36 29.48L15.3 29.4L15.25 29.31L15.19 29.22L15.14 29.13L15.1 29.04L15.06 28.95L15.02 28.85L14.98 28.75L14.94 28.66L14.91 28.56L14.77 28.55L14.62 28.54L14.48 28.52L14.33 28.49L14.19 28.46L14.06 28.43L13.92 28.39L13.79 28.34L13.66 28.29L13.53 28.24L13.4 28.17L13.28 28.11L13.16 28.04L13.04 27.97L12.93 27.89L12.82 27.81L12.71 27.72L12.61 27.63L12.51 27.53L12.41 27.44L12.32 27.33L12.23 27.23L12.14 27.12L12.06 27.01L11.99 26.89L11.92 26.78L11.85 26.66L11.79 26.53L11.73 26.4L11.68 26.28L11.63 26.14L11.59 26.01L11.55 25.87L11.52 25.74L11.49 25.6L11.47 25.45L11.46 25.31L11.45 25.17L11.44 25.02L11.44 20.7L11.2 20.7L11.11 20.69L11.01 20.69L10.92 20.68L10.83 20.67L10.74 20.65L10.66 20.63L10.57 20.61L10.49 20.58L10.4 20.55L10.32 20.51L10.24 20.48L10.17 20.44L10.09 20.4L10.02 20.35L9.94 20.3L9.87 20.25L9.81 20.2L9.74 20.14L9.68 20.08L9.61 20.02L9.56 19.96L9.5 19.89L9.45 19.82L9.39 19.75L9.35 19.68L9.3 19.61L9.26 19.53L9.22 19.45L9.18 19.37L9.15 19.29L9.12 19.21L9.09 19.12L9.07 19.04L9.05 18.95L9.03 18.86L9.02 18.77L9.01 18.68L9 18.59L9 18.5L9 18.41L9.01 18.31L9.02 18.22L9.03 18.13L9.05 18.04L9.07 17.96L9.09 17.87L9.12 17.79L9.15 17.7L9.18 17.62L9.22 17.54L9.26 17.47L9.3 17.39L9.35 17.31L9.39 17.24L9.45 17.17L9.5 17.1L9.56 17.04L9.61 16.98L9.68 16.91L9.74 16.85L9.81 16.8L9.87 16.74L9.94 16.69L10.02 16.65L10.09 16.6L10.17 16.56L10.24 16.52L10.32 16.48L10.4 16.45L10.49 16.42L10.57 16.39L10.66 16.37L10.74 16.35L10.83 16.33L10.92 16.32L11.01 16.31L11.11 16.3L11.2 16.3L13.45 16.3L13.55 16.3L13.64 16.31L13.73 16.32L13.82 16.33L13.91 16.35L13.99 16.37L14.08 16.39L14.16 16.42L14.25 16.45L14.33 16.48L14.41 16.52L14.49 16.56L14.56 16.6L14.64 16.65L14.71 16.69L14.78 16.74L14.85 16.8L14.91 16.85L14.98 16.91L15.04 16.98L15.1 17.04L15.15 17.1L15.21 17.17L15.26 17.24L15.3 17.31L15.35 17.39L15.39 17.47L15.43 17.54L15.47 17.62L15.5 17.7L15.53 17.79L15.56 17.87L15.58 17.96L15.6 18.04L15.62 18.13L15.63 18.22L15.64 18.31L15.65 18.41L15.65 18.5L15.65 18.59L15.64 18.68L15.63 18.77L15.62 18.86L15.6 18.95L15.58 19.04L15.56 19.12L15.53 19.21L15.5 19.29L15.47 19.37L15.43 19.45L15.39 19.53L15.35 19.61L15.3 19.68L15.26 19.75L15.21 19.82L15.15 19.89L15.1 19.96L15.04 20.02L14.98 20.08L14.91 20.14L14.85 20.2L14.78 20.25L14.71 20.3L14.64 20.35L14.56 20.4L14.49 20.44L14.41 20.48L14.33 20.51L14.25 20.55L14.16 20.58L14.08 20.61L13.99 20.63L13.91 20.65L13.82 20.67L13.73 20.68L13.64 20.69L13.55 20.69L13.45 20.7L13.2 20.7L13.2 25.02L13.2 25.09L13.21 25.16L13.21 25.23L13.23 25.31L13.24 25.37L13.25 25.44L13.27 25.51L13.29 25.58L13.32 25.64L13.34 25.71L13.37 25.77L13.4 25.83L13.43 25.89L13.47 25.95L13.51 26.01L13.55 26.06L13.59 26.12L13.63 26.17L13.68 26.22L13.72 26.27L13.77 26.32L13.83 26.36L13.88 26.41L13.93 26.45L13.99 26.49L14.05 26.52L14.11 26.56L14.17 26.59L14.23 26.62L14.29 26.65L14.36 26.68L14.42 26.7L14.49 26.72L14.56 26.74L14.63 26.76L14.7 26.77L14.77 26.78L14.84 26.79L14.91 26.8L14.95 26.7L14.98 26.6L15.02 26.5L15.06 26.41L15.1 26.32L15.15 26.22L15.2 26.13L15.25 26.05L15.3 25.96L15.36 25.88L15.42 25.79L15.48 25.71L15.55 25.63L15.62 25.56L15.69 25.48L15.76 25.41L15.83 25.34L15.91 25.28L15.99 25.21L16.07 25.15L16.15 25.09L16.24 25.04L16.32 24.98L16.41 24.93L16.5 24.88L16.6 24.84L16.69 24.8L16.79 24.76L16.88 24.72L16.98 24.69L17.08 24.66L17.18 24.63L17.28 24.61L17.39 24.59L17.49 24.57L17.6 24.56L17.71 24.55L17.81 24.54L17.92 24.54L19.77 24.54L19.77 20.6L19.21 20.6L19.16 20.6L19.1 20.6L19.05 20.59L18.99 20.59L18.94 20.59L18.89 20.58L18.83 20.57L18.78 20.56L18.73 20.55L18.68 20.54L18.62 20.53L18.57 20.52L18.52 20.5L18.47 20.49L18.42 20.47L18.37 20.45L18.32 20.43L18.27 20.42L18.23 20.39L18.18 20.37L18.13 20.35L18.08 20.33L18.04 20.3L17.99 20.27L17.95 20.25L17.9 20.22L17.86 20.19L17.81 20.16L17.77 20.13L17.73 20.1L17.69 20.06L17.65 20.03L17.6 19.99L17.56 19.96L17.53 19.92L17.49 19.88L17.45 19.84L17.41 19.8L17.38 19.76L17.34 19.72L17.31 19.68L17.27 19.64L17.24 19.59L17.21 19.55L17.18 19.5L17.15 19.46L17.12 19.41L17.09 19.37L17.07 19.32L17.04 19.27L17.02 19.23L17 19.18L16.97 19.13L16.95 19.08L16.93 19.03L16.92 18.98L16.9 18.93L16.88 18.88L16.87 18.83L16.85 18.78L16.84 18.73L16.83 18.68L16.82 18.63L16.81 18.58L16.8 18.52L16.8 18.47L16.79 18.42L16.78 18.37L16.78 18.31L16.78 18.26L16.78 18.21L16.78 18.15L16.78 18.1L16.78 18.05L16.78 17.99L16.79 17.94L16.79 17.88L16.8 17.83L17.75 11.1L17.76 11L17.78 10.91L17.8 10.82L17.83 10.74L17.85 10.65L17.88 10.57L17.92 10.48L17.95 10.4L17.99 10.32L18.04 10.24L18.08 10.17L18.13 10.09L18.18 10.02L18.23 9.95L18.29 9.88L18.34 9.82L18.4 9.75L18.47 9.69L18.53 9.63L18.6 9.57L18.66 9.52L18.73 9.46L18.81 9.41L18.88 9.37L18.96 9.32L19.03 9.28L19.11 9.24L19.19 9.2L19.27 9.17L19.36 9.14L19.44 9.11L19.53 9.08L19.61 9.06L19.7 9.04L19.79 9.03L19.88 9.02L19.97 9.01L20.06 9L20.16 9L27.84 9L27.94 9L28.03 9.01ZM17.56 26.35L17.23 26.49L16.95 26.71L16.73 26.98L16.59 27.31L16.55 27.68L16.59 28.05L16.73 28.37L16.95 28.65L17.23 28.87L17.56 29.01L17.92 29.06L30.08 29.06L30.44 29.01L30.77 28.87L31.05 28.65L31.27 28.37L31.41 28.05L31.45 27.68L31.41 27.31L31.27 26.98L31.05 26.71L30.77 26.49L30.44 26.35L30.08 26.3L17.92 26.3L17.56 26.35ZM21.53 24.54L26.47 24.54L26.47 20.6L21.53 20.6L21.53 24.54ZM34.38 18.09L34.24 18.19L34.14 18.33L34.11 18.5L34.14 18.67L34.24 18.81L34.38 18.9L34.55 18.94L36.8 18.94L36.97 18.9L37.11 18.81L37.21 18.67L37.24 18.5L37.21 18.33L37.11 18.19L36.97 18.09L36.8 18.06L34.55 18.06L34.38 18.09ZM11.03 18.09L10.89 18.19L10.79 18.33L10.76 18.5L10.79 18.62L10.87 18.73L11.01 18.84L11.2 18.94L13.45 18.94L13.62 18.9L13.76 18.81L13.86 18.67L13.89 18.5L13.86 18.33L13.76 18.19L13.62 18.09L13.45 18.06L11.2 18.06L11.03 18.09ZM20.02 10.77L19.89 10.82L19.77 10.88L19.67 10.97L19.58 11.08L19.52 11.2L19.49 11.34L18.54 18.07L18.54 18.16L18.54 18.24L18.55 18.32L18.57 18.4L18.61 18.47L18.65 18.54L18.7 18.61L18.74 18.65L18.8 18.69L18.86 18.73L18.93 18.76L19.02 18.79L19.11 18.82L19.21 18.84L28.79 18.84L28.87 18.84L28.95 18.82L29.03 18.8L29.11 18.76L29.17 18.72L29.24 18.67L29.3 18.61L29.35 18.54L29.39 18.47L29.43 18.4L29.45 18.32L29.46 18.24L29.46 18.16L29.46 18.07L28.51 11.34L28.48 11.2L28.42 11.08L28.33 10.97L28.23 10.88L28.11 10.82L27.98 10.77L27.84 10.76L20.16 10.76L20.02 10.77Z" id="awCenOrfg"></path></defs><g><g><g><use xlink:href="#awCenOrfg" opacity="1" fill="#000000" fill-opacity="1"></use><g><use xlink:href="#awCenOrfg" opacity="1" fill-opacity="0" stroke="#000000" stroke-width="1" stroke-opacity="0"></use></g></g></g></g></svg>