<?xml version="1.0" encoding="UTF-8"?>
<svg width="22px" height="22px" viewBox="0 0 22 22" version="1.1" xmlns="http://www.w3.org/2000/svg" xmlns:xlink="http://www.w3.org/1999/xlink">
    <!-- Generator: Sketch 55.1 (78136) - https://sketchapp.com -->
    <title>uEA11-edit</title>
    <desc>Created with Sketch.</desc>
    <g id="uEA11-edit" stroke="none" stroke-width="1" fill="none" fill-rule="evenodd">
        <path d="M20,11.0057983 C19.4477153,11.0057983 19,11.4535136 19,12.0057983 L19,18.0057983 C19,18.5580831 18.5522847,19.0057983 18,19.0057983 L4,19.0057983 C3.44771525,19.0057983 3,18.5580831 3,18.0057983 L3,4.00579832 C3,3.45351357 3.44771525,3.00579832 4,3.00579832 L10,3.00579832 C10.5522847,3.00579832 11,2.55808307 11,2.00579832 C11,1.45351357 10.5522847,1.00579832 10,1.00579832 L4,1.00579832 C2.34314575,1.00579832 1,2.34894407 1,4.00579832 L1,18.0057983 C1,19.6626526 2.34314575,21.0057983 4,21.0057983 L18,21.0057983 C19.6568542,21.0057983 21,19.6626526 21,18.0057983 L21,12.0057983 C21,11.4535136 20.5522847,11.0057983 20,11.0057983 Z M4.99998326,11.7657983 L4.99998326,16.0057983 C4.99998326,16.5580831 5.44771525,17.0058151 6,17.0058151 L10.24,17.0058151 C10.505803,17.0073351 10.7612812,16.9029848 10.95,16.7157983 L17.87,9.78579832 L17.87,9.78579832 L20.71,7.00579832 C20.8993127,6.81803172 21.0057983,6.56243586 21.0057983,6.29579832 C21.0057983,6.02916079 20.8993127,5.77356492 20.71,5.58579832 L16.47,1.29579832 C16.2822334,1.10648567 16.0266375,1 15.76,1 C15.4933625,1 15.2377666,1.10648567 15.05,1.29579832 L12.23,4.12579832 L12.23,4.12579832 L5.29,11.0557983 C5.10281349,11.2445172 4.99846324,11.5 4.99998326,11.7657983 Z M15.76,3.41579832 L18.59,6.24579832 L17.17,7.66579832 L14.34,4.83579832 L15.76,3.41579832 Z M7,12.1757983 L12.93,6.24579832 L15.76,9.07579832 L9.83,15.0057983 L7,15.0057983 L7,12.1757983 Z" id="Shape" fill="#000000" fill-rule="nonzero"></path>
    </g>
</svg>