<?xml version="1.0" encoding="UTF-8" standalone="no"?>
<!DOCTYPE svg PUBLIC "-//W3C//DTD SVG 1.1//EN" "http://www.w3.org/Graphics/SVG/1.1/DTD/svg11.dtd">
<svg version="1.1" xmlns="http://www.w3.org/2000/svg" xmlns:xlink="http://www.w3.org/1999/xlink" preserveAspectRatio="xMidYMid meet" viewBox="0 0 48 48" width="48" height="48"><defs><path d="M35.43 39L12.57 39L12.57 9L29.64 9L35.43 14.79L35.43 39ZM14.33 37.24L33.67 37.24L33.67 16.03L28.4 16.03L28.39 10.76L14.33 10.76L14.33 37.24ZM32.43 14.27L30.15 12L30.15 14.27L32.43 14.27Z" id="ctp6mIQJx"></path><path d="M26.89 20.64L28.6 20.64L24.51 24.74L20.68 20.91L16.34 25.25L17.58 26.5L20.68 23.39L24.51 27.22L29.84 21.89L29.84 23.61L31.6 23.61L31.6 18.88L26.89 18.88L26.89 20.64Z" id="bHMo3H2KU"></path><path d="M31.65 29.02C31.65 29.02 31.65 29.02 31.65 29.02C31.65 30.08 31.65 30.66 31.65 30.78C31.65 30.78 31.65 30.78 31.65 30.78C22.46 30.78 17.36 30.78 16.34 30.78C16.34 30.78 16.34 30.78 16.34 30.78C16.34 29.72 16.34 29.14 16.34 29.02C16.34 29.02 16.34 29.02 16.34 29.02C25.52 29.02 30.63 29.02 31.65 29.02Z" id="cXMDgnNDW"></path><path d="M31.66 32.54C31.66 32.54 31.66 32.54 31.66 32.54C31.66 33.59 31.66 34.18 31.66 34.29C31.66 34.29 31.66 34.29 31.66 34.29C22.48 34.29 17.37 34.29 16.35 34.29C16.35 34.29 16.35 34.29 16.35 34.29C16.35 33.24 16.35 32.65 16.35 32.54C16.35 32.54 16.35 32.54 16.35 32.54C25.54 32.54 30.64 32.54 31.66 32.54Z" id="d2FuBrsFEC"></path></defs><g><g><g><g><use xlink:href="#ctp6mIQJx" opacity="1" fill="#000000" fill-opacity="1"></use><g><use xlink:href="#ctp6mIQJx" opacity="1" fill-opacity="0" stroke="#000000" stroke-width="1" stroke-opacity="0"></use></g></g><g><use xlink:href="#bHMo3H2KU" opacity="1" fill="#000000" fill-opacity="1"></use><g><use xlink:href="#bHMo3H2KU" opacity="1" fill-opacity="0" stroke="#000000" stroke-width="1" stroke-opacity="0"></use></g></g><g><use xlink:href="#cXMDgnNDW" opacity="1" fill="#000000" fill-opacity="1"></use><g><use xlink:href="#cXMDgnNDW" opacity="1" fill-opacity="0" stroke="#000000" stroke-width="1" stroke-opacity="0"></use></g></g><g><use xlink:href="#d2FuBrsFEC" opacity="1" fill="#000000" fill-opacity="1"></use><g><use xlink:href="#d2FuBrsFEC" opacity="1" fill-opacity="0" stroke="#000000" stroke-width="1" stroke-opacity="0"></use></g></g></g></g></g></svg>