<?xml version="1.0" encoding="UTF-8"?>
<svg width="22px" height="22px" viewBox="0 0 22 22" version="1.1" xmlns="http://www.w3.org/2000/svg" xmlns:xlink="http://www.w3.org/1999/xlink">
    <!-- Generator: Sketch 55.1 (78136) - https://sketchapp.com -->
    <title>uEA1C-home</title>
    <desc>Created with Sketch.</desc>
    <g id="uEA1C-home" stroke="none" stroke-width="1" fill="none" fill-rule="evenodd">
        <path d="M19.000095,7.02393202 L19.000095,7.02393202 L13.000095,1.76393202 C11.8612923,0.745355992 10.1388976,0.745355992 9.00009496,1.76393202 L3.00009496,7.02393202 C2.3575393,7.59860225 1.99324248,8.42191306 2,9.28393202 L2,18.023932 C2,19.6807863 3.34324071,21.023932 5.00009496,21.023932 L17.000095,21.023932 C18.6569492,21.023932 20.0001272,19.6807863 20.0001272,18.023932 L20.0001272,9.27393202 C20.0040738,8.4153924 19.6400277,7.5962887 19.000095,7.02393202 Z M13.000095,19.023932 L9.00009496,19.023932 L9.00009496,14.023932 C9.00009496,13.4716473 9.44781021,13.023932 10.000095,13.023932 L12.000095,13.023932 C12.5523797,13.023932 13.000095,13.4716473 13.000095,14.023932 L13.000095,19.023932 Z M18.000095,18.023932 C18.000095,18.5762168 17.5523797,19.023932 17.000095,19.023932 L15.000095,19.023932 L15.000095,14.023932 C15.000095,12.3670778 13.6569492,11.023932 12.000095,11.023932 L10.000095,11.023932 C8.34324071,11.023932 7.00009496,12.3670778 7.00009496,14.023932 L7.00009496,19.023932 L5.00009496,19.023932 C4.44781021,19.023932 4.00009496,18.5762168 4.00009496,18.023932 L4.00009496,9.27393202 C4.00045868,8.98670487 4.12431071,8.71350187 4.34009496,8.52393202 L10.340095,3.27393202 C10.7176012,2.94228615 11.2825887,2.94228615 11.660095,3.27393202 L17.660095,8.52393202 C17.8758792,8.71350187 17.9997312,8.98670487 18.000095,9.27393202 L18.000095,18.023932 Z" id="Shape" fill="#000000" fill-rule="nonzero"></path>
    </g>
</svg>