<?xml version="1.0" encoding="UTF-8"?>
<svg width="22px" height="22px" viewBox="0 0 22 22" version="1.1" xmlns="http://www.w3.org/2000/svg" xmlns:xlink="http://www.w3.org/1999/xlink">
    <!-- Generator: Sketch 55.1 (78136) - https://sketchapp.com -->
    <title>uEA12-education</title>
    <desc>Created with Sketch.</desc>
    <g id="uEA12-education" stroke="none" stroke-width="1" fill="none" fill-rule="evenodd">
        <path d="M21.4869483,8.61 L20.4869483,8.06 L20.4869483,8.06 L11.4869483,3.06 L11.3769483,3.06 C11.3156393,3.03407876 11.252025,3.01399004 11.1869483,3 L10.9969483,3 L10.8169483,3 C10.7486266,3.01399925 10.6816935,3.03407919 10.6169483,3.06 L10.5069483,3.06 L1.50694828,8.06 C1.19363783,8.23756122 1,8.56987304 1,8.93 C1,9.29012696 1.19363783,9.62243878 1.50694828,9.8 L3.99694828,11.18 L3.99694828,15.92 C3.99694828,17.5768542 5.34009403,18.92 6.99694828,18.92 L14.9969483,18.92 C16.6538025,18.92 17.9969483,17.5768542 17.9969483,15.92 L17.9969483,11.18 L19.9969483,10.06 L19.9969483,12.92 C19.9969483,13.4722847 20.4446635,13.92 20.9969483,13.92 C21.549233,13.92 21.9969483,13.4722847 21.9969483,12.92 L21.9969483,9.48 C21.9963266,9.11923592 21.8014352,8.78677412 21.4869483,8.61 Z M15.9969483,15.92 C15.9969483,16.4722847 15.549233,16.92 14.9969483,16.92 L6.99694828,16.92 C6.44466353,16.92 5.99694828,16.4722847 5.99694828,15.92 L5.99694828,12.29 L10.5069483,14.79 L10.6569483,14.85 L10.7469483,14.85 C10.8299535,14.8604577 10.913943,14.8604577 10.9969483,14.85 L10.9969483,14.85 C11.0799535,14.8604577 11.163943,14.8604577 11.2469483,14.85 L11.3369483,14.85 C11.3900366,14.8388077 11.4407862,14.8185078 11.4869483,14.79 L15.9969483,12.29 L15.9969483,15.92 Z M10.9969483,12.78 L4.05694828,8.92 L10.9969483,5.06 L17.9369483,8.92 L10.9969483,12.78 Z" id="Shape" fill="#000000" fill-rule="nonzero"></path>
    </g>
</svg>