<?xml version="1.0" encoding="UTF-8"?>
<svg width="22px" height="22px" viewBox="0 0 22 22" version="1.1" xmlns="http://www.w3.org/2000/svg" xmlns:xlink="http://www.w3.org/1999/xlink">
    <!-- Generator: Sketch 55.1 (78136) - https://sketchapp.com -->
    <title>uEA13-favorite-empty</title>
    <desc>Created with Sketch.</desc>
    <g id="uEA13-favorite-empty" stroke="none" stroke-width="1" fill="none" fill-rule="evenodd">
        <path d="M19.1720147,3.87924347 C16.981789,1.68331243 13.5178126,1.411628 11.0120147,3.23924347 C8.37235801,1.27588112 4.66413507,1.68651068 2.51798824,4.17982831 C0.371841414,6.67314595 0.517666777,10.4011842 2.85201468,12.7192435 L9.06201468,18.9392435 C10.1439701,20.0040589 11.8800593,20.0040589 12.9620147,18.9392435 L19.1720147,12.7192435 C21.6025778,10.2737903 21.6025778,6.32469661 19.1720147,3.87924347 L19.1720147,3.87924347 Z M17.7620147,11.3392435 L11.5520147,17.5492435 C11.4092811,17.6933677 11.2148562,17.7744538 11.0120147,17.7744538 C10.8091732,17.7744538 10.6147483,17.6933677 10.4720147,17.5492435 L4.26201468,11.3092435 C2.63082868,9.64183944 2.63082868,6.97664751 4.26201468,5.30924347 C5.9250318,3.66733513 8.59899755,3.66733513 10.2620147,5.30924347 C10.4497813,5.49855612 10.7053771,5.6050418 10.9720147,5.6050418 C11.2386522,5.6050418 11.4942481,5.49855612 11.6820147,5.30924347 C13.3450318,3.66733513 16.0189976,3.66733513 17.6820147,5.30924347 C19.3356345,6.95481293 19.3711726,9.62017031 17.7620147,11.3092435 L17.7620147,11.3392435 Z" id="Shape" fill="#000000" fill-rule="nonzero"></path>
    </g>
</svg>