<?xml version="1.0" encoding="UTF-8" standalone="no"?>
<!DOCTYPE svg PUBLIC "-//W3C//DTD SVG 1.1//EN" "http://www.w3.org/Graphics/SVG/1.1/DTD/svg11.dtd">
<svg version="1.1" xmlns="http://www.w3.org/2000/svg" xmlns:xlink="http://www.w3.org/1999/xlink" preserveAspectRatio="xMidYMid meet" viewBox="0 0 48 48" width="48" height="48"><defs><path d="M25.01 35.03L25.39 35.39L25.65 35.86L25.75 36.55L25.59 37.21L25.19 37.75L24.6 38.11L24.45 38.16L24.3 38.19L24.15 38.21L24 38.22L23.47 38.14L22.99 37.9L22.61 37.54L22.35 37.06L22.25 36.38L22.41 35.72L22.81 35.18L23.4 34.82L23.55 34.77L23.7 34.74L23.85 34.72L24 34.71L24.53 34.79L25.01 35.03ZM23.9 35.89L23.85 35.9L23.8 35.91L23.6 36.04L23.47 36.22L23.42 36.44L23.45 36.66L23.54 36.82L23.66 36.94L23.82 37.02L24 37.05L24.05 37.05L24.1 37.04L24.15 37.03L24.2 37.01L24.4 36.89L24.53 36.71L24.58 36.49L24.55 36.26L24.46 36.11L24.34 35.99L24.18 35.91L24 35.88L23.95 35.88L23.9 35.89Z" id="dxZYLoT8t"></path><path d="M13.19 6.57L13.3 6.59L13.41 6.6L13.52 6.63L13.63 6.65L13.74 6.68L13.85 6.71L13.96 6.75L14.06 6.79L14.16 6.84L14.26 6.89L14.36 6.94L14.46 7L14.56 7.06L14.65 7.12L14.74 7.19L14.82 7.26L14.91 7.34L14.99 7.42L15.07 7.5L15.15 7.58L15.22 7.67L15.29 7.76L15.36 7.86L15.42 7.95L15.48 8.05L15.53 8.16L15.59 8.27L15.63 8.37L15.68 8.49L24.12 31.69L24.16 31.69L24.19 31.69L24.22 31.69L24.26 31.69L24.29 31.7L24.33 31.7L24.36 31.7L24.39 31.7L24.43 31.71L24.46 31.71L24.49 31.71L24.53 31.71L24.56 31.72L24.59 31.72L24.63 31.73L24.66 31.73L24.69 31.74L24.73 31.74L24.76 31.74L24.79 31.75L24.83 31.76L24.86 31.76L24.89 31.77L24.93 31.77L24.96 31.78L24.99 31.79L25.02 31.79L25.06 31.8L25.09 31.81L25.12 31.81L25.15 31.82L25.19 31.83L25.22 31.84L25.25 31.85L25.28 31.85L25.31 31.86L25.35 31.87L25.38 31.88L25.41 31.89L25.44 31.9L22.11 22.74L18.64 13.22L18.64 13.21L18.63 13.19L18.63 13.18L18.63 13.17L18.62 13.16L18.62 13.15L18.62 13.14L18.62 13.13L18.61 13.12L18.61 13.1L18.61 13.09L18.61 13.08L18.61 13.07L18.61 13.06L18.61 13.05L18.61 13.04L18.61 13.02L18.61 13.01L18.61 13L18.61 12.99L18.61 12.98L18.61 12.97L18.61 12.96L18.61 12.95L18.61 12.93L18.61 12.92L18.62 12.91L18.62 12.9L18.62 12.89L18.62 12.88L18.63 12.87L18.63 12.86L18.63 12.84L18.64 12.83L18.64 12.82L18.64 12.81L18.65 12.8L18.65 12.79L18.66 12.78L18.66 12.77L18.67 12.76L18.67 12.75L18.68 12.74L18.68 12.73L18.69 12.72L18.69 12.71L18.7 12.7L18.71 12.69L18.71 12.68L18.72 12.67L18.73 12.66L18.73 12.65L18.74 12.64L18.75 12.63L18.76 12.63L18.76 12.62L18.77 12.61L18.78 12.6L18.79 12.59L18.8 12.58L18.8 12.58L18.81 12.57L18.82 12.56L18.83 12.56L18.84 12.55L18.85 12.54L18.86 12.54L18.87 12.53L18.88 12.52L18.89 12.52L18.9 12.51L18.91 12.5L18.92 12.5L18.93 12.49L18.94 12.49L18.95 12.48L18.96 12.48L18.97 12.48L18.98 12.47L18.99 12.47L24.11 10.6L24.11 10.6L24.13 10.6L27.05 9.53L27.05 9.53L32.18 7.67L32.19 7.66L32.2 7.66L32.21 7.65L32.22 7.65L32.23 7.65L32.24 7.65L32.25 7.64L32.26 7.64L32.28 7.64L32.29 7.64L32.3 7.64L32.31 7.64L32.32 7.63L32.33 7.63L32.34 7.63L32.36 7.63L32.36 7.63L32.37 7.63L32.39 7.63L32.41 7.63L32.42 7.63L32.42 7.63L32.43 7.63L32.44 7.63L32.45 7.64L32.47 7.64L32.49 7.64L32.5 7.64L32.52 7.65L32.53 7.65L32.55 7.66L32.56 7.66L32.58 7.67L32.59 7.67L32.6 7.68L32.62 7.68L32.63 7.69L32.65 7.7L32.66 7.7L32.67 7.71L32.69 7.72L32.7 7.73L32.71 7.74L32.73 7.74L32.74 7.75L32.75 7.76L32.76 7.77L32.77 7.78L32.78 7.79L32.8 7.81L32.81 7.82L32.82 7.83L32.83 7.84L32.84 7.85L32.85 7.86L32.86 7.88L32.86 7.89L32.87 7.9L32.88 7.92L32.89 7.93L32.9 7.94L32.9 7.96L32.91 7.97L32.92 7.99L32.92 8L32.93 8.02L34 10.95L34 10.97L34.01 10.99L34.02 11.02L34.02 11.04L34.02 11.06L34.03 11.08L34.03 11.11L34.03 11.13L34.03 11.15L34.03 11.18L34.03 11.2L34.03 11.22L34.02 11.24L34.02 11.27L34.01 11.29L34.01 11.31L34 11.33L33.99 11.35L33.99 11.37L33.98 11.39L33.97 11.41L33.96 11.43L33.94 11.45L33.93 11.47L33.92 11.49L33.91 11.51L33.89 11.53L33.88 11.54L33.86 11.56L33.84 11.57L33.83 11.59L33.81 11.6L33.79 11.62L33.77 11.63L33.75 11.64L33.73 11.66L33.71 11.67L33.69 11.68L33.67 11.69L33.65 11.7L33.64 11.7L33.63 11.7L33.62 11.71L33.61 11.71L33.6 11.71L33.59 11.71L33.58 11.72L33.57 11.72L33.56 11.72L33.55 11.72L33.54 11.72L33.53 11.73L33.51 11.73L33.5 11.73L33.49 11.73L33.48 11.73L33.47 11.73L33.46 11.73L33.45 11.73L33.43 11.73L33.41 11.73L33.39 11.73L33.37 11.73L33.36 11.72L33.34 11.72L33.32 11.72L33.3 11.71L33.29 11.71L33.27 11.7L33.25 11.7L33.24 11.69L33.22 11.69L33.2 11.68L33.19 11.67L33.17 11.66L33.16 11.65L33.14 11.64L33.13 11.64L33.11 11.63L33.1 11.61L33.08 11.6L33.07 11.59L33.06 11.58L33.04 11.57L33.03 11.56L33.02 11.54L33.01 11.53L32.99 11.52L32.98 11.5L32.97 11.49L32.96 11.47L32.95 11.46L32.94 11.44L32.93 11.43L32.93 11.41L32.92 11.4L32.91 11.38L32.9 11.36L32.9 11.35L32.03 8.97L28 10.43L28.87 12.81L28.87 12.82L28.87 12.84L28.88 12.85L28.88 12.86L28.88 12.87L28.89 12.9L28.89 12.91L28.89 12.92L28.9 12.93L28.9 12.95L28.9 12.95L28.9 12.96L28.9 12.97L28.9 12.98L28.9 12.99L28.9 13L28.9 13.01L28.9 13.02L28.9 13.03L28.9 13.04L28.9 13.05L28.9 13.06L28.9 13.06L28.9 13.07L28.9 13.08L28.9 13.09L28.9 13.1L28.9 13.11L28.89 13.11L28.89 13.12L28.89 13.13L28.89 13.14L28.89 13.15L28.88 13.16L28.88 13.16L28.88 13.17L28.88 13.18L28.88 13.19L28.87 13.2L28.87 13.2L28.87 13.21L28.86 13.22L28.86 13.23L28.86 13.24L28.85 13.24L28.85 13.25L28.85 13.26L28.84 13.27L28.84 13.28L28.83 13.29L28.83 13.3L28.82 13.31L28.81 13.32L28.81 13.33L28.8 13.34L28.8 13.35L28.79 13.36L28.78 13.37L28.77 13.38L28.77 13.39L28.76 13.4L28.75 13.4L28.74 13.41L28.74 13.42L28.73 13.43L28.72 13.44L28.71 13.44L28.7 13.45L28.7 13.46L28.69 13.47L28.68 13.47L28.67 13.48L28.66 13.49L28.65 13.49L28.64 13.5L28.63 13.51L28.62 13.51L28.61 13.52L28.6 13.52L28.59 13.53L28.58 13.53L28.57 13.54L28.56 13.54L28.55 13.55L28.54 13.55L28.53 13.56L28.52 13.56L26.29 14.37L25.58 14.63L25.57 14.64L25.56 14.64L25.55 14.64L25.54 14.64L25.53 14.65L25.52 14.65L25.51 14.65L25.5 14.65L25.49 14.66L25.48 14.66L25.47 14.66L25.45 14.66L25.44 14.66L25.43 14.66L25.42 14.66L25.41 14.66L25.4 14.66L25.39 14.66L25.37 14.66L25.35 14.66L25.33 14.66L25.31 14.66L25.3 14.66L25.28 14.65L25.26 14.65L25.24 14.65L25.23 14.64L25.21 14.64L25.19 14.63L25.18 14.63L25.16 14.62L25.14 14.61L25.13 14.6L25.11 14.6L25.1 14.59L25.08 14.58L25.07 14.57L25.05 14.56L25.04 14.55L25.02 14.54L25.01 14.53L25 14.51L24.98 14.5L24.97 14.49L24.96 14.48L24.95 14.46L24.94 14.45L24.92 14.44L24.91 14.42L24.9 14.41L24.89 14.39L24.88 14.38L24.87 14.36L24.87 14.35L24.86 14.33L24.85 14.31L24.84 14.3L24.84 14.28L23.97 11.9L19.94 13.37L23.01 21.79L27.59 20.12L27.59 20.12L35.1 17.39L33.7 13.54L33.69 13.52L33.68 13.5L33.68 13.48L33.67 13.45L33.67 13.43L33.66 13.41L33.66 13.38L33.66 13.36L33.66 13.34L33.66 13.32L33.66 13.29L33.67 13.27L33.67 13.25L33.67 13.23L33.68 13.2L33.68 13.18L33.69 13.16L33.7 13.14L33.71 13.12L33.72 13.1L33.73 13.08L33.74 13.06L33.75 13.04L33.76 13.02L33.77 13L33.79 12.98L33.8 12.97L33.82 12.95L33.83 12.93L33.85 12.92L33.87 12.9L33.88 12.89L33.9 12.87L33.92 12.86L33.94 12.85L33.96 12.83L33.98 12.82L34 12.81L34.02 12.8L34.05 12.8L34.06 12.79L34.07 12.79L34.08 12.78L34.09 12.78L34.1 12.78L34.11 12.78L34.12 12.77L34.13 12.77L34.14 12.77L34.16 12.77L34.17 12.77L34.18 12.76L34.19 12.76L34.2 12.76L34.21 12.76L34.23 12.76L34.24 12.76L34.25 12.76L34.26 12.76L34.28 12.76L34.3 12.76L34.32 12.76L34.34 12.77L34.35 12.77L34.37 12.77L34.39 12.78L34.41 12.78L34.42 12.79L34.44 12.79L34.46 12.8L34.47 12.81L34.49 12.81L34.51 12.82L34.52 12.83L34.54 12.84L34.55 12.85L34.57 12.86L34.58 12.87L34.6 12.88L34.61 12.89L34.62 12.9L34.64 12.91L34.65 12.92L34.66 12.93L34.67 12.95L34.69 12.96L34.7 12.97L34.71 12.99L34.72 13L34.73 13.02L34.74 13.03L34.75 13.05L34.76 13.06L34.77 13.08L34.77 13.09L34.78 13.11L34.79 13.13L34.8 13.14L36.4 17.54L36.4 17.54L40.46 28.72L42.38 28.02L42.39 28.02L42.4 28.02L42.41 28.01L42.42 28.01L42.43 28.01L42.44 28L42.45 28L42.45 28L42.46 28L42.47 28L42.48 27.99L42.49 27.99L42.5 27.99L42.51 27.99L42.52 27.99L42.53 27.99L42.54 27.99L42.55 27.99L42.56 27.99L42.57 27.99L42.58 27.99L42.59 27.99L42.6 27.99L42.61 27.99L42.62 27.99L42.63 27.99L42.64 27.99L42.65 27.99L42.66 27.99L42.67 28L42.68 28L42.69 28L42.7 28L42.71 28L42.72 28L42.73 28.01L42.74 28.01L42.75 28.01L42.76 28.02L42.76 28.02L42.78 28.02L42.79 28.03L42.81 28.04L42.82 28.04L42.84 28.05L42.85 28.05L42.86 28.06L42.87 28.06L42.88 28.07L42.89 28.08L42.89 28.08L42.9 28.09L42.91 28.09L42.92 28.1L42.93 28.11L42.94 28.11L42.95 28.12L42.96 28.13L42.97 28.14L42.97 28.14L42.98 28.15L42.99 28.16L43 28.17L43.01 28.18L43.01 28.18L43.02 28.19L43.03 28.2L43.04 28.21L43.04 28.22L43.05 28.23L43.06 28.24L43.06 28.25L43.07 28.26L43.07 28.27L43.08 28.28L43.09 28.29L43.09 28.3L43.1 28.31L43.1 28.32L43.11 28.33L43.11 28.34L43.12 28.35L43.12 28.36L43.13 28.37L43.93 30.57L43.93 30.58L43.93 30.58L43.94 30.6L43.94 30.61L43.94 30.62L43.94 30.63L43.95 30.64L43.95 30.65L43.95 30.66L43.95 30.67L43.95 30.68L43.96 30.69L43.96 30.71L43.96 30.71L43.96 30.73L43.96 30.74L43.96 30.75L43.96 30.76L43.96 30.76L43.96 30.78L43.96 30.79L43.96 30.81L43.96 30.81L43.96 30.83L43.96 30.84L43.96 30.85L43.95 30.86L43.95 30.86L43.95 30.88L43.95 30.9L43.94 30.91L43.94 30.92L43.94 30.94L43.93 30.95L43.93 30.96L43.93 30.97L43.92 30.98L43.92 30.99L43.91 31L43.91 31.01L43.9 31.02L43.9 31.03L43.89 31.04L43.88 31.07L43.87 31.08L43.87 31.09L43.86 31.09L43.85 31.11L43.85 31.11L43.84 31.12L43.84 31.13L43.82 31.16L43.81 31.16L43.8 31.17L43.8 31.18L43.79 31.18L43.79 31.18L43.79 31.19L43.78 31.19L43.78 31.2L43.77 31.2L43.76 31.21L43.74 31.23L43.73 31.23L43.72 31.24L43.72 31.25L43.7 31.26L43.69 31.26L43.68 31.27L43.67 31.27L43.67 31.28L43.65 31.29L43.63 31.29L43.63 31.3L43.61 31.31L43.61 31.31L43.59 31.31L43.58 31.32L28.9 36.66L28.9 36.71L28.9 36.76L28.9 36.81L28.89 36.86L28.89 36.91L28.89 36.96L28.88 37.01L28.88 37.06L28.87 37.11L28.87 37.16L28.86 37.21L28.85 37.26L28.84 37.31L28.84 37.36L28.83 37.41L28.82 37.46L28.81 37.51L28.8 37.56L28.79 37.61L28.78 37.66L28.77 37.71L28.75 37.75L28.74 37.8L28.73 37.85L28.71 37.9L28.7 37.95L28.69 38L28.67 38.05L28.65 38.1L28.64 38.14L28.62 38.19L28.6 38.24L28.59 38.29L28.57 38.34L28.55 38.39L28.53 38.43L28.51 38.48L28.49 38.53L28.47 38.58L28.44 38.62L28.4 38.71L28.36 38.8L28.31 38.88L28.27 38.97L28.22 39.05L28.17 39.13L28.12 39.21L28.06 39.29L28.01 39.37L27.95 39.45L27.9 39.53L27.84 39.6L27.78 39.68L27.72 39.75L27.66 39.82L27.59 39.89L27.53 39.96L27.46 40.03L27.39 40.09L27.32 40.16L27.25 40.22L27.18 40.28L27.11 40.34L27.03 40.4L26.96 40.46L26.88 40.52L26.8 40.57L26.72 40.62L26.64 40.68L26.56 40.73L26.48 40.78L26.4 40.82L26.31 40.87L26.23 40.91L26.14 40.95L26.05 41L25.97 41.03L25.88 41.07L25.79 41.11L25.69 41.14L25.65 41.16L25.61 41.17L25.57 41.18L25.53 41.2L25.49 41.21L25.45 41.22L25.41 41.24L25.37 41.25L25.33 41.26L25.29 41.27L25.25 41.28L25.2 41.29L25.16 41.3L25.12 41.31L25.08 41.32L25.04 41.33L25 41.34L24.96 41.35L24.91 41.36L24.87 41.36L24.83 41.37L24.79 41.38L24.75 41.38L24.71 41.39L24.66 41.4L24.62 41.4L24.58 41.41L24.54 41.41L24.49 41.41L24.45 41.42L24.41 41.42L24.37 41.43L24.33 41.43L24.28 41.43L24.24 41.43L24.2 41.43L24.16 41.44L24.11 41.44L24.07 41.44L24.03 41.44L23.88 41.43L23.72 41.43L23.57 41.42L23.42 41.4L23.27 41.38L23.13 41.35L22.98 41.32L22.84 41.29L22.69 41.25L22.55 41.21L22.41 41.16L22.27 41.11L22.13 41.05L22 40.99L21.87 40.93L21.74 40.86L21.61 40.79L21.48 40.71L21.36 40.64L21.24 40.55L21.12 40.47L21 40.38L20.89 40.28L20.77 40.19L20.67 40.09L20.56 39.98L20.46 39.88L20.36 39.77L20.26 39.66L20.17 39.54L20.08 39.42L20 39.3L19.92 39.18L19.84 39.05L19.76 38.92L19.69 38.79L19.62 38.65L19.56 38.51L19.5 38.37L19.45 38.23L19.4 38.08L19.35 37.94L19.31 37.79L19.28 37.64L19.24 37.49L19.22 37.35L19.2 37.2L19.18 37.05L19.17 36.9L19.16 36.76L19.15 36.61L19.16 36.46L19.16 36.32L19.17 36.17L19.19 36.03L19.2 35.88L19.23 35.74L19.25 35.6L19.28 35.45L19.32 35.31L19.36 35.18L19.4 35.04L19.45 34.9L19.5 34.77L19.56 34.63L19.62 34.5L19.68 34.37L19.75 34.24L19.82 34.12L19.89 34L19.97 33.87L20.05 33.75L20.13 33.64L20.22 33.52L20.31 33.41L20.41 33.3L20.51 33.19L20.61 33.09L20.72 32.99L20.82 32.89L12.58 10.23L5.62 12.74L5.62 12.75L5.61 12.75L5.59 12.75L5.58 12.76L5.58 12.76L5.57 12.76L5.56 12.76L5.54 12.77L5.53 12.77L5.52 12.77L5.51 12.77L5.49 12.77L5.47 12.78L5.45 12.78L5.44 12.78L5.41 12.78L5.39 12.78L5.39 12.78L5.38 12.78L5.36 12.78L5.35 12.77L5.33 12.77L5.33 12.77L5.32 12.77L5.3 12.76L5.29 12.76L5.28 12.76L5.27 12.76L5.25 12.75L5.25 12.75L5.24 12.75L5.23 12.75L5.21 12.74L5.19 12.73L5.19 12.73L5.18 12.73L5.17 12.72L5.16 12.72L5.15 12.71L5.15 12.71L5.13 12.7L5.12 12.69L5.11 12.69L5.1 12.68L5.09 12.68L5.09 12.67L5.08 12.67L5.07 12.66L5.05 12.64L5.04 12.64L5.03 12.63L5.03 12.62L5.02 12.62L5.02 12.61L5.01 12.61L5.01 12.6L5.01 12.6L5 12.6L5 12.59L4.98 12.58L4.97 12.57L4.97 12.56L4.96 12.55L4.96 12.55L4.95 12.54L4.94 12.53L4.93 12.51L4.93 12.5L4.92 12.49L4.91 12.48L4.91 12.47L4.91 12.46L4.9 12.45L4.9 12.44L4.89 12.44L4.88 12.41L4.88 12.4L4.87 12.39L4.07 10.2L4.07 10.19L4.07 10.17L4.06 10.15L4.06 10.14L4.06 10.14L4.05 10.13L4.05 10.12L4.05 10.11L4.05 10.1L4.05 10.08L4.04 10.08L4.04 10.06L4.04 10.03L4.04 10.02L4.04 9.96L4.04 9.94L4.04 9.92L4.05 9.91L4.05 9.9L4.05 9.88L4.05 9.88L4.05 9.86L4.06 9.85L4.06 9.83L4.07 9.81L4.07 9.81L4.07 9.8L4.08 9.79L4.08 9.78L4.09 9.77L4.09 9.75L4.1 9.74L4.1 9.73L4.11 9.71L4.12 9.7L4.12 9.69L4.13 9.68L4.14 9.66L4.15 9.66L4.15 9.65L4.16 9.64L4.18 9.61L4.18 9.61L4.19 9.61L4.19 9.6L4.2 9.6L4.2 9.59L4.22 9.58L4.22 9.57L4.23 9.56L4.24 9.55L4.25 9.54L4.26 9.54L4.27 9.53L4.27 9.53L4.28 9.52L4.3 9.51L4.31 9.5L4.32 9.5L4.33 9.49L4.35 9.48L4.36 9.47L4.37 9.47L4.37 9.47L4.38 9.46L4.4 9.46L4.41 9.45L4.41 9.45L4.43 9.45L11.93 6.74L11.93 6.74L12.04 6.7L12.16 6.67L12.27 6.64L12.39 6.61L12.5 6.59L12.62 6.58L12.73 6.57L12.85 6.56L12.96 6.56L13.08 6.57L13.19 6.57ZM23.39 32.91L23.07 32.98L22.76 33.08L21.51 33.85L20.67 35L20.33 36.38L20.55 37.83L21.1 38.83L21.91 39.6L22.9 40.09L24.03 40.27L24.35 40.25L24.67 40.21L24.98 40.14L25.29 40.04L25.95 39.73L26.53 39.29L27.01 38.76L27.38 38.13L27.63 37.44L27.73 36.72L27.69 36L27.51 35.3L26.96 34.3L26.15 33.53L25.15 33.03L24.03 32.86L23.71 32.87L23.39 32.91ZM28.42 34.45L28.46 34.53L28.5 34.62L28.54 34.71L28.57 34.8L28.61 34.9L28.63 34.96L28.66 35.04L28.68 35.13L28.71 35.23L28.74 35.34L28.77 35.46L42.63 30.42L42.23 29.32L28.37 34.36L28.42 34.45ZM32.33 22.34L32.36 22.43L32.37 22.52L32.36 22.61L32.35 22.7L32.31 22.78L32.27 22.86L32.21 22.93L32.15 23L32.07 23.05L31.98 23.09L29.05 24.15L29.03 24.16L29.01 24.17L28.99 24.17L28.97 24.18L28.95 24.18L28.93 24.18L28.91 24.19L28.89 24.19L28.87 24.19L28.85 24.19L28.78 24.18L28.71 24.17L28.64 24.15L28.58 24.12L28.52 24.08L28.46 24.04L28.41 23.99L28.37 23.93L28.33 23.87L28.3 23.8L27.44 21.42L23.41 22.89L26.97 32.68L27.05 32.74L27.13 32.81L27.2 32.87L27.28 32.94L27.35 33L27.42 33.07L27.49 33.14L27.56 33.21L27.63 33.29L27.7 33.36L39.37 29.12L35.5 18.49L31.47 19.96L32.33 22.34ZM12.54 7.78L12.33 7.84L12.33 7.84L5.37 10.35L5.77 11.45L12.73 8.94L12.73 8.94L12.74 8.93L12.77 8.92L12.78 8.92L12.79 8.92L12.79 8.92L12.81 8.92L12.82 8.91L12.83 8.91L12.84 8.91L12.85 8.91L12.86 8.91L12.87 8.91L12.88 8.9L12.89 8.9L12.9 8.9L12.91 8.9L12.92 8.9L12.94 8.9L12.96 8.9L12.98 8.9L13 8.91L13.02 8.91L13.04 8.91L13.06 8.92L13.08 8.92L13.11 8.93L13.13 8.94L13.15 8.94L13.17 8.95L13.18 8.96L13.2 8.97L13.23 8.98L13.24 8.99L13.24 8.99L13.26 9L13.27 9.01L13.28 9.02L13.29 9.03L13.31 9.04L13.32 9.05L13.33 9.06L13.33 9.06L13.33 9.06L13.33 9.07L13.35 9.08L13.36 9.09L13.36 9.09L13.37 9.1L13.37 9.11L13.38 9.12L13.39 9.13L13.39 9.13L13.4 9.14L13.4 9.15L13.42 9.16L13.42 9.17L13.43 9.18L13.43 9.18L13.43 9.19L13.44 9.21L13.45 9.23L13.45 9.23L13.46 9.24L13.46 9.25L13.48 9.29L21.82 32.22L21.86 32.2L21.9 32.18L21.94 32.16L21.98 32.14L22.03 32.12L22.07 32.1L22.11 32.08L22.15 32.07L22.19 32.05L22.23 32.03L22.28 32.02L22.32 32L22.36 31.98L22.4 31.97L22.45 31.95L22.49 31.94L22.53 31.92L22.58 31.91L22.62 31.9L22.66 31.88L22.7 31.87L22.75 31.86L22.79 31.85L22.84 31.84L22.88 31.83L22.92 31.82L14.58 8.89L14.49 8.68L14.38 8.5L14.25 8.33L14.1 8.18L13.94 8.05L13.76 7.94L13.57 7.86L13.38 7.79L13.17 7.75L12.96 7.73L12.75 7.74L12.54 7.78ZM29.2 22.86L31.04 22.19L30.37 20.36L28.54 21.02L29.2 22.86ZM25.74 13.33L27.57 12.66L26.9 10.83L25.07 11.5L25.74 13.33Z" id="a7UfvismX"></path></defs><g><g><g><g><use xlink:href="#dxZYLoT8t" opacity="1" fill="#000000" fill-opacity="1"></use><g><use xlink:href="#dxZYLoT8t" opacity="1" fill-opacity="0" stroke="#000000" stroke-width="1" stroke-opacity="0"></use></g></g><g><use xlink:href="#a7UfvismX" opacity="1" fill="#000000" fill-opacity="1"></use><g><use xlink:href="#a7UfvismX" opacity="1" fill-opacity="0" stroke="#000000" stroke-width="1" stroke-opacity="0"></use></g></g></g></g></g></svg>