<?xml version="1.0" encoding="UTF-8"?>
<svg width="22px" height="22px" viewBox="0 0 22 22" version="1.1" xmlns="http://www.w3.org/2000/svg" xmlns:xlink="http://www.w3.org/1999/xlink">
    <!-- Generator: Sketch 55.1 (78136) - https://sketchapp.com -->
    <title>uEA15-file</title>
    <desc>Created with Sketch.</desc>
    <g id="uEA15-file" stroke="none" stroke-width="1" fill="none" fill-rule="evenodd">
        <path d="M8,9 L9,9 C9.55228475,9 10,8.55228475 10,8 C10,7.44771525 9.55228475,7 9,7 L8,7 C7.44771525,7 7,7.44771525 7,8 C7,8.55228475 7.44771525,9 8,9 Z M8,11 C7.44771525,11 7,11.4477153 7,12 C7,12.5522847 7.44771525,13 8,13 L14,13 C14.5522847,13 15,12.5522847 15,12 C15,11.4477153 14.5522847,11 14,11 L8,11 Z M19,7.94 C18.9895837,7.8481349 18.9694716,7.75763058 18.94,7.67 L18.94,7.58 C18.8919189,7.47717975 18.8277838,7.38266483 18.75,7.3 L18.75,7.3 L12.75,1.3 L12.75,1.3 C12.6673352,1.22221621 12.5728202,1.15808108 12.47,1.11 C12.4401498,1.10576018 12.4098502,1.10576018 12.38,1.11 C12.2784148,1.05174135 12.1662233,1.0143442 12.05,1 L6,1 C4.34314575,1 3,2.34314575 3,4 L3,18 C3,19.6568542 4.34314575,21 6,21 L16,21 C17.6568542,21 19,19.6568542 19,18 L19,8 C19,8 19,8 19,7.94 Z M13,4.41 L15.59,7 L14,7 C13.4477153,7 13,6.55228475 13,6 L13,4.41 Z M17,18 C17,18.5522847 16.5522847,19 16,19 L6,19 C5.44771525,19 5,18.5522847 5,18 L5,4 C5,3.44771525 5.44771525,3 6,3 L11,3 L11,6 C11,7.65685425 12.3431458,9 14,9 L17,9 L17,18 Z M14,15 L8,15 C7.44771525,15 7,15.4477153 7,16 C7,16.5522847 7.44771525,17 8,17 L14,17 C14.5522847,17 15,16.5522847 15,16 C15,15.4477153 14.5522847,15 14,15 Z" id="Shape" fill="#000000" fill-rule="nonzero"></path>
    </g>
</svg>