<?xml version="1.0" encoding="UTF-8"?>
<svg width="50px" height="50px" viewBox="0 0 50 50" version="1.1" xmlns="http://www.w3.org/2000/svg" xmlns:xlink="http://www.w3.org/1999/xlink">
    <!-- Generator: Sketch 46.1 (44463) - http://www.bohemiancoding.com/sketch -->
    <title>Icon_Maker_YC</title>
    <desc>Created with Sketch.</desc>
    <defs></defs>
    <g id="Page-1" stroke="none" stroke-width="1" fill="none" fill-rule="evenodd">
        <g id="Icon_Maker_YC">
            <g id="Group" transform="translate(7.000000, 0.000000)">
                <g id="Group-2">
                    <g id="maps-and-flags" fill-rule="nonzero" fill="#000000">
                        <path d="M18.1818182,0 C8.18719453,0 0.0560117302,8.0958912 0.0560117302,18.0470381 C0.0560117302,30.3967224 16.2768328,48.5267808 16.9674487,49.2925531 C17.616129,50.0119003 18.7486804,50.010635 19.3961877,49.2925531 C20.0868035,48.5267808 36.3076246,30.3967224 36.3076246,18.0470381 C36.3074291,8.0958912 28.1763441,0 18.1818182,0 Z M18.1818182,27.127007 C13.1532747,27.127007 9.06236559,23.0537563 9.06236559,18.0470381 C9.06236559,13.0403199 13.1533724,8.96716646 18.1818182,8.96716646 C23.2102639,8.96716646 27.301173,13.0404172 27.301173,18.0471354 C27.301173,23.0538536 23.2102639,27.127007 18.1818182,27.127007 Z" id="Shape"></path>
                    </g>
                    <g id="Group-3" transform="translate(1.818182, 0.909091)">
                        <g id="Group">
                            <circle id="Oval" fill="#000000" cx="16.5973948" cy="16.5973948" r="16.5973948"></circle>
                            <path d="M6.30592169,22.3167874 C6.14280892,22.3874696 5.98445599,22.4404804 5.83085814,22.4758215 C5.67726028,22.5111626 5.52434436,22.5288329 5.37210578,22.5288329 C5.07306571,22.5288329 4.7862634,22.4683462 4.51169024,22.3473709 C4.23711709,22.2263956 3.98565534,22.0503723 3.75729747,21.8192959 C3.48544286,21.5392857 3.28291422,21.2001521 3.14970546,20.8018851 C3.0164967,20.4036181 2.94989332,19.9326371 2.94989332,19.3889279 C2.94989332,18.4890891 3.17213113,17.7571316 3.61661342,17.1930332 C4.0610957,16.6289349 4.62858369,16.34689 5.31909439,16.34689 C5.4903628,16.34689 5.6582305,16.3611622 5.82270254,16.3897069 C5.98717458,16.4182516 6.14824602,16.4597088 6.30592169,16.5140798 L6.30592169,17.9413093 C6.20261694,17.8842199 6.09931374,17.8407238 5.99600899,17.8108198 C5.89270423,17.7809158 5.79347879,17.765964 5.69832968,17.765964 C5.36666705,17.765964 5.11520531,17.9052874 4.94393691,18.1839383 C4.7726685,18.4625893 4.68703559,18.872404 4.68703559,19.4133947 C4.68703559,19.9244813 4.77198888,20.3193442 4.94189801,20.5979952 C5.11180714,20.8766462 5.35171523,21.0159696 5.66162949,21.0159696 C5.77580842,21.0159696 5.88658752,20.9996585 5.99397009,20.967036 C6.10135266,20.9344134 6.20533549,20.8868396 6.30592169,20.824313 L6.30592169,22.3167874 Z M6.63784765,22.4105767 L7.94274325,16.4569906 L9.81445288,16.4569906 L11.1152707,22.4105767 L9.49638457,22.4105767 L9.36997281,21.53385 L8.38722331,21.53385 L8.26081155,22.4105767 L6.63784765,22.4105767 Z M8.55033526,20.3308994 L9.21093866,20.3308994 L8.87655916,18.1248103 L8.55033526,20.3308994 Z M13.3066729,17.725186 L13.3066729,19.0463928 C13.5622162,19.0409557 13.7497931,18.9865856 13.8694091,18.8832808 C13.9890251,18.7799761 14.0488322,18.6168658 14.0488322,18.393945 C14.0488322,18.1737427 13.9917436,18.0072343 13.8775647,17.8944146 C13.7633858,17.781595 13.5948384,17.725186 13.3719176,17.725186 L13.3066729,17.725186 Z M11.642931,22.4105767 L11.642931,16.4569906 L13.4126956,16.4569906 C14.1684514,16.4569906 14.7277839,16.6248583 15.0907098,16.9605987 C15.4536357,17.2963392 15.635096,17.8135348 15.635096,18.5122011 C15.635096,19.1048442 15.4577135,19.5717475 15.1029432,19.912925 C14.748173,20.2541025 14.2622401,20.4246888 13.6451302,20.4246888 L13.3066729,20.4246888 L13.3066729,22.4105767 L11.642931,22.4105767 Z M16.3666462,22.4105767 L16.3666462,16.4569906 L18.0303881,16.4569906 L18.0303881,22.4105767 L16.3666462,22.4105767 Z M21.3758073,22.4105767 L19.7079876,22.4105767 L19.7079876,17.9657761 L18.7211603,17.9657761 L18.7211603,16.4569906 L22.3626346,16.4569906 L22.3626346,17.9657761 L21.3758073,17.9657761 L21.3758073,22.4105767 Z M22.3357143,22.4105767 L23.6406099,16.4569906 L25.5123195,16.4569906 L26.8131373,22.4105767 L25.1942512,22.4105767 L25.0678394,21.53385 L24.0850899,21.53385 L23.9586782,22.4105767 L22.3357143,22.4105767 Z M24.2482019,20.3308994 L24.9088053,20.3308994 L24.5744258,18.1248103 L24.2482019,20.3308994 Z M27.3407976,22.4105767 L27.3407976,16.4569906 L29.0126951,16.4569906 L29.0126951,20.9344136 L30.2319569,20.9344136 L30.2319569,22.4105767 L27.3407976,22.4105767 Z" id="Capital" fill="#FFFFFF"></path>
                            <path d="M4.55027513,9.22852688 L6.30372859,9.22852688 L6.75228645,11.0553807 L7.20492211,9.22852688 L8.95837557,9.22852688 L7.5800796,12.792523 L7.5800796,15.1821131 L5.92449331,15.1821131 L5.92449331,12.792523 L4.55027513,9.22852688 Z M10.6645197,12.1686198 C10.6645197,12.7884483 10.7052973,13.2118555 10.7868537,13.4388541 C10.8684101,13.6658527 11.0111316,13.7793503 11.2150225,13.7793503 C11.416195,13.7793503 11.5568776,13.6672119 11.6370747,13.4429319 C11.7172718,13.2186518 11.7573698,12.7938854 11.7573698,12.1686198 C11.7573698,11.5433542 11.7172718,11.1179081 11.6370747,10.8922688 C11.5568776,10.6666294 11.416195,10.5538115 11.2150225,10.5538115 C11.0111316,10.5538115 10.8684101,10.6679887 10.7868537,10.8963466 C10.7052973,11.1247044 10.6645197,11.5487913 10.6645197,12.1686198 Z M8.98446663,12.2093978 C8.98446663,11.2252841 9.17951938,10.4627433 9.56963075,9.92175267 C9.95974211,9.380762 10.5082006,9.11027072 11.2150225,9.11027072 C11.919126,9.11027072 12.4648659,9.38008237 12.8522587,9.91971377 C13.2396516,10.4593452 13.4333451,11.2225655 13.4333451,12.2093978 C13.4333451,13.1935115 13.2403312,13.9546929 12.8542976,14.4929651 C12.4682641,15.0312372 11.9218445,15.3003692 11.2150225,15.3003692 C10.505482,15.3003692 9.95634394,15.0305576 9.56759185,14.4909262 C9.17883976,13.9512948 8.98446663,13.1907929 8.98446663,12.2093978 Z M14.1526619,13.0535021 L14.1526619,9.22852688 L15.812326,9.22852688 L15.812326,13.2125363 C15.812326,13.3865232 15.8435888,13.5149726 15.9061154,13.5978882 C15.9686419,13.6808039 16.0651489,13.7222611 16.1956391,13.7222611 C16.3288478,13.7222611 16.426714,13.6808039 16.4892406,13.5978882 C16.5517671,13.5149726 16.58303,13.3865232 16.58303,13.2125363 L16.58303,9.22852688 L18.2508496,9.22852688 L18.2508496,13.0535021 C18.2508496,13.8310063 18.0857004,14.3998535 17.7553971,14.7600609 C17.4250937,15.1202682 16.9051796,15.3003692 16.1956391,15.3003692 C15.4888171,15.3003692 14.9716215,15.1202682 14.6440367,14.7600609 C14.3164518,14.3998535 14.1526619,13.8310063 14.1526619,13.0535021 Z M19.161823,15.1821131 L19.161823,9.22852688 L20.8174093,9.22852688 L21.734914,12.3602763 L21.734914,9.22852688 L23.2436996,9.22852688 L23.2436996,15.1821131 L21.6085023,15.1821131 L20.682842,12.2012422 L20.682842,15.1821131 L19.161823,15.1821131 Z M28.3181055,11.7078285 L28.3181055,11.7322953 C28.3289797,11.9606532 28.3344167,12.1305598 28.3344167,12.2420202 C28.3344167,13.2805048 28.1631508,14.0498418 27.820614,14.5500543 C27.4780772,15.0502667 26.9534057,15.3003692 26.2465837,15.3003692 C25.5370432,15.3003692 24.9879051,15.0305576 24.599153,14.4909262 C24.2104009,13.9512948 24.0160278,13.1907929 24.0160278,12.2093978 C24.0160278,11.2144099 24.2117602,10.4491507 24.6032308,9.91359707 C24.9947015,9.37804349 25.5533543,9.11027072 26.2792061,9.11027072 C26.7957299,9.11027072 27.2137001,9.22784608 27.5331292,9.46300031 C27.8525584,9.69815455 28.0938257,10.0644731 28.2569385,10.5619671 L26.8133977,11.0553807 C26.7481526,10.8487712 26.6720345,10.6999331 26.585041,10.6088618 C26.4980475,10.5177905 26.3879481,10.4722555 26.2547393,10.4722555 C26.0481298,10.4722555 25.9033694,10.5898309 25.8204537,10.8249851 C25.7375381,11.0601393 25.6960809,11.4957798 25.6960809,12.1319196 C25.6960809,12.7653408 25.7368585,13.1982628 25.8184148,13.4306985 C25.8999712,13.6631342 26.0426928,13.7793503 26.2465837,13.7793503 C26.3988223,13.7793503 26.5129995,13.7147858 26.5891188,13.5856548 C26.6652381,13.4565239 26.7032972,13.2614712 26.7032972,13.0004907 L26.7032972,12.9189348 L26.2098835,12.9189348 L26.2098835,11.7078285 L28.3181055,11.7078285 Z" id="Young" fill="#F77F00"></path>
                            <path d="M30.7875006,16.6324844 L30.9752301,17.1230374 L31.1569242,16.6324844 L31.4476769,16.6324844 L31.4476769,17.4410197 L31.2478766,17.4410197 L31.2478766,16.8353726 L31.0207765,17.4410197 L30.929754,17.4410197 L30.6967588,16.8353726 L30.6967588,17.4410197 L30.4968883,17.4410197 L30.4968883,16.6324844 L30.7875006,16.6324844 Z M30.3333706,16.6324844 L30.3333706,16.7990198 L30.0850764,16.7990198 L30.0850764,17.4410197 L29.8640117,17.4410197 L29.8640117,16.7990198 L29.6156473,16.7990198 L29.6156473,16.6324844 L30.3333706,16.6324844 L30.3333706,16.6324844 Z" id="Fill-16" fill="#FFFFFE"></path>
                        </g>
                    </g>
                </g>
            </g>
        </g>
    </g>
</svg>