<?xml version="1.0" encoding="UTF-8" standalone="no"?>
<!DOCTYPE svg PUBLIC "-//W3C//DTD SVG 1.1//EN" "http://www.w3.org/Graphics/SVG/1.1/DTD/svg11.dtd">
<svg version="1.1" xmlns="http://www.w3.org/2000/svg" xmlns:xlink="http://www.w3.org/1999/xlink" preserveAspectRatio="xMidYMid meet" viewBox="0 0 48 48" width="48" height="48"><defs><path d="M38.33 11.56L38.5 11.59L38.66 11.63L38.82 11.68L38.97 11.74L39.11 11.81L39.26 11.89L39.39 11.98L39.52 12.08L39.64 12.19L39.76 12.3L39.86 12.43L39.96 12.55L40.05 12.69L40.13 12.83L40.2 12.98L40.26 13.13L40.31 13.29L40.36 13.45L40.38 13.61L40.4 13.78L40.41 13.96L40.41 30.77L41.88 30.77L41.94 30.78L41.99 30.78L42.04 30.79L42.08 30.8L42.13 30.82L42.18 30.83L42.22 30.86L42.26 30.88L42.3 30.91L42.34 30.94L42.38 30.97L42.41 31L42.44 31.04L42.47 31.08L42.5 31.12L42.52 31.16L42.54 31.2L42.56 31.25L42.58 31.29L42.59 31.34L42.6 31.39L42.6 31.44L42.6 31.49L42.6 32.91L42.6 33.16L42.57 33.41L42.53 33.65L42.47 33.89L42.39 34.12L42.3 34.35L42.2 34.56L42.08 34.77L41.95 34.97L41.8 35.16L41.64 35.34L41.48 35.5L41.3 35.66L41.11 35.81L40.91 35.94L40.7 36.06L40.49 36.16L40.26 36.25L40.03 36.33L39.79 36.39L39.55 36.43L39.3 36.46L39.05 36.46L8.95 36.46L8.7 36.46L8.45 36.43L8.21 36.39L7.97 36.33L7.74 36.25L7.51 36.16L7.3 36.06L7.09 35.94L6.89 35.81L6.7 35.66L6.52 35.5L6.36 35.34L6.2 35.16L6.05 34.97L5.92 34.77L5.8 34.56L5.7 34.35L5.61 34.12L5.53 33.89L5.47 33.65L5.43 33.41L5.4 33.16L5.4 32.91L5.4 31.49L5.4 31.44L5.4 31.39L5.41 31.34L5.42 31.29L5.44 31.25L5.46 31.2L5.48 31.16L5.5 31.12L5.53 31.08L5.56 31.04L5.59 31L5.62 30.97L5.66 30.94L5.7 30.91L5.74 30.88L5.78 30.86L5.82 30.83L5.87 30.82L5.92 30.8L5.96 30.79L6.01 30.78L6.06 30.78L6.12 30.77L7.59 30.77L7.59 13.96L7.6 13.78L7.62 13.61L7.64 13.45L7.69 13.29L7.74 13.13L7.8 12.98L7.87 12.83L7.95 12.69L8.04 12.55L8.14 12.43L8.24 12.3L8.36 12.19L8.48 12.08L8.61 11.98L8.74 11.89L8.89 11.81L9.03 11.74L9.19 11.68L9.34 11.63L9.5 11.59L9.67 11.56L9.84 11.54L10.01 11.54L37.99 11.54L38.16 11.54L38.33 11.56ZM6.84 32.91L6.85 33.16L6.89 33.39L6.96 33.62L7.05 33.84L7.17 34.04L7.3 34.23L7.46 34.4L7.63 34.56L7.82 34.69L8.02 34.81L8.24 34.9L8.47 34.97L8.7 35.01L8.95 35.02L39.05 35.02L39.21 35.01L39.38 34.98L39.54 34.93L39.7 34.85L39.85 34.75L40.01 34.63L40.16 34.49L40.31 34.33L40.46 34.15L40.6 33.94L40.75 33.72L40.89 33.47L41.03 33.2L41.16 32.91L41.16 32.91L41.16 32.21L28.56 32.21L28.48 32.44L28.39 32.65L28.27 32.85L28.14 33.04L28 33.21L27.83 33.37L27.66 33.52L27.47 33.65L27.27 33.77L27.05 33.86L26.83 33.94L26.6 33.99L26.36 34.03L26.12 34.04L21.88 34.04L21.64 34.03L21.4 33.99L21.17 33.94L20.95 33.86L20.73 33.77L20.53 33.65L20.34 33.52L20.17 33.37L20 33.21L19.86 33.04L19.73 32.85L19.61 32.65L19.52 32.44L19.44 32.21L6.84 32.21L6.84 32.91ZM9.96 13.14L9.92 13.15L9.87 13.16L9.83 13.17L9.78 13.19L9.73 13.22L9.69 13.25L9.65 13.28L9.6 13.32L9.56 13.36L9.52 13.41L9.47 13.46L9.43 13.52L9.39 13.58L9.35 13.65L9.31 13.72L9.27 13.79L9.23 13.87L9.19 13.96L9.19 30.77L20.04 30.77L20.1 30.77L20.16 30.78L20.22 30.79L20.28 30.81L20.34 30.83L20.39 30.86L20.44 30.89L20.49 30.92L20.54 30.96L20.58 31L20.62 31.04L20.65 31.09L20.68 31.14L20.71 31.2L20.73 31.25L20.75 31.31L20.77 31.37L20.77 31.43L20.78 31.49L20.78 31.59L20.79 31.68L20.81 31.77L20.84 31.86L20.87 31.94L20.91 32.02L20.96 32.1L21.01 32.17L21.07 32.24L21.13 32.3L21.2 32.36L21.27 32.41L21.35 32.46L21.43 32.5L21.51 32.53L21.6 32.56L21.69 32.58L21.78 32.59L21.88 32.6L26.12 32.6L26.22 32.59L26.31 32.58L26.4 32.56L26.49 32.53L26.57 32.5L26.65 32.46L26.73 32.41L26.8 32.36L26.87 32.3L26.93 32.24L26.99 32.17L27.04 32.1L27.09 32.02L27.13 31.94L27.16 31.86L27.19 31.77L27.21 31.68L27.22 31.59L27.22 31.49L27.23 31.44L27.23 31.39L27.24 31.33L27.26 31.28L27.27 31.23L27.29 31.19L27.32 31.14L27.34 31.1L27.37 31.06L27.41 31.02L27.44 30.98L27.48 30.94L27.52 30.91L27.56 30.88L27.61 30.86L27.66 30.83L27.7 30.81L27.76 30.8L27.81 30.79L27.82 30.78L27.82 30.78L27.83 30.78L27.84 30.78L27.85 30.78L27.87 30.78L27.87 30.78L27.88 30.78L27.89 30.78L27.9 30.77L27.92 30.77L27.92 30.77L27.93 30.77L27.94 30.77L27.96 30.77L27.96 30.77L38.81 30.77L38.81 13.96L38.8 13.89L38.8 13.82L38.78 13.75L38.76 13.68L38.74 13.62L38.71 13.56L38.67 13.51L38.63 13.45L38.59 13.4L38.54 13.35L38.49 13.31L38.44 13.27L38.38 13.24L38.32 13.21L38.26 13.18L38.19 13.16L38.13 13.15L38.06 13.14L37.99 13.14L10.01 13.14L9.96 13.14Z" id="c1tEHoO38Y"></path><path d="M11.87 15C11.43 15 11.07 15.36 11.07 15.8C11.07 17.01 11.07 26.69 11.07 27.9C11.07 28.34 11.43 28.7 11.87 28.7C12.32 28.7 12.68 28.34 12.68 27.9C12.68 27.14 12.68 23.38 12.68 16.6L35.32 16.6C35.32 23.38 35.32 27.14 35.32 27.9C35.32 28.34 35.68 28.7 36.13 28.7C36.57 28.7 36.93 28.34 36.93 27.9C36.93 26.69 36.93 17.01 36.93 15.8C36.93 15.36 36.57 15 36.13 15C31.28 15 14.3 15 11.87 15Z" id="c2YzhkMvL"></path><path d="M24.05 19.66C23.55 20.16 19.52 24.19 19.02 24.69C18.71 25 18.71 25.51 19.02 25.82C19.17 25.98 19.38 26.06 19.58 26.06C19.79 26.06 19.99 25.98 20.15 25.82C20.65 25.32 24.68 21.29 25.19 20.79C25.5 20.48 25.5 19.97 25.19 19.66C24.87 19.34 24.37 19.34 24.05 19.66Z" id="a1sIFrDn5C"></path><path d="M27.04 22.57C26.84 22.77 25.23 24.38 25.03 24.58C24.72 24.89 24.72 25.4 25.03 25.71C25.19 25.87 25.39 25.95 25.6 25.95C25.8 25.95 26.01 25.87 26.17 25.71C26.37 25.51 27.97 23.91 28.17 23.71C28.48 23.39 28.48 22.89 28.17 22.57C27.86 22.26 27.35 22.26 27.04 22.57Z" id="bcoRFql8V"></path></defs><g><g><g><g><use xlink:href="#c1tEHoO38Y" opacity="1" fill="#000000" fill-opacity="1"></use><g><use xlink:href="#c1tEHoO38Y" opacity="1" fill-opacity="0" stroke="#000000" stroke-width="1" stroke-opacity="0"></use></g></g><g><g><use xlink:href="#c2YzhkMvL" opacity="1" fill="#000000" fill-opacity="1"></use><g><use xlink:href="#c2YzhkMvL" opacity="1" fill-opacity="0" stroke="#000000" stroke-width="1" stroke-opacity="0"></use></g></g><g><use xlink:href="#a1sIFrDn5C" opacity="1" fill="#000000" fill-opacity="1"></use><g><use xlink:href="#a1sIFrDn5C" opacity="1" fill-opacity="0" stroke="#000000" stroke-width="1" stroke-opacity="0"></use></g></g><g><use xlink:href="#bcoRFql8V" opacity="1" fill="#000000" fill-opacity="1"></use><g><use xlink:href="#bcoRFql8V" opacity="1" fill-opacity="0" stroke="#000000" stroke-width="1" stroke-opacity="0"></use></g></g></g></g></g></g></svg>