<?xml version="1.0" encoding="UTF-8"?>
<svg width="22px" height="22px" viewBox="0 0 22 22" version="1.1" xmlns="http://www.w3.org/2000/svg" xmlns:xlink="http://www.w3.org/1999/xlink">
    <!-- Generator: Sketch 55.1 (78136) - https://sketchapp.com -->
    <title>uEA1D-location</title>
    <desc>Created with Sketch.</desc>
    <g id="uEA1D-location" stroke="none" stroke-width="1" fill="none" fill-rule="evenodd">
        <path d="M11,1 C6.581722,1 3,4.581722 3,9 C3,14.4 10.05,20.5 10.35,20.76 C10.724224,21.0800877 11.275776,21.0800877 11.65,20.76 C12,20.5 19,14.4 19,9 C19,4.581722 15.418278,1 11,1 Z M11,18.65 C8.87,16.65 5,12.34 5,9 C5,5.6862915 7.6862915,3 11,3 C14.3137085,3 17,5.6862915 17,9 C17,12.34 13.13,16.66 11,18.65 Z M11,5 C8.790861,5 7,6.790861 7,9 C7,11.209139 8.790861,13 11,13 C13.209139,13 15,11.209139 15,9 C15,7.93913404 14.5785726,6.92171839 13.8284271,6.17157288 C13.0782816,5.42142736 12.060866,5 11,5 Z M11,11 C9.8954305,11 9,10.1045695 9,9 C9,7.8954305 9.8954305,7 11,7 C12.1045695,7 13,7.8954305 13,9 C13,10.1045695 12.1045695,11 11,11 Z" id="Shape" fill="#000000" fill-rule="nonzero"></path>
    </g>
</svg>