<?xml version="1.0" encoding="UTF-8" standalone="no"?>
<!DOCTYPE svg PUBLIC "-//W3C//DTD SVG 1.1//EN" "http://www.w3.org/Graphics/SVG/1.1/DTD/svg11.dtd">
<svg version="1.1" xmlns="http://www.w3.org/2000/svg" xmlns:xlink="http://www.w3.org/1999/xlink" preserveAspectRatio="xMidYMid meet" viewBox="0 0 48 48" width="48" height="48"><defs><path d="M25.79 6.69L25.97 6.71L26.14 6.75L26.31 6.8L26.48 6.86L26.64 6.93L26.8 7.01L26.95 7.09L27.09 7.19L27.23 7.29L27.36 7.4L27.49 7.52L27.6 7.64L27.72 7.78L27.82 7.91L27.91 8.06L28 8.21L28.08 8.37L28.15 8.53L28.2 8.69L28.25 8.86L28.29 9.04L28.32 9.21L28.34 9.4L28.34 9.58L28.34 9.74L28.32 9.9L28.3 10.06L28.27 10.21L28.24 10.36L28.19 10.51L28.14 10.65L28.08 10.79L28.01 10.93L27.93 11.06L27.85 11.19L27.77 11.32L27.67 11.44L27.57 11.55L27.47 11.66L27.36 11.76L27.24 11.86L27.12 11.95L27 12.03L26.87 12.11L26.73 12.19L26.6 12.25L26.45 12.31L26.31 12.36L26.16 12.4L26.01 12.44L26.01 13.08L35 13.08L38.5 16.58L35 20.08L33.01 20.08L33.01 21.75L33 21.86L32.99 21.98L32.98 22.09L32.95 22.2L32.92 22.3L32.88 22.41L32.84 22.51L32.79 22.61L32.74 22.7L32.68 22.79L32.62 22.88L32.55 22.96L32.47 23.04L32.39 23.12L32.31 23.19L32.22 23.25L32.13 23.31L32.04 23.36L31.94 23.41L31.84 23.46L31.73 23.49L31.63 23.52L31.52 23.55L31.41 23.57L31.29 23.58L31.18 23.58L26.01 23.58L26.01 35.83L28.93 35.83L28.93 38.16L30.68 38.16L30.68 41.66L20.18 41.66L20.18 38.16L21.93 38.16L21.93 35.83L24.84 35.83L24.84 23.58L16.43 23.58L12.93 20.08L16.43 16.58L18.43 16.58L18.43 14.91L18.43 14.8L18.44 14.68L18.46 14.57L18.48 14.46L18.51 14.35L18.55 14.25L18.59 14.15L18.64 14.05L18.69 13.96L18.75 13.87L18.82 13.78L18.89 13.7L18.96 13.62L19.04 13.54L19.12 13.47L19.21 13.41L19.3 13.35L19.4 13.29L19.49 13.25L19.6 13.2L19.7 13.17L19.81 13.14L19.92 13.11L20.03 13.09L20.14 13.08L20.26 13.08L24.84 13.08L24.84 12.44L24.69 12.4L24.54 12.36L24.4 12.31L24.25 12.25L24.12 12.19L23.98 12.11L23.85 12.03L23.73 11.95L23.61 11.86L23.49 11.76L23.38 11.66L23.28 11.55L23.18 11.43L23.08 11.32L23 11.19L22.92 11.06L22.84 10.93L22.77 10.79L22.71 10.65L22.66 10.51L22.62 10.36L22.58 10.21L22.55 10.06L22.53 9.9L22.51 9.74L22.51 9.58L22.51 9.4L22.53 9.21L22.56 9.04L22.6 8.86L22.65 8.69L22.71 8.53L22.77 8.37L22.85 8.21L22.94 8.06L23.03 7.91L23.13 7.78L23.25 7.64L23.36 7.52L23.49 7.4L23.62 7.29L23.76 7.19L23.9 7.09L24.06 7.01L24.21 6.93L24.37 6.86L24.54 6.8L24.71 6.75L24.88 6.71L25.06 6.69L25.24 6.67L25.43 6.66L25.61 6.67L25.79 6.69ZM21.34 40.5L29.51 40.5L29.51 39.33L21.34 39.33L21.34 40.5ZM23.09 38.16L27.76 38.16L27.76 37L23.09 37L23.09 38.16ZM14.58 20.08L16.92 22.41L31.18 22.41L31.27 22.4L31.36 22.37L31.44 22.32L31.53 22.25L31.61 22.15L31.69 22.04L31.77 21.9L31.84 21.75L31.84 18.41L31.83 18.28L31.79 18.15L31.73 18.04L31.65 17.94L31.55 17.86L31.44 17.8L31.31 17.76L31.18 17.75L16.92 17.75L14.58 20.08ZM20.12 14.26L20 14.3L19.89 14.36L19.79 14.44L19.71 14.54L19.64 14.65L19.61 14.78L19.59 14.91L19.59 16.58L31.18 16.58L31.55 16.62L31.89 16.72L32.2 16.89L32.47 17.12L32.7 17.39L32.86 17.7L32.97 18.04L33.01 18.41L33.01 18.91L34.52 18.91L36.85 16.58L34.52 14.25L20.26 14.25L20.12 14.26ZM24.19 8.34L23.81 8.9L23.68 9.58L23.81 10.26L24.19 10.82L24.74 11.19L25.43 11.33L26.11 11.19L26.66 10.82L27.04 10.26L27.18 9.58L27.04 8.9L26.66 8.34L26.11 7.97L25.43 7.83L24.74 7.97L24.19 8.34Z" id="cIAPozTcL"></path></defs><g><g><g><use xlink:href="#cIAPozTcL" opacity="1" fill="#000000" fill-opacity="1"></use><g><use xlink:href="#cIAPozTcL" opacity="1" fill-opacity="0" stroke="#111111" stroke-width="0.5" stroke-opacity="1"></use></g></g></g></g></svg>