<?xml version="1.0" encoding="UTF-8"?>
<svg width="22px" height="22px" viewBox="0 0 22 22" version="1.1" xmlns="http://www.w3.org/2000/svg" xmlns:xlink="http://www.w3.org/1999/xlink">
    <!-- Generator: Sketch 55.1 (78136) - https://sketchapp.com -->
    <title>uEA10-delete</title>
    <desc>Created with Sketch.</desc>
    <g id="uEA10-delete" stroke="none" stroke-width="1" fill="none" fill-rule="evenodd">
        <path d="M9,17 C9.55228475,17 10,16.5522847 10,16 L10,10 C10,9.44771525 9.55228475,9 9,9 C8.44771525,9 8,9.44771525 8,10 L8,16 C8,16.5522847 8.44771525,17 9,17 Z M19,5 L15,5 L15,4 C15,2.34314575 13.6568542,1 12,1 L10,1 C8.34314575,1 7,2.34314575 7,4 L7,5 L3,5 C2.44771525,5 2,5.44771525 2,6 C2,6.55228475 2.44771525,7 3,7 L4,7 L4,18 C4,19.6568542 5.34314575,21 7,21 L15,21 C16.6568542,21 18,19.6568542 18,18 L18,7 L19,7 C19.5522847,7 20,6.55228475 20,6 C20,5.44771525 19.5522847,5 19,5 Z M9,4 C9,3.44771525 9.44771525,3 10,3 L12,3 C12.5522847,3 13,3.44771525 13,4 L13,5 L9,5 L9,4 Z M16,18 C16,18.5522847 15.5522847,19 15,19 L7,19 C6.44771525,19 6,18.5522847 6,18 L6,7 L16,7 L16,18 Z M13,17 C13.5522847,17 14,16.5522847 14,16 L14,10 C14,9.44771525 13.5522847,9 13,9 C12.4477153,9 12,9.44771525 12,10 L12,16 C12,16.5522847 12.4477153,17 13,17 Z" id="Shape" fill="#000000" fill-rule="nonzero"></path>
    </g>
</svg>