<?xml version="1.0" encoding="UTF-8"?>
<svg width="37px" height="37px" viewBox="0 0 37 37" version="1.1" xmlns="http://www.w3.org/2000/svg" xmlns:xlink="http://www.w3.org/1999/xlink">
    <!-- Generator: Sketch 55.1 (78136) - https://sketchapp.com -->
    <title>uEA27-network-insta</title>
    <desc>Created with Sketch.</desc>
    <g id="uEA27-network-insta" stroke="none" stroke-width="1" fill="none" fill-rule="evenodd">
        <g id="Group-2" fill-rule="nonzero">
            <path d="M18.5,9.59232693e-14 C8.28337432,9.59232693e-14 0,8.28337432 0,18.5 C0,28.7166257 8.28337432,37 18.5,37 C28.7166257,37 37,28.7166257 37,18.5 C37,8.28109221 28.7166257,9.59232693e-14 18.5,9.59232693e-14 Z" id="Path" fill="#111111"></path>
            <path d="M24.674375,10.938125 L24.674375,10.938125 C24.1131836,10.938125 23.6072508,11.2761785 23.3924921,11.7946517 C23.1777335,12.313125 23.2964421,12.9099134 23.6932643,13.3067357 C24.0900866,13.7035579 24.686875,13.8222665 25.2053483,13.6075079 C25.7238215,13.3927492 26.061875,12.8868164 26.061875,12.325625 C26.061875,11.5593299 25.4406701,10.938125 24.674375,10.938125 L24.674375,10.938125 Z M29.993125,13.73625 C29.9706385,12.7769073 29.7909621,11.8277472 29.46125,10.9265625 C29.1672525,10.1554971 28.709671,9.45729073 28.12,8.88 C27.5474509,8.28733619 26.8476165,7.83264156 26.0734375,7.5503125 C25.1746344,7.21056093 24.2244175,7.02677412 23.26375,7.006875 C22.038125,6.9375 21.645,6.9375 18.5,6.9375 C15.355,6.9375 14.961875,6.9375 13.73625,7.006875 C12.7755825,7.02677412 11.8253656,7.21056093 10.9265625,7.5503125 C10.1538135,7.83549991 9.45457976,8.28980434 8.88,8.88 C8.28733619,9.45254912 7.83264156,10.1523835 7.5503125,10.9265625 C7.21056093,11.8253656 7.02677412,12.7755825 7.006875,13.73625 C6.9375,14.961875 6.9375,15.355 6.9375,18.5 C6.9375,21.645 6.9375,22.038125 7.006875,23.26375 C7.02677412,24.2244175 7.21056093,25.1746344 7.5503125,26.0734375 C7.83264156,26.8476165 8.28733619,27.5474509 8.88,28.12 C9.45457976,28.7101957 10.1538135,29.1645001 10.9265625,29.4496875 C11.8253656,29.7894391 12.7755825,29.9732259 13.73625,29.993125 C14.961875,30.0625 15.355,30.0625 18.5,30.0625 C21.645,30.0625 22.038125,30.0625 23.26375,29.993125 C24.2244175,29.9732259 25.1746344,29.7894391 26.0734375,29.4496875 C26.8476165,29.1673584 27.5474509,28.7126638 28.12,28.12 C28.7122799,27.5448586 29.1702644,26.8460374 29.46125,26.0734375 C29.7909621,25.1722528 29.9706385,24.2230927 29.993125,23.26375 C29.993125,22.038125 30.0625,21.645 30.0625,18.5 C30.0625,15.355 30.0625,14.961875 29.993125,13.73625 Z M27.911875,23.125 C27.9034567,23.8589541 27.7705274,24.5861558 27.51875,25.275625 C27.334136,25.7788176 27.0376106,26.23349 26.6515625,26.6053125 C26.2765297,26.9874605 25.8227929,27.2833758 25.321875,27.4725 C24.6324058,27.7242774 23.9052041,27.8572067 23.17125,27.865625 C22.015,27.9234375 21.5871875,27.935 18.54625,27.935 C15.5053125,27.935 15.0775,27.935 13.92125,27.865625 C13.1591549,27.8798943 12.4003128,27.7625476 11.678125,27.51875 C11.1991851,27.3199647 10.7662553,27.0247852 10.40625,26.6515625 C10.0224774,26.2801154 9.72966229,25.8250648 9.550625,25.321875 C9.26833372,24.62252 9.11176286,23.8788084 9.088125,23.125 C9.088125,21.96875 9.01875,21.5409375 9.01875,18.5 C9.01875,15.4590625 9.01875,15.03125 9.088125,13.875 C9.09330778,13.1246579 9.23028603,12.3810617 9.4928125,11.678125 C9.6963669,11.1900848 10.0088064,10.7550425 10.40625,10.40625 C10.7575343,10.0086945 11.1916765,9.69295469 11.678125,9.48125 C12.3829184,9.22692556 13.1257469,9.09399837 13.875,9.088125 C15.03125,9.088125 15.4590625,9.01875 18.5,9.01875 C21.5409375,9.01875 21.96875,9.01875 23.125,9.088125 C23.8589541,9.09654328 24.5861558,9.22947263 25.275625,9.48125 C25.8010593,9.67625443 26.2726519,9.9932915 26.6515625,10.40625 C27.0304679,10.761425 27.326537,11.1956597 27.51875,11.678125 C27.7757301,12.3822046 27.90874,13.1254955 27.911875,13.875 C27.9696875,15.03125 27.98125,15.4590625 27.98125,18.5 C27.98125,21.5409375 27.9696875,21.96875 27.911875,23.125 Z M18.5,12.5683922 C15.2256012,12.5748204 12.5757518,15.2332911 12.5799999,18.5076933 C12.5842582,21.7820955 15.2410048,24.4336735 18.5154092,24.4315513 C21.7898135,24.4294265 24.4431364,21.774405 24.4431364,18.5 C24.4462154,16.9239007 23.8206878,15.411633 22.7051305,14.2982461 C21.5895732,13.1848592 20.0760903,12.5622778 18.5,12.5683922 Z M18.5,22.3503125 C16.3735311,22.3503125 14.6496875,20.6264689 14.6496875,18.5 C14.6496875,16.3735311 16.3735311,14.6496875 18.5,14.6496875 C20.6264689,14.6496875 22.3503125,16.3735311 22.3503125,18.5 C22.3503125,19.5211664 21.9446557,20.5005084 21.2225821,21.2225821 C20.5005084,21.9446557 19.5211664,22.3503125 18.5,22.3503125 Z" id="Shape" fill="#FFFFFF"></path>
        </g>
    </g>
</svg>