<?xml version="1.0" encoding="utf-8"?>
<!-- Generator: Adobe Illustrator 22.1.0, SVG Export Plug-In . SVG Version: 6.00 Build 0)  -->
<svg version="1.1" id="Layer_1" xmlns="http://www.w3.org/2000/svg" xmlns:xlink="http://www.w3.org/1999/xlink" x="0px" y="0px"
	 viewBox="0 0 35 35.1" style="enable-background:new 0 0 35 35.1;" xml:space="preserve">
<g id="Page-1">
	<g id="Google_x2B_">
		<g id="Combined-Shape">
			<path id="path-1_1_" d="M11.1,15.4v4.4c0,0,4.3,0,6,0c-0.9,2.9-2.4,4.4-6,4.4s-6.5-3-6.5-6.6c0-3.7,2.8-6.6,6.5-6.6
				c1.9,0,3.2,0.7,4.3,1.6c0.9-0.9,0.8-1,3.2-3.2c-2-1.8-4.6-2.9-7.5-2.9C5,6.5,0,11.5,0,17.6s5,11.1,11.1,11.1
				c9.2,0,11.4-8,10.7-13.3H11.1z M31.1,15.6v-3.9h-2.8v3.9h-4v2.8h4v4h2.8v-4H35v-2.8H31.1z"/>
		</g>
	</g>
</g>
</svg>
