<?xml version="1.0" encoding="UTF-8"?>
<svg width="22px" height="22px" viewBox="0 0 22 22" version="1.1" xmlns="http://www.w3.org/2000/svg" xmlns:xlink="http://www.w3.org/1999/xlink">
    <!-- Generator: Sketch 55.1 (78136) - https://sketchapp.com -->
    <title>uEA26-network-insta-inverted</title>
    <desc>Created with Sketch.</desc>
    <g id="uEA26-network-insta-inverted" stroke="none" stroke-width="1" fill="none" fill-rule="evenodd">
        <path d="M11,8.52 C9.63033382,8.52 8.52,9.63033382 8.52,11 C8.52,12.3696662 9.63033382,13.48 11,13.48 C12.3696662,13.48 13.48,12.3696662 13.48,11 C13.48,10.3422631 13.218715,9.7114654 12.7536248,9.24637518 C12.2885346,8.78128496 11.6577369,8.52 11,8.52 Z M20.93,6.07 C20.924739,5.29775802 20.7825362,4.53257136 20.51,3.81 C20.1039994,2.74049342 19.2595066,1.89600057 18.19,1.49 C17.4674286,1.21746379 16.702242,1.07526096 15.93,1.07 C14.64,1 14.26,1 11,1 C7.74,1 7.36,1 6.07,1.07 C5.29775802,1.07526096 4.53257136,1.21746379 3.81,1.49 C2.74049342,1.89600057 1.89600057,2.74049342 1.49,3.81 C1.21746379,4.53257136 1.07526096,5.29775802 1.07,6.07 C1,7.36 1,7.74 1,11 C1,14.26 1,14.64 1.07,15.93 C1.08076394,16.7049594 1.2227743,17.4724916 1.49,18.2 C1.68982804,18.7263213 2.00012867,19.2037069 2.4,19.6 C2.79819349,20.0023074 3.27938932,20.3128664 3.81,20.51 C4.53257136,20.7825362 5.29775802,20.924739 6.07,20.93 C7.36,21 7.74,21 11,21 C14.26,21 14.64,21 15.93,20.93 C16.702242,20.924739 17.4674286,20.7825362 18.19,20.51 C18.7206107,20.3128664 19.2018065,20.0023074 19.6,19.6 C19.9998713,19.2037069 20.310172,18.7263213 20.51,18.2 C20.7822727,17.4738839 20.9244471,16.7054651 20.93,15.93 C21,14.64 21,14.26 21,11 C21,7.74 21,7.36 20.93,6.07 Z M18.39,14.07 C18.3579088,14.6871042 18.2262079,15.2949544 18,15.87 C17.6077693,16.8391678 16.8391678,17.6077693 15.87,18 C15.289512,18.2135942 14.6782695,18.3317903 14.06,18.35 C13.27,18.35 13.06,18.35 11,18.35 C8.94,18.35 8.73,18.35 7.94,18.35 C7.3217305,18.3317903 6.71048797,18.2135942 6.13,18 C5.63410314,17.8157186 5.18627684,17.5217258 4.82,17.14 C4.45766642,16.7812513 4.17784403,16.3478679 4,15.87 C3.78555717,15.2901156 3.67060682,14.678174 3.66,14.06 C3.66,13.27 3.66,13.06 3.66,11 C3.66,8.94 3.66,8.73 3.66,7.94 C3.67060682,7.32182597 3.78555717,6.70988439 4,6.13 C4.18428136,5.63410314 4.47827419,5.18627684 4.86,4.82 C5.22033323,4.45962344 5.65326359,4.1800936 6.13,4 C6.71048797,3.7864058 7.3217305,3.66820973 7.94,3.65 L7.94,3.65 C8.73,3.65 8.94,3.65 11,3.65 C13.06,3.65 13.27,3.65 14.06,3.65 C14.6782695,3.66820973 15.289512,3.7864058 15.87,4 C16.3658969,4.18428136 16.8137232,4.47827419 17.18,4.86 C17.5423336,5.21874866 17.822156,5.65213211 18,6.13 C18.2135942,6.71048797 18.3317903,7.3217305 18.35,7.94 C18.35,8.73 18.35,8.94 18.35,11 C18.35,13.06 18.42,13.27 18.39,14.06 L18.39,14.07 Z M16.79,6.63 C16.5490376,5.97627445 16.0337256,5.46096236 15.38,5.22 C14.9364725,5.06626029 14.4693455,4.99179076 14,5 C13.22,5 13,5 11,5 C9,5 8.78,5 8,5 C7.52826705,5.00461075 7.06106884,5.0926336 6.62,5.26 C5.97656837,5.48991697 5.46298821,5.98528507 5.21,6.62 C5.06477659,7.06536667 4.9938288,7.53159502 5,8 C5,8.78 5,9 5,11 C5,13 5,13.22 5,14 C5.00991409,14.4711965 5.09776856,14.937501 5.26,15.38 C5.50096236,16.0337256 6.01627445,16.5490376 6.67,16.79 C7.09666628,16.9469133 7.54565284,17.0346851 8,17.05 L8,17.05 C8.78,17.05 9,17.05 11,17.05 C13,17.05 13.22,17.05 14,17.05 C14.471733,17.0453892 14.9389312,16.9573664 15.38,16.79 C16.0337256,16.5490376 16.5490376,16.0337256 16.79,15.38 C16.9573664,14.9389312 17.0453892,14.471733 17.0500007,14 C17.0500007,13.22 17.0500007,13 17.0500007,11 C17.0500007,9 17.0500007,8.78 17.0500007,8 C17.0502897,7.52779812 16.9621015,7.05972238 16.79,6.62 L16.79,6.63 Z M11,14.8200132 C9.98779017,14.8200132 9.01718321,14.4172215 8.30238146,13.7005436 C7.5875797,12.9838657 7.18734328,12.0122063 7.18998686,11 L7.18998686,11 C7.18998686,9.45404535 8.12180413,8.06050627 9.55046837,7.46983357 C10.9791326,6.87916087 12.6229644,7.20782089 13.7146857,8.30240767 C14.8064071,9.39699445 15.1307571,11.0416821 14.5363416,12.4687931 C13.9419261,13.8959042 12.5459493,14.824047 11,14.8200132 Z M15,7.93 C14.542175,7.88153885 14.1947365,7.49538271 14.1947365,7.035 C14.1947365,6.57461729 14.542175,6.18846115 15,6.14 L15,6.14 C15.457825,6.18846115 15.8052635,6.57461729 15.8052635,7.035 C15.8052635,7.49538271 15.457825,7.88153885 15,7.93 Z" id="Shape" fill="#000000" fill-rule="nonzero"></path>
    </g>
</svg>