<?xml version="1.0" encoding="UTF-8"?>
<svg width="37px" height="37px" viewBox="0 0 37 37" version="1.1" xmlns="http://www.w3.org/2000/svg" xmlns:xlink="http://www.w3.org/1999/xlink">
    <!-- Generator: Sketch 55.1 (78136) - https://sketchapp.com -->
    <title>uEA2B-network-rss</title>
    <desc>Created with Sketch.</desc>
    <g id="uEA2B-network-rss" stroke="none" stroke-width="1" fill="none" fill-rule="evenodd">
        <g id="rss" fill="#111111" fill-rule="nonzero">
            <path d="M18.5,0 C8.28272461,0 2.38031816e-13,8.28272461 2.38031816e-13,18.5 C2.38031816e-13,28.7172754 8.28272461,37 18.5,37 C28.7172754,37 37,28.7172754 37,18.5 C37,8.28272461 28.7172754,0 18.5,0 Z M11.3960114,27.75 C10.1372507,27.75 9.11680912,26.7146504 9.11680912,25.4375 C9.11680912,24.1603496 10.1372507,23.125 11.3960114,23.125 C12.6547721,23.125 13.6752137,24.1603496 13.6752137,25.4375 C13.6752137,26.7146504 12.6547721,27.75 11.3960114,27.75 Z M17.6638177,27.75 C17.6638177,22.9683281 13.8296296,19.078125 9.11680912,19.078125 L9.11680912,15.609375 C15.7148148,15.609375 21.0826211,21.0556016 21.0826211,27.75 L17.6638177,27.75 Z M24.5014245,27.75 C24.5014245,23.5806348 22.9010684,19.6607305 19.9952991,16.7125098 C17.0896011,13.7642891 13.2262108,12.140625 9.11680912,12.140625 L9.11680912,8.671875 C14.1393875,8.671875 18.8612536,10.6563613 22.412963,14.2597422 C25.9643162,17.863123 27.9202279,22.6539727 27.9202279,27.75 L24.5014245,27.75 Z" id="Shape"></path>
        </g>
    </g>
</svg>