<?xml version="1.0" encoding="UTF-8"?>
<svg width="22px" height="22px" viewBox="0 0 22 22" version="1.1" xmlns="http://www.w3.org/2000/svg" xmlns:xlink="http://www.w3.org/1999/xlink">
    <!-- Generator: Sketch 55.1 (78136) - https://sketchapp.com -->
    <title>uEA2E-network-whatsapp-inverted</title>
    <desc>Created with Sketch.</desc>
    <g id="uEA2E-network-whatsapp-inverted" stroke="none" stroke-width="1" fill="none" fill-rule="evenodd">
        <path d="M21,5.55 C20.9887636,5.11857208 20.9553863,4.68800545 20.9,4.26 C20.8253315,3.88512408 20.7008967,3.52190884 20.53,3.18 C20.3512632,2.80910514 20.1112274,2.47102651 19.82,2.18 C19.5260897,1.89220434 19.1886058,1.6525908 18.82,1.47 C18.4776364,1.30244429 18.1144243,1.18137357 17.74,1.11 C17.3160655,1.04649947 16.8885528,1.0097601 16.46,1 L5.55,1 C5.11857208,1.0112364 4.68800545,1.04461366 4.26,1.1 C3.88512408,1.17466846 3.52190884,1.29910331 3.18,1.47 C2.80910514,1.64873677 2.47102651,1.8887726 2.18,2.18 C1.89220434,2.47391035 1.6525908,2.8113942 1.47,3.18 C1.30244429,3.52236357 1.18137357,3.88557572 1.11,4.26 C1.04649947,4.68393446 1.0097601,5.11144723 1,5.54 C1,5.73 1,6 1,6.08 L1,15.92 C1,16.03 1,16.27 1,16.45 C1.0112364,16.8814279 1.04461366,17.3119946 1.1,17.74 C1.17466846,18.1148759 1.29910331,18.4780912 1.47,18.82 C1.64873677,19.1908949 1.8887726,19.5289735 2.18,19.82 C2.47391035,20.1077957 2.8113942,20.3474092 3.18,20.53 C3.52236357,20.6975557 3.88557572,20.8186264 4.26,20.89 C4.68393446,20.9535005 5.11144723,20.9902399 5.54,21 L16.45,21 C16.8814279,20.9887636 17.3119946,20.9553863 17.74,20.9 C18.1148759,20.8253315 18.4780912,20.7008967 18.82,20.53 C19.1908949,20.3512632 19.5289735,20.1112274 19.82,19.82 C20.1077957,19.5260897 20.3474092,19.1886058 20.53,18.82 C20.6975557,18.4776364 20.8186264,18.1144243 20.89,17.74 C20.9535005,17.3160655 20.9902399,16.8885528 21,16.46 C21,16.27 21,16.03 21,15.92 L21,6.08 C21,6 21,5.73 21,5.55 Z M11.23,18 L11.23,18 C10.029061,17.9940757 8.84913303,17.6844736 7.8,17.1 L4,18.1 L5,14.38 C4.35511351,13.296452 4.00998575,12.0608946 4,10.8 C4.01111629,6.8437467 7.22047644,3.64195297 11.176745,3.64017428 C15.1330135,3.63839707 18.3452501,6.83730492 18.3599727,10.7935466 C18.3745945,14.7497883 15.1861729,17.9724338 11.23,18 L11.23,18 Z M11.23,4.87 C9.07170897,4.89469828 7.09300907,6.07676223 6.04829643,7.96551993 C5.00358379,9.85427763 5.05387649,12.1586212 6.18,14 L6.32,14.23 L5.72,16.42 L8,15.8 L8.22,15.93 C9.12957354,16.4657575 10.1643973,16.7520588 11.22,16.76 L11.22,16.76 C14.5337085,16.76 17.22,14.0737085 17.22,10.76 C17.22,7.4462915 14.5337085,4.76 11.22,4.76 L11.23,4.87 Z M14.73,13.39 C14.4651287,13.8317998 14.0254472,14.140667 13.52,14.24 C13.1465391,14.308261 12.7620551,14.2842307 12.4,14.17 C12.0593487,14.0634991 11.7254123,13.9366033 11.4,13.79 C10.1637416,13.169664 9.10943944,12.2393974 8.34,11.09 C7.9218834,10.5574762 7.66818808,9.91454967 7.61,9.24 C7.59795822,8.67331689 7.82693351,8.12813763 8.24,7.74 C8.3616663,7.60205614 8.53607959,7.52211672 8.72,7.52 L9,7.52 C9.11,7.52 9.26,7.52 9.4,7.83 C9.54,8.14 9.91,9.07 9.96,9.16 C10.0098485,9.25732154 10.0098485,9.37267846 9.96,9.47 C9.91579342,9.57866593 9.85507861,9.67985729 9.78,9.77 C9.69,9.88 9.59,10.01 9.51,10.09 C9.43,10.17 9.33,10.27 9.43,10.45 C9.70208682,10.9091896 10.038876,11.3268082 10.43,11.69 C10.8559251,12.0663571 11.3429031,12.3673366 11.87,12.58 C12.05,12.67 12.16,12.66 12.26,12.58 C12.36,12.5 12.71,12.06 12.83,11.88 C12.95,11.7 13.07,11.73 13.23,11.79 C13.39,11.85 14.28,12.28 14.46,12.37 C14.64,12.46 14.75,12.5 14.8,12.58 C14.8433691,12.8417225 14.8192766,13.1101816 14.73,13.36 L14.73,13.39 Z" id="Shape" fill="#000000" fill-rule="nonzero"></path>
    </g>
</svg>