<?xml version="1.0" encoding="UTF-8"?>
<svg width="22px" height="22px" viewBox="0 0 22 22" version="1.1" xmlns="http://www.w3.org/2000/svg" xmlns:xlink="http://www.w3.org/1999/xlink">
    <!-- Generator: Sketch 55.1 (78136) - https://sketchapp.com -->
    <title>uEA2A-network-rss-inverted</title>
    <desc>Created with Sketch.</desc>
    <g id="uEA2A-network-rss-inverted" stroke="none" stroke-width="1" fill="none" fill-rule="evenodd">
        <path d="M4,11 C3.44771525,11 3,11.4477153 3,12 C3,12.5522847 3.44771525,13 4,13 C6.76142375,13 9,15.2385763 9,18 C9,18.5522847 9.44771525,19 10,19 C10.5522847,19 11,18.5522847 11,18 C11,14.1340068 7.86599325,11 4,11 Z M4,7 C3.44771525,7 3,7.44771525 3,8 C3,8.55228475 3.44771525,9 4,9 C8.97056275,9 13,13.0294373 13,18 C13,18.5522847 13.4477153,19 14,19 C14.5522847,19 15,18.5522847 15,18 C14.992251,15.0839861 13.8352823,12.2885773 11.78,10.22 C9.71142272,8.16471772 6.91601392,7.00774903 4,7 Z M14.61,7.39 C17.4124621,10.211214 18.9898158,14.0234514 19,18 C19,18.5522847 18.5522847,19 18,19 C17.4477153,19 17,18.5522847 17,18 C17,10.8202983 11.1797017,5 4,5 C3.64273441,5 3.31260739,4.80940108 3.1339746,4.5 C2.9553418,4.19059892 2.9553418,3.80940108 3.1339746,3.5 C3.31260739,3.19059892 3.64273441,3 4,3 C7.97654857,3.01018423 11.788786,4.58753789 14.61,7.39 Z M3.43896676,18.5610332 C2.85367775,17.9757442 2.85367775,17.0268032 3.43896676,16.4415142 C3.71923076,16.1589425 4.10073802,16 4.49872628,16 C4.89671454,16 5.27822179,16.1589425 5.55848579,16.4415142 C5.84105746,16.7217782 6,17.1032855 6,17.5012737 C6,17.899262 5.84105746,18.2807692 5.55848579,18.5610332 C4.97319677,19.1463223 4.02425578,19.1463223 3.43896676,18.5610332 Z" id="Shape" fill="#000000" fill-rule="nonzero"></path>
    </g>
</svg>