<?xml version="1.0" encoding="UTF-8"?>
<svg width="37px" height="37px" viewBox="0 0 37 37" version="1.1" xmlns="http://www.w3.org/2000/svg" xmlns:xlink="http://www.w3.org/1999/xlink">
    <!-- Generator: Sketch 55.1 (78136) - https://sketchapp.com -->
    <title>uEA29-network-linkedin</title>
    <desc>Created with Sketch.</desc>
    <g id="uEA29-network-linkedin" stroke="none" stroke-width="1" fill="none" fill-rule="evenodd">
        <g id="linkedin-logo-button" fill-rule="nonzero">
            <path d="M18.5,0 C8.29914203,0 0,8.29914203 0,18.5 C0,28.7001128 8.29914203,37 18.5,37 C28.7001128,37 37,28.7001128 37,18.5 C37,8.29914203 28.7016032,0 18.5,0 Z" id="Path" fill="#111111"></path>
            <g id="Group-3" transform="translate(10.000000, 9.000000)" fill="#FFFFFF">
                <path d="M13.1872821,5.25283714 C11.1946081,5.25283714 10.3047033,6.36410571 9.80676923,7.14427714 L9.80676923,5.52304286 L6.05397802,5.52304286 C6.10273993,6.59625429 6.05397802,16.9791943 6.05397802,16.9791943 L9.80676923,16.9791943 L9.80676923,10.5789343 C9.80676923,10.2373714 9.828337,9.89390571 9.92961172,9.64938857 C10.2015531,8.96436 10.8185788,8.25554571 11.855707,8.25554571 C13.2135385,8.25554571 13.7564835,9.30592286 13.7564835,10.8472371 L13.7564835,16.97634 L17.5092747,16.97634 L17.5102125,16.97634 L17.5102125,10.4067257 C17.508337,6.89024571 15.6563223,5.25283714 13.1872821,5.25283714 Z M9.80395604,7.18423714 L9.78051282,7.18423714 C9.78801465,7.17091714 9.7992674,7.15854857 9.80395604,7.14522857 L9.80395604,7.18423714 Z" id="Shape"></path>
                <polygon id="Rectangle-path" points="0.221304029 5.52304286 3.97409524 5.52304286 3.97409524 16.9791943 0.221304029 16.9791943"></polygon>
                <path d="M2.12301832,-6.19504448e-14 C0.840205128,-6.19504448e-14 -7.52953255e-13,0.854382857 -7.52953255e-13,1.97897143 C-7.52953255e-13,3.07787143 0.814886447,3.95794286 2.07331868,3.95794286 L2.09769963,3.95794286 C3.40676923,3.95794286 4.22165568,3.07787143 4.22165568,1.97897143 C4.196337,0.855334286 3.40770696,-6.19504448e-14 2.12301832,-6.19504448e-14 Z" id="Shape"></path>
            </g>
        </g>
    </g>
</svg>