<?xml version="1.0" encoding="UTF-8"?>
<svg width="37px" height="37px" viewBox="0 0 37 37" version="1.1" xmlns="http://www.w3.org/2000/svg" xmlns:xlink="http://www.w3.org/1999/xlink">
    <!-- Generator: Sketch 55.1 (78136) - https://sketchapp.com -->
    <title>uEA23-network-facebook</title>
    <desc>Created with Sketch.</desc>
    <g id="uEA23-network-facebook" stroke="none" stroke-width="1" fill="none" fill-rule="evenodd">
        <g id="facebook-circular-logo" fill="#010002" fill-rule="nonzero">
            <path d="M18.4623393,0.0768630952 C8.26597619,0.0768630952 0,8.34283929 0,18.5392024 C0,27.6841488 6.65603571,35.2576964 15.3831905,36.7242619 L15.3831905,22.3909464 L10.9295357,22.3909464 L10.9295357,17.2329702 L15.3831905,17.2329702 L15.3831905,13.4296786 C15.3831905,9.01676786 18.0784643,6.6119881 22.0156607,6.6119881 C23.9013393,6.6119881 25.5218512,6.7525 25.9922798,6.8143869 L25.9922798,11.4270536 L23.2615476,11.428375 C21.1208333,11.428375 20.7081071,12.4454345 20.7081071,13.9384286 L20.7081071,17.2303274 L25.8160893,17.2303274 L25.149869,22.3883036 L20.7081071,22.3883036 L20.7081071,36.8475952 C29.8427024,35.7358333 36.9244583,27.9693571 36.9244583,18.5339167 C36.9244583,8.34283929 28.6584821,0.0768630952 18.4623393,0.0768630952 Z" id="Path"></path>
        </g>
    </g>
</svg>