<?xml version="1.0" encoding="UTF-8"?>
<svg width="22px" height="22px" viewBox="0 0 22 22" version="1.1" xmlns="http://www.w3.org/2000/svg" xmlns:xlink="http://www.w3.org/1999/xlink">
    <!-- Generator: Sketch 55.1 (78136) - https://sketchapp.com -->
    <title>uEA28-network-linkedin-inverted</title>
    <desc>Created with Sketch.</desc>
    <g id="uEA28-network-linkedin-inverted" stroke="none" stroke-width="1" fill="none" fill-rule="evenodd">
        <path d="M19.5211268,1 L2.47887324,1 C2.09197724,0.994798936 1.71879676,1.14246724 1.44144614,1.41065208 C1.16409552,1.67883692 1.0052997,2.04556437 1,2.43014 L1,19.57014 C1.0052997,19.9547156 1.16409552,20.3214431 1.44144614,20.5896279 C1.71879676,20.8578128 2.09197724,21.0054811 2.47887324,21.00028 L19.5211268,21.00028 C19.9080228,21.0054811 20.2812032,20.8578128 20.5585539,20.5896279 C20.8359045,20.3214431 20.9947003,19.9547156 21,19.57014 L21,2.43014 C20.9947003,2.04556437 20.8359045,1.67883692 20.5585539,1.41065208 C20.2812032,1.14246724 19.9080228,0.994798936 19.5211268,1 Z M7.06639839,17.74014 L4.04828974,17.74014 L4.04828974,8.74014 L7.06639839,8.74014 L7.06639839,17.74014 Z M5.55734406,7.48014 L5.55734406,7.48014 C4.69057927,7.48014 3.98792757,6.78170421 3.98792757,5.92014 C3.98792757,5.05857579 4.69057927,4.36014 5.55734406,4.36014 C6.16047339,4.2921501 6.7494421,4.57373133 7.0725077,5.08452761 C7.3955733,5.5953239 7.3955733,6.24495611 7.0725077,6.75575239 C6.7494421,7.26654868 6.16047339,7.5481299 5.55734406,7.48014 L5.55734406,7.48014 Z M17.9517103,17.74014 L14.9336016,17.74014 L14.9336016,12.91014 C14.9336016,11.70014 14.501006,10.91014 13.4044266,10.91014 C12.7093366,10.9151981 12.0910278,11.3502065 11.8551308,12.00014 C11.7764029,12.2351803 11.7422895,12.4827135 11.7545272,12.73014 L11.7545272,17.73014 L8.73641851,17.73014 C8.73641851,17.73014 8.73641851,9.55014 8.73641851,8.73014 L11.7545272,8.73014 L11.7545272,10.00014 C12.3132804,9.03640722 13.362616,8.45907904 14.4808853,8.50014 C16.4929577,8.50014 17.9517103,9.79014 17.9517103,12.56014 L17.9517103,17.74014 Z" id="Shape" fill="#000000" fill-rule="nonzero"></path>
    </g>
</svg>