<?xml version="1.0" encoding="UTF-8"?>
<svg width="22px" height="22px" viewBox="0 0 22 22" version="1.1" xmlns="http://www.w3.org/2000/svg" xmlns:xlink="http://www.w3.org/1999/xlink">
    <!-- Generator: Sketch 55.1 (78136) - https://sketchapp.com -->
    <title>uEA2F-network-xing-inverted</title>
    <desc>Created with Sketch.</desc>
    <g id="uEA2F-network-xing-inverted" stroke="none" stroke-width="1" fill="none" fill-rule="evenodd">
        <path d="M3.73931624,4.38746439 C3.55128205,4.38746439 3.36324786,4.45014245 3.3005698,4.57549858 C3.23789174,4.7008547 3.23789174,4.88888889 3.3005698,5.07692308 L5.49430199,8.83760684 L5.49430199,8.83760684 L2.04700855,14.9173789 C1.98433048,15.1054131 1.98433048,15.2934473 2.04700855,15.4188034 C2.10968661,15.6068376 2.2977208,15.6695157 2.48575499,15.6695157 L5.74501425,15.6695157 C6.24643875,15.6695157 6.497151,15.3561254 6.62250712,15.042735 C6.62250712,15.042735 10.0071225,9.08831909 10.1324786,8.83760684 L7.87606838,4.95156695 C7.68803419,4.63817664 7.5,4.32478632 6.9985755,4.32478632 L3.73931624,4.38746439 L3.73931624,4.38746439 Z M17.0270655,0 C16.525641,0 16.3376068,0.313390313 16.1495726,0.626780627 C16.1495726,0.626780627 9.12962963,12.7236467 8.87891738,13.0997151 L13.517094,21.3732194 C13.7051282,21.6239316 13.9558405,22 14.457265,22 L17.6538462,22 C17.8418803,22 18.0299145,21.9373219 18.0925926,21.8119658 C18.1552707,21.6866097 18.1552707,21.4985755 18.0925926,21.3105413 L13.517094,13.1623932 L13.517094,13.1623932 L20.7250712,0.689458689 C20.7877493,0.501424501 20.7877493,0.313390313 20.7250712,0.188034188 C20.6623932,0.0626780627 20.474359,0 20.2863248,0 L17.0270655,0 L17.0270655,0 L17.0270655,0 L17.0270655,0 Z" id="Combined-Shape" fill="#000000" fill-rule="nonzero"></path>
    </g>
</svg>