<?xml version="1.0" encoding="UTF-8"?>
<svg width="50px" height="50px" viewBox="0 0 50 50" version="1.1" xmlns="http://www.w3.org/2000/svg" xmlns:xlink="http://www.w3.org/1999/xlink">
    <!-- Generator: Sketch 48.1 (47250) - http://www.bohemiancoding.com/sketch -->
    <title>Google+</title>
    <desc>Created with Sketch.</desc>
    <defs>
        <path d="M25,0 C38.8062509,0 50,11.1906651 50,25 C50,38.8062509 38.8062509,50 25,50 C11.1937491,50 0,38.8062509 0,25 C0,11.1937491 11.1937491,0 25,0 Z M18.6163281,22.8054963 L18.6163281,27.2160432 C18.6163281,27.2160432 22.8871484,27.210301 24.6262109,27.210301 C23.6844922,30.0693635 22.2202344,31.6263166 18.6163281,31.6263166 C14.9692188,31.6263166 12.1227344,28.6644416 12.1227344,25.0107698 C12.1227344,21.3570979 14.9692188,18.3952229 18.6163281,18.3952229 C20.5446094,18.3952229 21.7901172,19.0741682 22.9322656,20.0205354 C23.8466406,19.1045198 23.7703516,18.9738166 26.0967578,16.7729182 C24.1219922,14.9720588 21.4969922,13.8744807 18.6163281,13.8744807 C12.4768359,13.8744807 7.5,18.8603401 7.5,25.0107698 C7.5,31.1611994 12.4768359,36.1470588 18.6163281,36.1470588 C27.7931641,36.1470588 30.0358984,28.142176 29.2924219,22.8054963 L18.6163281,22.8054963 Z M38.6478125,23.0261604 L38.6478125,19.1668635 L35.8962109,19.1668635 L35.8962109,23.0258869 L31.9338281,23.0258869 L31.9338281,25.7824104 L35.8962109,25.7824104 L35.8962109,29.7519026 L38.6478125,29.7519026 L38.6478125,25.7826838 L42.5,25.7826838 L42.5,23.0261604 L38.6478125,23.0261604 Z" id="path-1"></path>
    </defs>
    <g id="Page-1" stroke="none" stroke-width="1" fill="none" fill-rule="evenodd">
        <g id="Google+">
            <mask id="mask-2" fill="white">
                <use xlink:href="#path-1"></use>
            </mask>
            <use id="Combined-Shape" fill="#000000" fill-rule="nonzero" xlink:href="#path-1"></use>
        </g>
    </g>
</svg>