<?xml version="1.0" encoding="UTF-8"?>
<svg width="22px" height="22px" viewBox="0 0 22 22" version="1.1" xmlns="http://www.w3.org/2000/svg" xmlns:xlink="http://www.w3.org/1999/xlink">
    <!-- Generator: Sketch 55.1 (78136) - https://sketchapp.com -->
    <title>uEA2C-network-twitter-inverted</title>
    <desc>Created with Sketch.</desc>
    <g id="uEA2C-network-twitter-inverted" stroke="none" stroke-width="1" fill="none" fill-rule="evenodd">
        <path d="M21,4.95074684 C20.2483371,5.2768416 19.4534278,5.49241023 18.64,5.59074684 C19.4981729,5.07806766 20.1412717,4.27152941 20.45,3.32074684 C19.6435521,3.80080999 18.7607621,4.13904372 17.84,4.32074684 C16.5741776,2.94802967 14.5407201,2.60400494 12.8937898,3.4839363 C11.2468594,4.36386766 10.4025172,6.24545965 10.84,8.06074684 C7.54236057,7.89395387 4.47071868,6.33450491 2.39,3.77074684 C2.02913744,4.4009154 1.83951928,5.1145692 1.84,5.84074684 C1.83740105,7.21045829 2.52061253,8.49054134 3.66,9.25074684 C3.00797741,9.23300628 2.36988565,9.05804564 1.8,8.74074684 L1.8,8.79074684 C1.81007488,10.7387272 3.18943105,12.4106741 5.1,12.7907468 C4.74325548,12.8993134 4.372875,12.956554 4,12.9607468 C3.74189022,12.9577314 3.48442225,12.9343252 3.23,12.8907468 C3.77097576,14.55689 5.30855746,15.6970289 7.06,15.7307468 C5.61720259,16.8660135 3.83588349,17.4856027 2,17.4907468 C1.66573525,17.4918429 1.33173562,17.4718029 1,17.4307468 C2.87442836,18.6410038 5.05881285,19.2834698 7.29,19.2807468 C10.400263,19.3130466 13.392978,18.0938279 15.5952038,15.897244 C17.7974296,13.7006601 19.0243212,10.7110825 19,7.60074684 C19,7.43074684 19,7.25074684 19,7.07074684 C19.7846953,6.48555765 20.4614745,5.76817172 21,4.95074684 L21,4.95074684 Z" id="Path" fill="#000000" fill-rule="nonzero"></path>
    </g>
</svg>