<?xml version="1.0" encoding="UTF-8"?>
<svg width="37px" height="37px" viewBox="0 0 37 37" version="1.1" xmlns="http://www.w3.org/2000/svg" xmlns:xlink="http://www.w3.org/1999/xlink">
    <!-- Generator: Sketch 55.1 (78136) - https://sketchapp.com -->
    <title>uEA2D-network-twitter</title>
    <desc>Created with Sketch.</desc>
    <g id="uEA2D-network-twitter" stroke="none" stroke-width="1" fill="none" fill-rule="evenodd">
        <g id="twitter" fill="#111111" fill-rule="nonzero">
            <path d="M18.2108543,0 C8.15390934,0 0,8.27303285 0,18.4769035 C0,28.6807741 8.15390934,36.953807 18.2108543,36.953807 C28.2677992,36.953807 36.4217086,28.6807741 36.4217086,18.4769035 C36.4217086,8.27075359 28.2677992,0 18.2108543,0 Z M27.2707536,14.3288008 L27.284382,14.9177618 C27.284382,20.9319713 22.7749498,27.860848 14.5276634,27.860848 C11.9963729,27.860848 9.64030491,27.1079322 7.65534905,25.816807 C8.00594371,25.8583655 8.3632777,25.881462 8.72525433,25.881462 C10.8263512,25.881462 12.758965,25.153922 14.2932098,23.9344415 C12.3310179,23.8975175 10.6760643,22.5810164 10.1047193,20.7749302 C10.380133,20.828037 10.6578681,20.8534887 10.9492316,20.8534887 C11.3589825,20.8534887 11.7550302,20.8003819 12.1306353,20.6964476 C10.079634,20.276076 8.53400727,18.4399795 8.53400727,16.2366181 L8.53400727,16.1788768 C9.13949818,16.5206899 9.82923065,16.723924 10.564491,16.7493758 C9.36256984,15.9340842 8.57039962,14.5413799 8.57039962,12.9639035 C8.57039962,12.1301499 8.79122484,11.3495031 9.17589053,10.6774251 C11.3862394,13.4304682 14.6915039,15.2411889 18.4179013,15.4305955 C18.340474,15.0979754 18.3018352,14.7492485 18.3018352,14.3936078 C18.3018352,11.883078 20.309555,9.84595072 22.7862569,9.84595072 C24.0746661,9.84595072 25.2401949,10.3979117 26.059622,11.2824928 C27.0794316,11.0769035 28.0400849,10.6981663 28.9073612,10.1784949 C28.5727163,11.2409343 27.8625412,12.1324292 26.9360337,12.6959384 C27.8397772,12.5873696 28.7070535,12.3402218 29.5106057,11.9799466 C28.9096825,12.8899035 28.1470904,13.6913676 27.2707536,14.3288008 Z" id="Shape"></path>
        </g>
    </g>
</svg>