<?xml version="1.0" encoding="UTF-8"?>
<svg width="22px" height="22px" viewBox="0 0 22 22" version="1.1" xmlns="http://www.w3.org/2000/svg" xmlns:xlink="http://www.w3.org/1999/xlink">
    <!-- Generator: Sketch 55.1 (78136) - https://sketchapp.com -->
    <title>uEA3A-search</title>
    <desc>Created with Sketch.</desc>
    <g id="uEA3A-search" stroke="none" stroke-width="1" fill="none" fill-rule="evenodd">
        <path d="M20.7309154,19.3109154 L17.0209154,15.6309154 C20.0111294,11.9025602 19.5656881,6.48718845 16.0064354,3.29755951 C12.4471827,0.10793057 7.01555512,0.256559283 3.6360572,3.6360572 C0.256559283,7.01555512 0.10793057,12.4471827 3.29755951,16.0064354 C6.48718845,19.5656881 11.9025602,20.0111294 15.6309154,17.0209154 L19.3109154,20.7009154 C19.498682,20.8902281 19.7542779,20.9967137 20.0209154,20.9967137 C20.2875529,20.9967137 20.5431488,20.8902281 20.7309154,20.7009154 C21.1055691,20.3133188 21.1055691,19.698512 20.7309154,19.3109154 Z M10.0209154,17.0209154 C6.15492215,17.0209154 3.0209154,13.8869087 3.0209154,10.0209154 C3.0209154,6.15492215 6.15492215,3.0209154 10.0209154,3.0209154 C13.8869087,3.0209154 17.0209154,6.15492215 17.0209154,10.0209154 C17.0209154,11.8774308 16.2834175,13.6579082 14.9706629,14.9706629 C13.6579082,16.2834175 11.8774308,17.0209154 10.0209154,17.0209154 Z" id="Shape" fill="#000000" fill-rule="nonzero"></path>
    </g>
</svg>