<?xml version="1.0" encoding="UTF-8"?>
<svg width="22px" height="22px" viewBox="0 0 22 22" version="1.1" xmlns="http://www.w3.org/2000/svg" xmlns:xlink="http://www.w3.org/1999/xlink">
    <!-- Generator: Sketch 55.1 (78136) - https://sketchapp.com -->
    <title>uEA37-phrase</title>
    <desc>Created with Sketch.</desc>
    <g id="uEA37-phrase" stroke="none" stroke-width="1" fill="none" fill-rule="evenodd">
        <path d="M6.85899814,16 C5.572659,16 4.60791911,15.5860256 3.96474954,14.7580645 C3.32157996,13.9301034 3,12.8754544 3,11.594086 C3,10.1352974 3.40568549,8.82437858 4.21706865,7.66129032 C5.0284518,6.49820207 6.19603443,5.61111417 7.71985158,5 L10.5992579,6.83333333 C9.51081707,7.28674062 8.61534056,7.76478243 7.91280148,8.26747312 C7.21026241,8.7701638 6.70068186,9.37634054 6.38404453,10.0860215 L6.53246753,10.2043011 C6.78973536,9.92831403 7.10636794,9.79032258 7.48237477,9.79032258 C8.29375792,9.79032258 9.00123384,10.0416642 9.60482375,10.5443548 C10.2084137,11.0470455 10.5102041,11.7715006 10.5102041,12.7177419 C10.5102041,13.8216901 10.1886241,14.6447106 9.54545455,15.186828 C8.90228497,15.7289454 8.00680846,16 6.85899814,16 Z M15.2597403,16 C13.9734011,16 13.0086612,15.5860256 12.3654917,14.7580645 C11.7223221,13.9301034 11.4007421,12.8754544 11.4007421,11.594086 C11.4007421,10.1352974 11.8064276,8.82437858 12.6178108,7.66129032 C13.4291939,6.49820207 14.5967765,5.61111417 16.1205937,5 L19,6.83333333 C17.9115592,7.28674062 17.0160827,7.76478243 16.3135436,8.26747312 C15.6110045,8.7701638 15.101424,9.37634054 14.7847866,10.0860215 L14.9332096,10.2043011 C15.1904775,9.92831403 15.5071101,9.79032258 15.8831169,9.79032258 C16.6945,9.79032258 17.401976,10.0416642 18.0055659,10.5443548 C18.6091558,11.0470455 18.9109462,11.7715006 18.9109462,12.7177419 C18.9109462,13.8216901 18.5893662,14.6447106 17.9461967,15.186828 C17.3030271,15.7289454 16.4075506,16 15.2597403,16 Z" id="“" fill="#111111" fill-rule="nonzero"></path>
    </g>
</svg>