<?xml version="1.0" encoding="UTF-8"?>
<svg width="20px" height="20px" viewBox="0 0 20 20" version="1.1" xmlns="http://www.w3.org/2000/svg" xmlns:xlink="http://www.w3.org/1999/xlink">
    <!-- Generator: Sketch 50.2 (55047) - http://www.bohemiancoding.com/sketch -->
    <title>Shape</title>
    <desc>Created with Sketch.</desc>
    <defs></defs>
    <g id="Page-1" stroke="none" stroke-width="1" fill="none" fill-rule="evenodd">
        <g id="Place_vacancy_landelijk" transform="translate(-340.000000, -36.000000)" fill="#030104" fill-rule="nonzero">
            <g id="Group">
                <path d="M349.866302,36.0009088 C344.344146,36.0748216 339.927638,40.6119813 340.000898,46.1345727 C340.074811,51.6547727 344.611536,56.0725849 350.133693,55.9991069 C355.65498,55.9247593 360.072575,51.3875996 359.999097,45.8654431 C359.925184,40.3448082 355.388024,35.9272134 349.866302,36.0009088 Z M350.974777,39.3332897 C351.991296,39.3332897 352.291512,39.9232878 352.291512,40.5974161 C352.291512,41.4402396 351.616732,42.2193675 350.4663,42.2193675 C349.50326,42.2193675 349.045218,41.7348039 349.071957,40.934589 C349.071957,40.2602433 349.636955,39.3332897 350.974777,39.3332897 Z M348.368916,52.2499882 C347.674353,52.2499882 347.165224,51.8286852 347.651309,49.9745606 L348.448263,46.6865274 C348.586741,46.1595726 348.610002,45.9489211 348.448263,45.9489211 C348.239786,45.9489211 347.338049,46.312833 346.805442,46.6710927 L346.458052,46.1021814 C348.147829,44.6910989 350.091084,43.8632754 350.924125,43.8632754 C351.618688,43.8632754 351.73434,44.6847946 351.387384,45.9489211 L350.474561,49.405432 C350.312823,50.016517 350.382388,50.2269511 350.543691,50.2269511 C350.752604,50.2269511 351.435428,49.9734736 352.106295,49.4465188 L352.49999,49.9734736 C350.856299,51.6169468 349.063044,52.2499882 348.368916,52.2499882 Z" id="Shape"></path>
            </g>
        </g>
    </g>
</svg>