<?xml version="1.0" encoding="UTF-8"?>
<svg width="22px" height="22px" viewBox="0 0 22 22" version="1.1" xmlns="http://www.w3.org/2000/svg" xmlns:xlink="http://www.w3.org/1999/xlink">
    <!-- Generator: Sketch 55.1 (78136) - https://sketchapp.com -->
    <title>uEA3F-share-link</title>
    <desc>Created with Sketch.</desc>
    <g id="uEA3F-share-link" stroke="none" stroke-width="1" fill="none" fill-rule="evenodd">
        <path d="M8.87093475,16.5452119 L7.10093475,18.2652119 C6.13443643,19.2317102 4.56743308,19.2317102 3.60093479,18.2652119 C2.63443649,17.2987136 2.63443647,15.7317103 3.60093475,14.7652119 L8.14093475,10.2152119 C9.06643411,9.28670657 10.5574727,9.24712148 11.5309347,10.1252119 L11.6509347,10.2252119 C12.0458183,10.6118112 12.6793354,10.6050955 13.0659347,10.2102119 C13.452534,9.81532833 13.4458183,9.18181127 13.0509347,8.79521194 C12.9944951,8.72223703 12.9344192,8.65214841 12.8709347,8.58521194 C11.0995068,7.04404057 8.43654144,7.14023965 6.78093475,8.80521194 L2.18093475,13.3552119 C0.556892019,15.1229313 0.614765333,17.8565775 2.31216725,19.5539794 C4.00956916,21.2513814 6.74321539,21.3092547 8.51093475,19.6852119 L10.2409347,17.9952119 C10.5953063,17.6086146 10.5908154,17.0139277 10.2306458,16.6327263 C9.87047624,16.2515249 9.27700032,16.2133273 8.87093475,16.5452119 L8.87093475,16.5452119 Z M19.5609347,2.30521194 C17.8097717,0.564929354 14.9820978,0.564929354 13.2309347,2.30521194 L11.5009347,3.99521194 C11.1465632,4.38180925 11.1510541,4.97649619 11.5112237,5.35769758 C11.8713933,5.73889898 12.4648692,5.77709655 12.8709347,5.44521194 L14.6009347,3.72521194 C15.5674331,2.75871366 17.1344364,2.75871368 18.1009347,3.72521197 C19.067433,4.69171027 19.067433,6.25871362 18.1009347,7.22521194 L13.5609347,11.7752119 C12.6354354,12.7037173 11.1443968,12.7433024 10.1709347,11.8652119 L10.0509347,11.7652119 C9.65605115,11.3786126 9.02253409,11.3853284 8.63593477,11.780212 C8.24933545,12.1750955 8.25605117,12.8086126 8.65093475,13.1952119 C8.72357279,13.2695006 8.80036257,13.339613 8.88093475,13.4052119 C10.654119,14.9414092 13.3132174,14.8453498 14.9709347,13.1852119 L19.5209347,8.63521194 C21.272332,6.8950664 21.2902006,4.06735219 19.5609347,2.30521194 Z" id="Shape" fill="#000000" fill-rule="nonzero"></path>
    </g>
</svg>