<?xml version="1.0" encoding="UTF-8"?>
<svg width="37px" height="37px" viewBox="0 0 37 37" version="1.1" xmlns="http://www.w3.org/2000/svg" xmlns:xlink="http://www.w3.org/1999/xlink">
    <!-- Generator: Sketch 55.1 (78136) - https://sketchapp.com -->
    <title>uEA32-network-youtube</title>
    <desc>Created with Sketch.</desc>
    <g id="uEA32-network-youtube" stroke="none" stroke-width="1" fill="none" fill-rule="evenodd">
        <g id="youtube-symbol" fill="#111111" fill-rule="nonzero">
            <path d="M14.8730508,22.4971327 C17.6021397,21.0613061 20.3074132,19.6386939 23.0376185,18.2021122 C20.2992267,16.7523163 17.5946974,15.321398 14.8730508,13.8802857 C14.8730508,16.7625102 14.8730508,19.6152857 14.8730508,22.4971327 Z" id="Shape"></path>
            <path d="M18.5,0 C8.28307928,0 0,8.28270077 0,18.5 C0,28.7172992 8.28307928,37 18.5,37 C28.7169207,37 37,28.7172992 37,18.5 C37,8.28270077 28.7169207,0 18.5,0 Z M30.5788941,24.6121735 C30.2640851,25.9977857 29.1469969,27.0198163 27.8025467,27.1719694 C24.6183615,27.5332857 21.3958486,27.5351735 18.1863597,27.5332857 C14.9768707,27.5351735 11.7536136,27.5332857 8.56868423,27.1719694 C7.22423397,27.0198163 6.10788999,25.9977857 5.79382522,24.6121735 C5.34617129,22.6383367 5.34617129,20.4844082 5.34617129,18.4528061 C5.34617129,16.4212041 5.35138089,14.2665204 5.79903483,12.2934388 C6.1130996,10.9078265 7.22944357,9.88541837 8.57389383,9.73288776 C11.7588232,9.37194898 14.9820804,9.37006122 18.1915693,9.37194898 C21.400314,9.37006122 24.6235711,9.37194898 27.8073842,9.73288776 C29.1525786,9.88541837 30.2696668,10.907449 30.5837316,12.2934388 C31.0313855,14.266898 31.0276649,16.4212041 31.0276649,18.4528061 C31.0276649,20.4844082 31.0265481,22.6387143 30.5788941,24.6121735 Z" id="Shape"></path>
        </g>
    </g>
</svg>