<?xml version="1.0" encoding="UTF-8"?>
<svg width="22px" height="22px" viewBox="0 0 22 22" version="1.1" xmlns="http://www.w3.org/2000/svg" xmlns:xlink="http://www.w3.org/1999/xlink">
    <!-- Generator: Sketch 55.1 (78136) - https://sketchapp.com -->
    <title>uEA33-notification</title>
    <desc>Created with Sketch.</desc>
    <g id="uEA33-notification" stroke="none" stroke-width="1" fill="none" fill-rule="evenodd">
        <path d="M17,12.18 L17,9 C16.9970353,6.07447929 14.8846041,3.57758553 12,3.09 L12,2 C12,1.44771525 11.5522847,1 11,1 C10.4477153,1 10,1.44771525 10,2 L10,3.09 C7.11539594,3.57758553 5.00296468,6.07447929 5,9 L5,12.18 C3.8042713,12.6027483 3.00356437,13.7317451 3,15 L3,17 C3,17.5522847 3.44771525,18 4,18 L7.14,18 C7.61339782,19.7419603 9.19485974,20.9510005 11,20.9510005 C12.8051403,20.9510005 14.3866022,19.7419603 14.86,18 L18,18 C18.5522847,18 19,17.5522847 19,17 L19,15 C18.9964356,13.7317451 18.1957287,12.6027483 17,12.18 Z M7,9 C7,6.790861 8.790861,5 11,5 C13.209139,5 15,6.790861 15,9 L15,12 L7,12 L7,9 Z M11,19 C10.2897779,18.9957131 9.63510459,18.6150891 9.28,18 L12.72,18 C12.3648954,18.6150891 11.7102221,18.9957131 11,19 Z M17,16 L5,16 L5,15 C5,14.4477153 5.44771525,14 6,14 L16,14 C16.5522847,14 17,14.4477153 17,15 L17,16 Z" id="Shape" fill="#000000" fill-rule="nonzero"></path>
    </g>
</svg>