<?xml version="1.0" encoding="UTF-8"?>
<svg width="37px" height="37px" viewBox="0 0 37 37" version="1.1" xmlns="http://www.w3.org/2000/svg" xmlns:xlink="http://www.w3.org/1999/xlink">
    <!-- Generator: Sketch 55.1 (78136) - https://sketchapp.com -->
    <title>uEA30-network-xing</title>
    <desc>Created with Sketch.</desc>
    <g id="uEA30-network-xing" stroke="none" stroke-width="1" fill="none" fill-rule="evenodd">
        <path d="M18.5,37 C8.28273213,37 0,28.7172679 0,18.5 C0,8.28273213 8.28273213,0 18.5,0 C28.7172679,0 37,8.28273213 37,18.5 C37,28.7172679 28.7172679,37 18.5,37 Z M9.94185142,11.8983639 C9.73192154,11.8983639 9.52199165,11.9683406 9.45201503,12.1082938 C9.3820384,12.2482471 9.3820384,12.458177 9.45201503,12.6681068 L11.901197,16.8667045 L8.05248247,23.6544374 C7.98250584,23.8643673 7.98250584,24.0742972 8.05248247,24.2142504 C8.1224591,24.4241803 8.33238898,24.4941569 8.54231886,24.4941569 L12.1811035,24.4941569 C12.7409165,24.4941569 13.020823,24.1442738 13.1607763,23.7943907 C13.1607763,23.7943907 16.9395142,17.146611 17.0794674,16.8667045 L14.5603088,12.5281536 C14.350379,12.1782705 14.1404491,11.8283873 13.5806361,11.8283873 L9.94185142,11.8983639 Z M24.7768965,7 C24.2170835,7 24.0071536,7.34988314 23.7972237,7.69976628 C23.7972237,7.69976628 15.9598414,21.2052554 15.6799349,21.6251152 L20.8582053,30.8620301 C21.0681352,31.1419366 21.3480417,31.5617963 21.9078548,31.5617963 L25.4766628,31.5617963 C25.6865927,31.5617963 25.8965225,31.4918197 25.9664992,31.3518664 C26.0364758,31.2119132 26.0364758,31.0019833 25.9664992,30.7920534 L20.8582053,21.6950918 L28.9055175,7.7697429 C28.9754942,7.55981302 28.9754942,7.34988314 28.9055175,7.20992988 C28.8355409,7.06997663 28.625611,7 28.4156811,7 L24.7768965,7 Z" id="Combined-Shape" fill="#111111"></path>
    </g>
</svg>