<?xml version="1.0" encoding="UTF-8"?>
<svg width="22px" height="22px" viewBox="0 0 22 22" version="1.1" xmlns="http://www.w3.org/2000/svg" xmlns:xlink="http://www.w3.org/1999/xlink">
    <!-- Generator: Sketch 55.1 (78136) - https://sketchapp.com -->
    <title>uEA36-pause</title>
    <desc>Created with Sketch.</desc>
    <g id="uEA36-pause" stroke="none" stroke-width="1" fill="none" fill-rule="evenodd">
        <path d="M14,3 C13.4477153,3 13,3.44771525 13,4 L13,17 C13,17.5522847 13.4477153,18 14,18 C14.5522847,18 15,17.5522847 15,17 L15,4 C15,3.44771525 14.5522847,3 14,3 Z" id="Path-Copy" fill="#000000"></path>
        <path d="M8,3 C7.44771525,3 7,3.44771525 7,4 L7,17 C7,17.5522847 7.44771525,18 8,18 C8.55228475,18 9,17.5522847 9,17 L9,4 C9,3.44771525 8.55228475,3 8,3 Z" id="Path-Copy-2" fill="#000000"></path>
    </g>
</svg>