<?xml version="1.0" encoding="UTF-8"?>
<svg width="22px" height="22px" viewBox="0 0 22 22" version="1.1" xmlns="http://www.w3.org/2000/svg" xmlns:xlink="http://www.w3.org/1999/xlink">
    <!-- Generator: Sketch 55.1 (78136) - https://sketchapp.com -->
    <title>uEA35-operator-plus</title>
    <desc>Created with Sketch.</desc>
    <g id="uEA35-operator-plus" stroke="none" stroke-width="1" fill="none" fill-rule="evenodd">
        <path d="M18,10 L12,10 L12,4 C12,3.44771525 11.5522847,3 11,3 C10.4477153,3 10,3.44771525 10,4 L10,10 L4,10 C3.44771525,10 3,10.4477153 3,11 C3,11.5522847 3.44771525,12 4,12 L10,12 L10,18 C10,18.5522847 10.4477153,19 11,19 C11.5522847,19 12,18.5522847 12,18 L12,12 L18,12 C18.5522847,12 19,11.5522847 19,11 C19,10.4477153 18.5522847,10 18,10 Z" id="Path" fill="#000000" fill-rule="nonzero"></path>
    </g>
</svg>