<?xml version="1.0" encoding="UTF-8"?>
<svg width="22px" height="22px" viewBox="0 0 22 22" version="1.1" xmlns="http://www.w3.org/2000/svg" xmlns:xlink="http://www.w3.org/1999/xlink">
    <!-- Generator: Sketch 55.1 (78136) - https://sketchapp.com -->
    <title>uEA31-network-youtube-inverted</title>
    <desc>Created with Sketch.</desc>
    <g id="uEA31-network-youtube-inverted" stroke="none" stroke-width="1" fill="none" fill-rule="evenodd">
        <path d="M22.0088159,8.4516833 C22.0582672,7.02033651 21.7452457,5.59970037 21.0988159,4.3216833 C20.6602214,3.79728182 20.0515333,3.44339341 19.3788159,3.3216833 C16.5963375,3.06920856 13.8023473,2.96572745 11.0088159,3.0116833 C8.22546223,2.96364162 5.44152421,3.06378327 2.66881591,3.3116833 C2.12063573,3.41139986 1.61333404,3.66852538 1.20881591,4.0516833 C0.308815913,4.8816833 0.208815913,6.3016833 0.108815913,7.5016833 C-0.0362719711,9.6592469 -0.0362719711,11.8241197 0.108815913,13.9816833 C0.137746083,14.6570891 0.238309813,15.3275139 0.408815913,15.9816833 C0.529391023,16.4867492 0.773338813,16.9540295 1.11881591,17.3416833 C1.52608389,17.7451393 2.04520028,18.0168915 2.60881591,18.1216833 C4.76473186,18.387802 6.93703339,18.4980881 9.10881591,18.4516833 C12.6088159,18.5016833 15.6788159,18.4516833 19.3088159,18.1716833 C19.8862715,18.0733291 20.4200068,17.8012287 20.8388159,17.3916833 C21.1187765,17.1115999 21.3278958,16.7687814 21.4488159,16.3916833 C21.8064442,15.2943006 21.9820982,14.1457936 21.9688159,12.9916833 C22.0088159,12.4316833 22.0088159,9.0516833 22.0088159,8.4516833 Z M8.74881591,13.5916833 L8.74881591,7.4016833 L14.6688159,10.5116833 C13.0088159,11.4316833 10.8188159,12.4716833 8.74881591,13.5916833 Z" id="Shape" fill="#000000" fill-rule="nonzero"></path>
        <text id="uEA31-network-youtub" font-family="WorkSans-Black, Work Sans" font-size="52" font-weight="700" letter-spacing="0.2912" fill="#111111">
            <tspan x="-205.9544" y="-2">uEA31-network-</tspan>
            <tspan x="-219.5316" y="59">youtube-inverted</tspan>
        </text>
    </g>
</svg>