<?xml version="1.0" encoding="UTF-8"?>
<svg width="50px" height="50px" viewBox="0 0 50 50" version="1.1" xmlns="http://www.w3.org/2000/svg" xmlns:xlink="http://www.w3.org/1999/xlink">
    <!-- Generator: Sketch 46.1 (44463) - http://www.bohemiancoding.com/sketch -->
    <title>Shape</title>
    <desc>Created with Sketch.</desc>
    <defs></defs>
    <g id="Page-1" stroke="none" stroke-width="1" fill="none" fill-rule="evenodd">
        <path d="M25,0 C11.1936667,0 0,11.1931667 0,25 C0,38.8063333 11.1936667,50.0005 25,50.0005 C38.8071667,50.0005 50,38.8063333 50,25 C50,11.1931667 38.8075,0 25,0 Z M22.4015,32.423 C22.4015,34.006 21.1181667,35.2893333 19.5351667,35.2893333 C17.9521667,35.2893333 16.6688333,34.006 16.6688333,32.423 L16.6688333,17.5766667 C16.6688333,15.9936667 17.9521667,14.7103333 19.5351667,14.7103333 C21.1181667,14.7103333 22.4015,15.9936667 22.4015,17.5766667 L22.4015,32.423 Z M33.159,32.423 C33.159,34.006 31.8755,35.2893333 30.2926667,35.2893333 C28.7096667,35.2893333 27.4263333,34.006 27.4263333,32.423 L27.4263333,17.5766667 C27.4263333,15.9936667 28.7096667,14.7103333 30.2926667,14.7103333 C31.8756667,14.7103333 33.159,15.9936667 33.159,17.5766667 L33.159,32.423 Z" id="Shape" fill="#000000" fill-rule="nonzero"></path>
    </g>
</svg>