<?xml version="1.0" encoding="UTF-8"?>
<svg width="50px" height="50px" viewBox="0 0 50 50" version="1.1" xmlns="http://www.w3.org/2000/svg" xmlns:xlink="http://www.w3.org/1999/xlink">
    <!-- Generator: Sketch 46.2 (44496) - http://www.bohemiancoding.com/sketch -->
    <title>Icon_Share_Linkedin</title>
    <desc>Created with Sketch.</desc>
    <defs></defs>
    <g id="Page-1" stroke="none" stroke-width="1" fill="none" fill-rule="evenodd">
        <g id="Icon_Share_Linkedin" fill="#000000">
            <path d="M6,0 L44,0 C47.3137085,-3.55188275e-15 50,2.6862915 50,6 L50,44 L50,44 C50,47.3137085 47.3137085,50 44,50 L6,50 L6,50 C2.6862915,50 4.05812251e-16,47.3137085 0,44 L0,6 L0,6 C-4.05812251e-16,2.6862915 2.6862915,6.08718376e-16 6,0 L6,0 Z M15.2623106,19.0224796 L7.44981061,19.0224796 L7.44981061,44 L15.2623106,44 L15.2623106,19.0224796 Z M15.7594697,11.3099455 C15.7436868,10.0665242 15.3412287,9.03735648 14.5520833,8.22241144 C13.762938,7.40746641 12.7133904,7 11.4034091,7 C10.0934278,7 9.03204321,7.40746641 8.21922348,8.22241144 C7.40640376,9.03735648 7,10.0665242 7,11.3099455 C7,12.5365638 7.39456676,13.5615309 8.18371212,14.3848774 C8.97285748,15.2082239 10.0145137,15.619891 11.3087121,15.619891 L11.3560606,15.619891 C12.6818248,15.619891 13.7511007,15.2082239 14.5639205,14.3848774 C15.3767402,13.5615309 15.7752526,12.5365638 15.7594697,11.3099455 Z M27.3598485,22.5718568 L27.3598485,22.5718568 L27.3598485,19.0224796 L19.5710227,19.0224796 L19.594697,20.2322888 C19.6104799,21.0388324 19.6183712,23.5256377 19.6183712,27.6927793 C19.6183712,31.8599209 19.6025885,37.2956068 19.5710227,44 L27.3598485,44 L27.3598485,30.0619891 C27.3598485,29.2050366 27.4466532,28.5245257 27.6202652,28.020436 C27.9517062,27.1634835 28.452806,26.4451664 29.1235795,25.8654632 C29.7943531,25.28576 30.626889,24.9959128 31.6212121,24.9959128 C32.9785421,24.9959128 33.976796,25.4957943 34.6160038,26.4955722 C35.2552115,27.4953501 35.5748106,28.8773754 35.5748106,30.6416894 L35.5748106,44 L43.3636364,44 L43.3636364,29.6839237 C43.3636364,26.0040688 42.5429375,23.2106135 40.9015152,21.3034741 C39.2600928,19.3963347 37.0899756,18.4427793 34.3910985,18.4427793 C33.3967753,18.4427793 32.4932174,18.5730005 31.6803977,18.8334469 C30.867578,19.0938932 30.1810318,19.4593528 29.6207386,19.9298365 C29.0604454,20.4003202 28.614585,20.8371914 28.2831439,21.2404632 C27.9682542,21.6235966 27.6604918,22.0673904 27.3598485,22.5718568 Z" id="Combined-Shape"></path>
        </g>
    </g>
</svg>