<?xml version="1.0" encoding="UTF-8"?>
<svg width="22px" height="22px" viewBox="0 0 22 22" version="1.1" xmlns="http://www.w3.org/2000/svg" xmlns:xlink="http://www.w3.org/1999/xlink">
    <!-- Generator: Sketch 55.1 (78136) - https://sketchapp.com -->
    <title>uEA4E-toast-warning</title>
    <desc>Created with Sketch.</desc>
    <g id="uEA4E-toast-warning" stroke="none" stroke-width="1" fill="none" fill-rule="evenodd">
        <path d="M10.9751236,14.9865667 C10.4260604,14.9865667 9.98095669,15.4316704 9.98095669,15.9807336 C9.98095669,16.5297968 10.4260604,16.9749005 10.9751236,16.9749005 C11.5241868,16.9749005 11.9692904,16.5297968 11.9692904,15.9807336 C11.9692904,15.4316704 11.5241868,14.9865667 10.9751236,14.9865667 Z M21.5828841,16.447992 L13.5798408,2.52965575 C13.0530964,1.58528784 12.0564609,1 10.9751236,1 C9.89378626,1 8.8971507,1.58528784 8.37040635,2.52965575 L0.417071347,16.447992 C-0.127681996,17.3667252 -0.139556392,18.506627 0.385939863,19.436509 C0.911436117,20.3663911 1.89406844,20.9442758 2.96213855,20.9517134 L18.9881086,20.9517134 C20.0650624,20.9621812 21.0640836,20.3913485 21.6017527,19.4581528 C22.1394217,18.5249571 22.1322095,17.3743741 21.5828841,16.447992 Z M19.8629754,18.4363258 C19.6854971,18.7520932 19.3503222,18.9463423 18.9881086,18.9433849 L2.96213855,18.9433849 C2.59992493,18.9463423 2.26475007,18.7520932 2.0872717,18.4363258 C1.90968089,18.1287295 1.90968089,17.7497552 2.0872717,17.4421589 L10.0406067,3.52382263 C10.2107046,3.19180448 10.5523611,2.9829566 10.9254152,2.9829566 C11.2984693,2.9829566 11.6401258,3.19180448 11.8102237,3.52382263 L19.8132671,17.4421589 C20.014193,17.7455983 20.0332604,18.1345731 19.8629754,18.4562091 L19.8629754,18.4363258 Z M10.9751236,7.0332317 C10.4260604,7.0332317 9.98095669,7.47833537 9.98095669,8.02739857 L9.98095669,12.0040661 C9.98095669,12.5531293 10.4260604,12.998233 10.9751236,12.998233 C11.5241868,12.998233 11.9692904,12.5531293 11.9692904,12.0040661 L11.9692904,8.02739857 C11.9692904,7.47833537 11.5241868,7.0332317 10.9751236,7.0332317 Z" id="Shape" fill="#000000" fill-rule="nonzero"></path>
    </g>
</svg>