<?xml version="1.0" encoding="utf-8"?>
<!-- Generator: Adobe Illustrator 22.1.0, SVG Export Plug-In . SVG Version: 6.00 Build 0)  -->
<svg version="1.1" id="Layer_1" xmlns="http://www.w3.org/2000/svg" xmlns:xlink="http://www.w3.org/1999/xlink" x="0px" y="0px"
	 viewBox="0 0 35 35.1" style="enable-background:new 0 0 35 35.1;" xml:space="preserve">
<style type="text/css">
	.st0{fill:#010002;}
</style>
<g id="Design-components">
	<g id="A---Social-network-share-bar---Desktop-_x2B_-Mobile" transform="translate(-372.000000, -2.000000)">
		<g id="black-envelope" transform="translate(372.000000, 2.000000)">
			<path id="Shape_2_" class="st0" d="M2.8,6.8l12.6,10c0.6,0.5,1.4,0.7,2.1,0.6c0.8,0,1.6-0.2,2.1-0.6l12.6-10
				c1-0.8,0.8-1.4-0.5-1.4H17.5H3.3C2,5.3,1.8,6,2.8,6.8z"/>
			<path id="Shape_1_" class="st0" d="M33.2,9.4L19.4,19.9c-0.5,0.4-1.2,0.6-1.9,0.6c-0.7,0-1.4-0.2-1.9-0.6L1.9,9.4
				C0.8,8.6,0,9.1,0,10.3v17.2c0,1.3,1.1,2.3,2.3,2.3h15.2h15.2c1.3,0,2.3-1.1,2.3-2.3V10.3C35.1,9.1,34.2,8.6,33.2,9.4z"/>
		</g>
	</g>
</g>
</svg>
