<?xml version="1.0" encoding="UTF-8"?>
<svg width="22px" height="22px" viewBox="0 0 22 22" version="1.1" xmlns="http://www.w3.org/2000/svg" xmlns:xlink="http://www.w3.org/1999/xlink">
    <!-- Generator: Sketch 55.1 (78136) - https://sketchapp.com -->
    <title>uEA43-share-mail</title>
    <desc>Created with Sketch.</desc>
    <g id="uEA43-share-mail" stroke="none" stroke-width="1" fill="none" fill-rule="evenodd">
        <path d="M18,3 L4,3 C2.34314575,3 1,4.34314575 1,6 L1,16 C1,17.6568542 2.34314575,19 4,19 L18,19 C19.6568542,19 21,17.6568542 21,16 L21,6 C21,4.34314575 19.6568542,3 18,3 Z M17.59,5 L11.71,10.88 C11.5222334,11.0693127 11.2666375,11.1757983 11,11.1757983 C10.7333625,11.1757983 10.4777666,11.0693127 10.29,10.88 L4.41,5 L17.59,5 Z M19,16 C19,16.5522847 18.5522847,17 18,17 L4,17 C3.44771525,17 3,16.5522847 3,16 L3,6.41 L8.88,12.29 C10.0512702,13.4598135 11.9487298,13.4598135 13.12,12.29 L19,6.41 L19,16 Z" id="Shape" fill="#000000" fill-rule="nonzero"></path>
    </g>
</svg>