<?xml version="1.0" encoding="UTF-8"?>
<svg width="22px" height="22px" viewBox="0 0 22 22" version="1.1" xmlns="http://www.w3.org/2000/svg" xmlns:xlink="http://www.w3.org/1999/xlink">
    <!-- Generator: Sketch 55.1 (78136) - https://sketchapp.com -->
    <title>uEA4C-toast-error</title>
    <desc>Created with Sketch.</desc>
    <g id="uEA4C-toast-error" stroke="none" stroke-width="1" fill="none" fill-rule="evenodd">
        <path d="M14.6648744,7.33512557 C14.4793917,7.14811558 14.2269047,7.04292511 13.9635103,7.04292511 C13.700116,7.04292511 13.447629,7.14811558 13.2621462,7.33512557 L11,9.60715015 L8.73785379,7.33512557 C8.35050109,6.9477729 7.72247829,6.94777291 7.3351256,7.3351256 C6.94777291,7.72247829 6.9477729,8.35050109 7.33512557,8.73785379 L9.60715015,11 L7.33512557,13.2621462 C7.14811558,13.447629 7.04292511,13.700116 7.04292511,13.9635103 C7.04292511,14.2269047 7.14811558,14.4793917 7.33512557,14.6648744 C7.52060833,14.8518844 7.77309532,14.9570749 8.03648968,14.9570749 C8.29988405,14.9570749 8.55237104,14.8518844 8.73785379,14.6648744 L11,12.3928498 L13.2621462,14.6648744 C13.447629,14.8518844 13.700116,14.9570749 13.9635103,14.9570749 C14.2269047,14.9570749 14.4793917,14.8518844 14.6648744,14.6648744 C14.8518844,14.4793917 14.9570749,14.2269047 14.9570749,13.9635103 C14.9570749,13.700116 14.8518844,13.447629 14.6648744,13.2621462 L12.3928498,11 L14.6648744,8.73785379 C14.8518844,8.55237104 14.9570749,8.29988405 14.9570749,8.03648968 C14.9570749,7.77309532 14.8518844,7.52060833 14.6648744,7.33512557 Z M17.984006,4.01599402 C15.5038,1.44804729 11.8309891,0.418168054 8.37722102,1.32219123 C4.92345293,2.2262144 2.2262144,4.92345293 1.32219123,8.37722102 C0.418168054,11.8309891 1.44804729,15.5038 4.01599402,17.984006 C6.49619996,20.5519527 10.1690109,21.5818319 13.622779,20.6778088 C17.0765471,19.7737856 19.7737856,17.0765471 20.6778088,13.622779 C21.5818319,10.1690109 20.5519527,6.49619996 17.984006,4.01599402 Z M16.5911561,16.5911561 C13.926845,19.2584307 9.74945803,19.6723334 6.61353249,17.5797564 C3.47760694,15.4871794 2.25645798,11.4708786 3.69683718,7.98688445 C5.13721639,4.5028903 8.83799657,2.52145065 12.536093,3.2542467 C16.2341895,3.98704276 18.8997297,7.23000017 18.9027395,11 C18.909813,13.0976357 18.077457,15.1109413 16.5911561,16.5911561 Z" id="Shape" fill="#000000" fill-rule="nonzero"></path>
    </g>
</svg>