<?xml version="1.0" encoding="UTF-8"?>
<svg width="22px" height="22px" viewBox="0 0 22 22" version="1.1" xmlns="http://www.w3.org/2000/svg" xmlns:xlink="http://www.w3.org/1999/xlink">
    <!-- Generator: Sketch 55.1 (78136) - https://sketchapp.com -->
    <title>uEA4A-tip</title>
    <desc>Created with Sketch.</desc>
    <g id="uEA4A-tip" stroke="none" stroke-width="1" fill="none" fill-rule="evenodd">
        <path d="M16.2718834,2.66298098 C14.525667,1.26426941 12.2247461,0.707399842 10.0093834,1.14732881 C7.03056805,1.73333394 4.70928136,4.01209349 4.13125843,6.91776359 C3.71338319,9.07455958 4.30453858,11.3005077 5.74375843,12.9895027 C6.40346345,13.714521 6.78160239,14.6416681 6.81250843,15.6099375 L6.81250843,18.3490679 C6.81250843,19.8618479 8.07170757,21.0881984 9.62500843,21.0881984 L13.3750084,21.0881984 C14.9283093,21.0881984 16.1875084,19.8618479 16.1875084,18.3490679 L16.1875084,15.7834158 C16.2189729,14.7143939 16.6222384,13.687461 17.3312584,12.8708071 C19.9168288,9.75580851 19.4442404,5.19393972 16.2718834,2.64472011 L16.2718834,2.66298098 Z M14.3125084,18.3490679 C14.3125084,18.8533279 13.8927754,19.2621114 13.3750084,19.2621114 L9.62500843,19.2621114 C9.10724148,19.2621114 8.68750843,18.8533279 8.68750843,18.3490679 L8.68750843,17.4360245 L14.3125084,17.4360245 L14.3125084,18.3490679 Z M15.8781334,11.7386332 C14.9354826,12.8275276 14.3855056,14.1874499 14.3125084,15.6099375 L12.4375084,15.6099375 L12.4375084,12.8708071 C12.4375084,12.3665471 12.0177754,11.9577636 11.5000084,11.9577636 C10.9822415,11.9577636 10.5625084,12.3665471 10.5625084,12.8708071 L10.5625084,15.6099375 L8.68750843,15.6099375 C8.66277263,14.2112469 8.13152011,12.8660231 7.18750843,11.8116766 C5.9205559,10.3332748 5.5436477,8.31558856 6.19477774,6.49733485 C6.84590778,4.67908115 8.42944876,3.32729523 10.3656334,2.93689402 C12.0222117,2.60470716 13.7443385,3.01610823 15.0550534,4.05715558 C16.3657683,5.09820293 17.1259316,6.65838354 17.1250891,8.30558968 C17.1319477,9.55633356 16.6910303,10.7703194 15.8781334,11.7386332 Z" id="Shape" fill="#000000" fill-rule="nonzero"></path>
    </g>
</svg>