<?xml version="1.0" encoding="UTF-8"?>
<svg width="22px" height="22px" viewBox="0 0 22 22" version="1.1" xmlns="http://www.w3.org/2000/svg" xmlns:xlink="http://www.w3.org/1999/xlink">
    <!-- Generator: Sketch 55.1 (78136) - https://sketchapp.com -->
    <title>uEA4F-video</title>
    <desc>Created with Sketch.</desc>
    <g id="uEA4F-video" stroke="none" stroke-width="1" fill="none" fill-rule="evenodd">
        <path d="M20.53,6.15000138 C20.2205989,5.97136859 19.8394011,5.97136859 19.53,6.15000138 L16,7.89000138 C15.9407899,6.2762567 14.6148302,4.99891551 13,5.00000069 L4,5.00000069 C2.34314575,5.00000069 1,6.34314713 1,8.00000069 L1,14.0000007 C1,15.6568556 2.34314575,17.0000007 4,17.0000007 L13,17.0000007 C14.6148302,17.0010873 15.9407899,15.7237461 16,14.1100014 L19.56,15.8900014 C19.6963063,15.9598828 19.8468443,15.9975173 20,16.0000007 C20.1872252,16.0006022 20.3708587,15.9486304 20.53,15.8500014 C20.8229855,15.6668859 21.0006914,15.3455029 21,15.0000007 L21,7.00000069 C21.0006914,6.65449991 20.8229855,6.33311684 20.53,6.15000138 Z M14,14.0000014 C14,14.5522861 13.5522847,15.0000014 13,15.0000014 L4,15.0000014 C3.44771525,15.0000014 3,14.5522861 3,14.0000014 L3,8.00000138 C3,7.44771663 3.44771525,7.00000138 4,7.00000138 L13,7.00000138 C13.5522847,7.00000138 14,7.44771663 14,8.00000138 L14,14.0000014 Z M19,13.3800014 L16,11.8800014 L16,10.1200014 L19,8.62000138 L19,13.3800014 Z" id="Shape" fill="#000000" fill-rule="nonzero"></path>
    </g>
</svg>