<?xml version="1.0" encoding="UTF-8"?>
<svg width="22px" height="22px" viewBox="0 0 22 22" version="1.1" xmlns="http://www.w3.org/2000/svg" xmlns:xlink="http://www.w3.org/1999/xlink">
    <!-- Generator: Sketch 55.1 (78136) - https://sketchapp.com -->
    <title>uEA45-share-print</title>
    <desc>Created with Sketch.</desc>
    <g id="uEA45-share-print" stroke="none" stroke-width="1" fill="none" fill-rule="evenodd">
        <path d="M6,9 C5.44771525,9 5,9.44771525 5,10 C5,10.5522847 5.44771525,11 6,11 C6.55228475,11 7,10.5522847 7,10 C7,9.44771525 6.55228475,9 6,9 Z M18,5 L17,5 L17,2 C17,1.44771525 16.5522847,1 16,1 L6,1 C5.44771525,1 5,1.44771525 5,2 L5,5 L4,5 C2.34314575,5 1,6.34314575 1,8 L1,14 C1,15.6568542 2.34314575,17 4,17 L5,17 L5,20 C5,20.5522847 5.44771525,21 6,21 L16,21 C16.5522847,21 17,20.5522847 17,20 L17,17 L18,17 C19.6568542,17 21,15.6568542 21,14 L21,8 C21,6.34314575 19.6568542,5 18,5 Z M7,3 L15,3 L15,5 L7,5 L7,3 Z M15,19 L7,19 L7,15 L15,15 L15,19 Z M19,14 C19,14.5522847 18.5522847,15 18,15 L17,15 L17,14 C17,13.4477153 16.5522847,13 16,13 L6,13 C5.44771525,13 5,13.4477153 5,14 L5,15 L4,15 C3.44771525,15 3,14.5522847 3,14 L3,8 C3,7.44771525 3.44771525,7 4,7 L18,7 C18.5522847,7 19,7.44771525 19,8 L19,14 Z" id="Shape" fill="#000000" fill-rule="nonzero"></path>
    </g>
</svg>