<?xml version="1.0" encoding="UTF-8"?>
<svg width="50px" height="50px" viewBox="0 0 50 50" version="1.1" xmlns="http://www.w3.org/2000/svg" xmlns:xlink="http://www.w3.org/1999/xlink">
    <!-- Generator: Sketch 47.1 (45422) - http://www.bohemiancoding.com/sketch -->
    <title>Icon_Twitter_separated</title>
    <desc>Created with Sketch.</desc>
    <defs></defs>
    <g id="Page-1" stroke="none" stroke-width="1" fill="none" fill-rule="evenodd">
        <g id="Icon_Twitter_separated" fill="#FFFFFF">
            <path d="M34.5789751,20.1530725 L34.5946626,20.8300879 C34.5946626,27.7434704 29.4039281,35.7082704 19.91061,35.7082704 C16.9968824,35.7082704 14.2848506,34.8427875 12,33.3586286 C12.4035639,33.4064005 12.8148852,33.4329501 13.2315507,33.4329501 C15.6500894,33.4329501 17.8746898,32.5966369 19.6407342,31.1948342 C17.3820868,31.1523898 15.4770965,29.6390612 14.8194305,27.5629504 C15.1364548,27.621377 15.4561512,27.6532541 15.791535,27.6532541 C16.2631927,27.6532541 16.7190767,27.5922074 17.1514296,27.4727341 C14.7905553,26.9895134 13.0114093,24.8789056 13.0114093,22.3461239 L13.0114093,22.2797498 C13.7083801,22.6726668 14.50232,22.906286 15.3486663,22.935543 C13.9651543,21.9983587 13.0532999,20.3974338 13.0532999,18.584112 C13.0532999,17.6257055 13.3074883,16.7283456 13.7502707,15.9557865 C16.2945676,19.1204318 20.0992041,21.20187 24.3886,21.4195944 C24.2994746,21.0372449 24.2549981,20.6363805 24.2549981,20.2275686 C24.2549981,17.3416943 26.566052,15 29.4169435,15 C30.9000105,15 32.2416319,15.6344836 33.1848611,16.6513168 C34.3587475,16.4149902 35.4645401,15.9796287 36.4628477,15.3822622 C36.0776434,16.6035449 35.2601723,17.6283255 34.1936846,18.2760839 C35.2339691,18.1512832 36.2322768,17.8671848 37.1572327,17.4530456 C36.4655198,18.4990484 35.5877124,19.4203378 34.5789751,20.1530725 Z" id="Path"></path>
        </g>
    </g>
</svg>