<?xml version="1.0" encoding="UTF-8"?>
<svg width="50px" height="50px" viewBox="0 0 50 50" version="1.1" xmlns="http://www.w3.org/2000/svg" xmlns:xlink="http://www.w3.org/1999/xlink">
    <!-- Generator: Sketch 46.2 (44496) - http://www.bohemiancoding.com/sketch -->
    <title>Icon_Share_Twitter_colored</title>
    <desc>Created with Sketch.</desc>
    <defs></defs>
    <g id="Page-1" stroke="none" stroke-width="1" fill="none" fill-rule="evenodd">
        <g id="Icon_Share_Twitter_colored" fill="#1DA1F2">
            <path d="M6,0 L44,0 C47.3137085,-3.55188275e-15 50,2.6862915 50,6 L50,44 L50,44 C50,47.3137085 47.3137085,50 44,50 L6,50 L6,50 C2.6862915,50 4.05812251e-16,47.3137085 0,44 L0,6 L0,6 C-4.05812251e-16,2.6862915 2.6862915,6.08718376e-16 6,0 L6,0 Z M34.8431261,19.9329467 C35.8518633,19.200212 36.7296707,18.2789226 37.4213836,17.2329198 C36.4964277,17.647059 35.49812,17.9311574 34.4578355,18.0559581 C35.5243232,17.4081997 36.3417943,16.3834191 36.7269987,15.1621364 C35.728691,15.759503 34.6228985,16.1948644 33.4490121,16.431191 C32.5057829,15.4143578 31.1641615,14.7798742 29.6810945,14.7798742 C26.8302029,14.7798742 24.5191491,17.1215686 24.5191491,20.0074429 C24.5191491,20.4162547 24.5636256,20.8171191 24.652751,21.1994686 C20.3633551,20.9817442 16.5587185,18.9003061 14.0144217,15.7356607 C13.5716392,16.5082198 13.3174509,17.4055797 13.3174509,18.3639862 C13.3174509,20.1773081 14.2293052,21.7782329 15.6128172,22.7154172 C14.7664709,22.6861602 13.972531,22.452541 13.2755602,22.059624 L13.2755602,22.1259981 C13.2755602,24.6587799 15.0547062,26.7693877 17.4155806,27.2526083 C16.9832277,27.3720816 16.5273436,27.4331283 16.0556859,27.4331283 C15.7203021,27.4331283 15.4006058,27.4012513 15.0835814,27.3428246 C15.7412474,29.4189354 17.6462378,30.932264 19.9048852,30.9747084 C18.1388408,32.3765111 15.9142403,33.2128243 13.4957016,33.2128243 C13.0790362,33.2128243 12.6677148,33.1862747 12.2641509,33.1385028 C14.5490016,34.6226618 17.2610334,35.4881446 20.1747609,35.4881446 C29.6680791,35.4881446 34.8588135,27.5233446 34.8588135,20.6099621 L34.8431261,19.9329467 Z" id="Combined-Shape"></path>
        </g>
    </g>
</svg>