<?xml version="1.0" encoding="utf-8"?>
<!-- Generator: Adobe Illustrator 22.1.0, SVG Export Plug-In . SVG Version: 6.00 Build 0)  -->
<svg version="1.1" id="Layer_1" xmlns="http://www.w3.org/2000/svg" xmlns:xlink="http://www.w3.org/1999/xlink" x="0px" y="0px"
	 viewBox="0 0 30 35.1" style="enable-background:new 0 0 30 35.1;" xml:space="preserve">
<g id="Design-components_1_">
	<g id="A---Social-network-share-bar---Desktop-_x2B_-Mobile_1_" transform="translate(-323.000000, -1.000000)">
		<g id="printing-tool" transform="translate(323.000000, 1.000000)">
			<path id="Shape" d="M29,16.4c-0.7-0.7-1.5-1-2.4-1h-1.2v-4.6c0-0.5-0.1-1-0.4-1.6c-0.2-0.6-0.5-1-0.9-1.4L21.4,5
				c-0.3-0.3-0.8-0.6-1.4-0.9c-0.6-0.2-1.1-0.4-1.6-0.4H6.3C5.8,3.8,5.4,4,5.1,4.3S4.6,5,4.6,5.5v9.7H3.4c-1,0-1.8,0.3-2.4,1
				c-0.7,0.7-1,1.5-1,2.4v7.4c0,0.2,0.1,0.3,0.2,0.4c0.1,0.1,0.3,0.2,0.4,0.2h4v3.1c0,0.5,0.2,0.9,0.5,1.2s0.7,0.5,1.2,0.5h17.4
				c0.5,0,0.9-0.2,1.2-0.5c0.3-0.3,0.5-0.7,0.5-1.2v-2.9h4c0.2,0,0.3-0.1,0.4-0.2c0.1-0.1,0.2-0.2,0.2-0.4v-7.4
				C30,17.9,29.6,17,29,16.4z M23,29.1H6.8v-4.6H23V29.1z M23,17.6H6.8V6.1h11.6V9c0,0.5,0.2,0.9,0.5,1.2c0.3,0.3,0.7,0.5,1.2,0.5
				H23V17.6z M27.3,19.6c-0.2,0.2-0.5,0.3-0.8,0.3s-0.6-0.1-0.8-0.3c-0.2-0.2-0.3-0.5-0.3-0.8s0.1-0.6,0.3-0.8
				c0.2-0.2,0.5-0.3,0.8-0.3s0.6,0.1,0.8,0.3c0.2,0.2,0.3,0.5,0.3,0.8C27.7,19.1,27.6,19.4,27.3,19.6z"/>
		</g>
	</g>
</g>
</svg>
