<?xml version="1.0" encoding="UTF-8"?>
<svg width="22px" height="22px" viewBox="0 0 22 22" version="1.1" xmlns="http://www.w3.org/2000/svg" xmlns:xlink="http://www.w3.org/1999/xlink">
    <!-- Generator: Sketch 55.1 (78136) - https://sketchapp.com -->
    <title>uEA4B-toast-check</title>
    <desc>Created with Sketch.</desc>
    <g id="uEA4B-toast-check" stroke="none" stroke-width="1" fill="none" fill-rule="evenodd">
        <path d="M13.72,7.79 L9.43,12.09 L7.78,10.44 C7.53561012,10.1546238 7.1518816,10.0303181 6.78658103,10.1181899 C6.42128045,10.2060617 6.13606167,10.4912805 6.04818987,10.856581 C5.96031806,11.2218816 6.08462384,11.6056101 6.37,11.85 L8.72,14.21 C8.90871883,14.3971865 9.16419702,14.5015368 9.43,14.5000167 C9.69233988,14.4988954 9.94373936,14.3947442 10.13,14.21 L15.13,9.21 C15.3193127,9.0222334 15.4257983,8.76663754 15.4257983,8.5 C15.4257983,8.23336246 15.3193127,7.9777666 15.13,7.79 C14.7399625,7.40227641 14.1100375,7.40227641 13.72,7.79 L13.72,7.79 Z M11,1 C5.4771525,1 1,5.4771525 1,11 C1,16.5228475 5.4771525,21 11,21 C16.5228475,21 21,16.5228475 21,11 C21,8.3478351 19.9464316,5.80429597 18.0710678,3.92893219 C16.195704,2.0535684 13.6521649,1 11,1 Z M11,19 C6.581722,19 3,15.418278 3,11 C3,6.581722 6.581722,3 11,3 C15.418278,3 19,6.581722 19,11 C19,13.1217319 18.1571453,15.1565632 16.6568542,16.6568542 C15.1565632,18.1571453 13.1217319,19 11,19 Z" id="check-circle" fill="#000000" fill-rule="nonzero"></path>
    </g>
</svg>