<?xml version="1.0" encoding="UTF-8"?>
<svg width="22px" height="22px" viewBox="0 0 22 22" version="1.1" xmlns="http://www.w3.org/2000/svg" xmlns:xlink="http://www.w3.org/1999/xlink">
    <!-- Generator: Sketch 55.1 (78136) - https://sketchapp.com -->
    <title>uEA49-time</title>
    <desc>Created with Sketch.</desc>
    <g id="uEA49-time" stroke="none" stroke-width="1" fill="none" fill-rule="evenodd">
        <path d="M11,1 C5.4771525,1 1,5.4771525 1,11 C1,16.5228475 5.4771525,21 11,21 C16.5228475,21 21,16.5228475 21,11 C21,8.3478351 19.9464316,5.80429597 18.0710678,3.92893219 C16.195704,2.0535684 13.6521649,1 11,1 Z M11,19 C6.581722,19 3,15.418278 3,11 C3,6.581722 6.581722,3 11,3 C15.418278,3 19,6.581722 19,11 C19,13.1217319 18.1571453,15.1565632 16.6568542,16.6568542 C15.1565632,18.1571453 13.1217319,19 11,19 Z M14.1,11.63 L12,10.42 L12,6 C12,5.44771525 11.5522847,5 11,5 C10.4477153,5 10,5.44771525 10,6 L10,11 C10,11 10,11.08 10,11.12 C10.0059212,11.188902 10.0228001,11.2564177 10.05,11.32 C10.0705939,11.3793306 10.09741,11.4363147 10.13,11.49 C10.1573642,11.5468396 10.1908993,11.6004957 10.23,11.65 L10.39,11.78 L10.48,11.87 L13.08,13.37 C13.2324029,13.4563804 13.4048236,13.5012098 13.58,13.5000247 C14.0353929,13.5031839 14.4354212,13.1982792 14.5530546,12.7583301 C14.6706881,12.318381 14.4762127,11.8545181 14.08,11.63 L14.1,11.63 Z" id="Shape" fill="#000000" fill-rule="nonzero"></path>
    </g>
</svg>