<?xml version="1.0" encoding="UTF-8"?>
<svg width="22px" height="22px" viewBox="0 0 22 22" version="1.1" xmlns="http://www.w3.org/2000/svg" xmlns:xlink="http://www.w3.org/1999/xlink">
    <!-- Generator: Sketch 55.1 (78136) - https://sketchapp.com -->
    <title>uEA4D-toast-information</title>
    <desc>Created with Sketch.</desc>
    <g id="uEA4D-toast-information" stroke="none" stroke-width="1" fill="none" fill-rule="evenodd">
        <path d="M11,10 C10.4477153,10 10,10.4477153 10,11 L10,15 C10,15.5522847 10.4477153,16 11,16 C11.5522847,16 12,15.5522847 12,15 L12,11 C12,10.4477153 11.5522847,10 11,10 Z M11.38,6.08 C11.1365386,5.97998198 10.8634614,5.97998198 10.62,6.08 C10.4972487,6.12759439 10.3851037,6.19895937 10.29,6.29 C10.2016691,6.38720094 10.1306419,6.49881511 10.08,6.62 C10.0240186,6.73867938 9.99661989,6.86882347 10,7 C9.99846324,7.26580298 10.1028135,7.52128117 10.29,7.71 C10.3872009,7.79833094 10.4988151,7.86935813 10.62,7.92 C10.9276385,8.04638789 11.277982,8.01155601 11.5547126,7.82706891 C11.8314433,7.6425818 11.9983432,7.33258473 12,7 C11.9963165,6.73523302 11.8927337,6.48163379 11.71,6.29 C11.6148963,6.19895937 11.5027513,6.12759439 11.38,6.08 Z M11,1 C5.4771525,1 1,5.4771525 1,11 C1,16.5228475 5.4771525,21 11,21 C16.5228475,21 21,16.5228475 21,11 C21,8.3478351 19.9464316,5.80429597 18.0710678,3.92893219 C16.195704,2.0535684 13.6521649,1 11,1 Z M11,19 C6.581722,19 3,15.418278 3,11 C3,6.581722 6.581722,3 11,3 C15.418278,3 19,6.581722 19,11 C19,13.1217319 18.1571453,15.1565632 16.6568542,16.6568542 C15.1565632,18.1571453 13.1217319,19 11,19 Z" id="Shape" fill="#000000" fill-rule="nonzero"></path>
    </g>
</svg>