<?xml version="1.0" encoding="UTF-8"?>
<svg width="50px" height="50px" viewBox="0 0 50 50" version="1.1" xmlns="http://www.w3.org/2000/svg" xmlns:xlink="http://www.w3.org/1999/xlink">
    <!-- Generator: Sketch 46.2 (44496) - http://www.bohemiancoding.com/sketch -->
    <title>Icon_Share_Twitter</title>
    <desc>Created with Sketch.</desc>
    <defs></defs>
    <g id="Page-1" stroke="none" stroke-width="1" fill="none" fill-rule="evenodd">
        <g id="Icon_Share_Twitter" fill="#000000">
            <path d="M6,0 L44,0 C47.3137085,-3.55188275e-15 50,2.6862915 50,6 L50,44 L50,44 C50,47.3137085 47.3137085,50 44,50 L6,50 L6,50 C2.6862915,50 4.05812251e-16,47.3137085 0,44 L0,6 L0,6 C-4.05812251e-16,2.6862915 2.6862915,6.08718376e-16 6,0 L6,0 Z M34.5789751,20.1530725 C35.5877124,19.4203378 36.4655198,18.4990484 37.1572327,17.4530456 C36.2322768,17.8671848 35.2339691,18.1512832 34.1936846,18.2760839 C35.2601723,17.6283255 36.0776434,16.6035449 36.4628477,15.3822622 C35.4645401,15.9796287 34.3587475,16.4149902 33.1848611,16.6513168 C32.2416319,15.6344836 30.9000105,15 29.4169435,15 C26.566052,15 24.2549981,17.3416943 24.2549981,20.2275686 C24.2549981,20.6363805 24.2994746,21.0372449 24.3886,21.4195944 C20.0992041,21.20187 16.2945676,19.1204318 13.7502707,15.9557865 C13.3074883,16.7283456 13.0532999,17.6257055 13.0532999,18.584112 C13.0532999,20.3974338 13.9651543,21.9983587 15.3486663,22.935543 C14.50232,22.906286 13.7083801,22.6726668 13.0114093,22.2797498 L13.0114093,22.3461239 C13.0114093,24.8789056 14.7905553,26.9895134 17.1514296,27.4727341 C16.7190767,27.5922074 16.2631927,27.6532541 15.791535,27.6532541 C15.4561512,27.6532541 15.1364548,27.621377 14.8194305,27.5629504 C15.4770965,29.6390612 17.3820868,31.1523898 19.6407342,31.1948342 C17.8746898,32.5966369 15.6500894,33.4329501 13.2315507,33.4329501 C12.8148852,33.4329501 12.4035639,33.4064005 12,33.3586286 C14.2848506,34.8427875 16.9968824,35.7082704 19.91061,35.7082704 C29.4039281,35.7082704 34.5946626,27.7434704 34.5946626,20.8300879 L34.5789751,20.1530725 Z" id="Combined-Shape"></path>
        </g>
    </g>
</svg>