<?xml version="1.0" encoding="UTF-8"?>
<svg width="22px" height="22px" viewBox="0 0 22 22" version="1.1" xmlns="http://www.w3.org/2000/svg" xmlns:xlink="http://www.w3.org/1999/xlink">
    <!-- Generator: Sketch 55.1 (78136) - https://sketchapp.com -->
    <title>uEA51-download</title>
    <desc>Created with Sketch.</desc>
    <g id="uEA51-download" stroke="none" stroke-width="1" fill="none" fill-rule="evenodd">
        <path d="M20,13 C19.4477153,13 19,13.4477153 19,14 L19,18 C19,18.5522847 18.5522847,19 18,19 L4,19 C3.44771525,19 3,18.5522847 3,18 L3,14 C3,13.4477153 2.55228475,13 2,13 C1.44771525,13 1,13.4477153 1,14 L1,18 C1,19.6568542 2.34314575,21 4,21 L18,21 C19.6568542,21 21,19.6568542 21,18 L21,14 C21,13.4477153 20.5522847,13 20,13 Z M10.29,14.71 C10.3851037,14.8010406 10.4972487,14.8724056 10.62,14.92 C10.8620399,15.0269768 11.1379601,15.0269768 11.38,14.92 C11.5027513,14.8724056 11.6148963,14.8010406 11.71,14.71 L15.71,10.71 C16.1021222,10.3178778 16.1021222,9.68212218 15.71,9.29000001 C15.3178778,8.89787784 14.6821222,8.89787784 14.29,9.29 L12,11.59 L12,2 C12,1.44771525 11.5522847,1 11,1 C10.4477153,1 10,1.44771525 10,2 L10,11.59 L7.71,9.29 C7.45634143,9.03634142 7.08662601,8.93727646 6.74012195,9.03012194 C6.3936179,9.12296742 6.12296742,9.3936179 6.03012194,9.74012195 C5.93727646,10.086626 6.03634142,10.4563414 6.29,10.71 L10.29,14.71 Z" id="Shape" fill="#000000" fill-rule="nonzero"></path>
    </g>
</svg>