<?xml version="1.0" encoding="UTF-8"?>
<svg width="22px" height="22px" viewBox="0 0 22 22" version="1.1" xmlns="http://www.w3.org/2000/svg" xmlns:xlink="http://www.w3.org/1999/xlink">
    <!-- Generator: Sketch 55.1 (78136) - https://sketchapp.com -->
    <title>uEA55-phone</title>
    <desc>Created with Sketch.</desc>
    <g id="uEA55-phone" stroke="none" stroke-width="1" fill="none" fill-rule="evenodd">
        <path d="M18.4581865,11.9603214 C18.2381865,11.9603214 18.0081865,11.8903214 17.7881865,11.8403214 C17.3426697,11.7421463 16.9048557,11.6118047 16.4781865,11.4503214 C15.5174367,11.1008026 14.4477602,11.5321238 13.9981865,12.4503214 L13.7781865,12.9003214 C12.8041888,12.3584996 11.9091695,11.6855527 11.1181865,10.9003214 C10.3329551,10.1093384 9.66000828,9.21431907 9.11818645,8.2403214 L9.53818645,7.9603214 C10.4563841,7.51074761 10.8877052,6.44107115 10.5381865,5.4803214 C10.3794084,5.05274354 10.2491233,4.61511916 10.1481865,4.1703214 C10.0981865,3.9503214 10.0581865,3.7203214 10.0281865,3.4903214 C9.77730431,2.03509388 8.50472569,0.978853628 7.02818645,1.0003214 L4.02818645,1.0003214 C3.15612487,0.992133261 2.32366391,1.36382985 1.74761688,2.0186033 C1.17156986,2.67337676 0.90896101,3.54640951 1.02818645,4.4103214 C2.12411836,13.0285826 8.92599467,19.8057548 17.5481865,20.8703246 L17.9281865,20.8703246 C18.6656015,20.8714032 19.3775834,20.6008501 19.9281865,20.1103214 C20.5681192,19.5379647 20.9321653,18.718861 20.9282187,17.8603214 L20.9282187,14.8603214 C20.9029258,13.4278819 19.8683539,12.2132023 18.4581865,11.9603214 Z M18.9581865,17.9603214 C18.9578227,18.2475486 18.8339707,18.5207516 18.6181865,18.7103214 C18.3928689,18.9065214 18.0946393,18.9974451 17.7981865,18.9603214 C10.0942163,17.9725223 4.03940105,11.8888941 3.08818645,4.1803214 C3.05602499,3.88431519 3.1463538,3.58803672 3.33818645,3.3603214 C3.5277563,3.14453715 3.8009593,3.02068512 4.08818645,3.0203214 L7.08818645,3.0203214 C7.56787926,3.00964775 7.98754476,3.3411835 8.08818645,3.8103214 C8.12818645,4.08365473 8.17818645,4.35365473 8.23818645,4.6203214 C8.35370593,5.14746549 8.50744553,5.66550109 8.69818645,6.1703214 L7.29818645,6.8203214 C7.05642247,6.93124562 6.86881387,7.13392026 6.77685754,7.38351601 C6.68490121,7.63311176 6.69617542,7.90905902 6.80818645,8.1503214 C8.24738707,11.2330765 10.7254314,13.7111208 13.8081865,15.1503214 C14.0516478,15.2503394 14.3247251,15.2503394 14.5681865,15.1503214 C14.8200971,15.060216 15.0253969,14.8729249 15.1381865,14.6303214 L15.7581865,13.2303214 C16.2751526,13.4151985 16.8027722,13.5688093 17.3381865,13.6903214 C17.6048531,13.7503214 17.8748531,13.8003214 18.1481865,13.8403214 C18.6173244,13.9409631 18.9488601,14.3606286 18.9381865,14.8403214 L18.9581865,17.9603214 Z" id="Shape" fill="#000000" fill-rule="nonzero"></path>
    </g>
</svg>
