<?xml version="1.0" encoding="UTF-8"?>
<svg width="83px" height="56px" viewBox="0 0 83 56" version="1.1" xmlns="http://www.w3.org/2000/svg" xmlns:xlink="http://www.w3.org/1999/xlink">
    <!-- Generator: Sketch 53 (72520) - https://sketchapp.com -->
    <title>Group 18</title>
    <desc>Created with Sketch.</desc>
    <g id="Declarations-temp-workers" stroke="none" stroke-width="1" fill="none" fill-rule="evenodd">
        <g id="Group-18" transform="translate(0.250000, 0.250000)" fill="#111111" fill-rule="nonzero">
            <path d="M70.9485136,43 C70.0433629,27.6604031 57.3167886,15.5 41.75,15.5 C26.1832114,15.5 13.4566371,27.6604031 12.5514864,43 L70.9485136,43 Z M9,44.75 C9,26.6626745 23.6626745,12 41.75,12 C59.8373255,12 74.5,26.6626745 74.5,44.75 L74.5,46.5 L9,46.5 L9,44.75 Z" id="Combined-Shape"></path>
            <polygon id="Line-6" points="0 55 0 51.5 82 51.5 82 55"></polygon>
            <path d="M41.75,15.5 C37.4697932,15.5 34,12.0302068 34,7.75 C34,3.46979319 37.4697932,0 41.75,0 C46.0302068,0 49.5,3.46979319 49.5,7.75 C49.5,12.0302068 46.0302068,15.5 41.75,15.5 Z M41.75,12 C44.0972102,12 46,10.0972102 46,7.75 C46,5.40278981 44.0972102,3.5 41.75,3.5 C39.4027898,3.5 37.5,5.40278981 37.5,7.75 C37.5,10.0972102 39.4027898,12 41.75,12 Z" id="Oval"></path>
            <path d="M21.4101958,37.3033986 L18.0898042,36.1966014 C19.251539,32.7113971 21.0494804,29.6355039 23.4771404,26.9837226 L26.0587017,29.3470976 C23.9648677,31.634234 22.4175284,34.2814008 21.4101958,37.3033986 Z M28.8061741,26.7964762 L26.6319786,24.0536904 C27.9186155,23.0337784 29.3248777,22.0987221 30.8498372,21.2482168 L32.5546482,24.3049503 C31.1916691,25.0651153 29.942487,25.8957254 28.8061741,26.7964762 Z" id="Path-2"></path>
        </g>
    </g>
</svg>
