<?xml version="1.0" encoding="UTF-8"?>
<svg width="22px" height="22px" viewBox="0 0 22 22" version="1.1" xmlns="http://www.w3.org/2000/svg" xmlns:xlink="http://www.w3.org/1999/xlink">
    <!-- Generator: Sketch 55.1 (78136) - https://sketchapp.com -->
    <title>uEA53-graph-line-up</title>
    <desc>Created with Sketch.</desc>
    <g id="uEA53-graph-line-up" stroke="none" stroke-width="1" fill="none" fill-rule="evenodd">
        <path d="M20.9257983,5.62 C20.8243234,5.37565068 20.6301476,5.18147492 20.3857983,5.08 C20.265576,5.02875903 20.1364756,5.00157999 20.0057983,5 L15.0057983,5 C14.4535136,5 14.0057983,5.44771525 14.0057983,6 C14.0057983,6.55228475 14.4535136,7 15.0057983,7 L17.5957983,7 L12.0057983,12.59 L8.71579832,9.29 C8.52803172,9.10068735 8.27243586,8.99420168 8.00579832,8.99420168 C7.73916079,8.99420168 7.48356492,9.10068735 7.29579832,9.29 L1.29579832,15.29 C1.10648567,15.4777666 1,15.7333625 1,16 C1,16.2666375 1.10648567,16.5222334 1.29579832,16.71 C1.48356492,16.8993127 1.73916079,17.0057983 2.00579832,17.0057983 C2.27243586,17.0057983 2.52803172,16.8993127 2.71579832,16.71 L8.00579832,11.41 L11.2957983,14.71 C11.4835649,14.8993127 11.7391608,15.0057983 12.0057983,15.0057983 C12.2724359,15.0057983 12.5280317,14.8993127 12.7157983,14.71 L19.0057983,8.41 L19.0057983,11 C19.0057983,11.5522847 19.4535136,12 20.0057983,12 C20.5580831,12 21.0057983,11.5522847 21.0057983,11 L21.0057983,6 C21.0042183,5.86932274 20.9770393,5.74022231 20.9257983,5.62 Z" id="Path" fill="#000000" fill-rule="nonzero"></path>
    </g>
</svg>