<?xml version="1.0" encoding="UTF-8"?>
<svg width="24px" height="24px" viewBox="0 0 24 24" version="1.1" xmlns="http://www.w3.org/2000/svg" xmlns:xlink="http://www.w3.org/1999/xlink">
    <!-- Generator: Sketch 55.1 (78136) - https://sketchapp.com -->
    <title>uEA50-fullscreen</title>
    <desc>Created with Sketch.</desc>
    <g id="uEA50-fullscreen" stroke="none" stroke-width="1" fill="none" fill-rule="evenodd">
        <path d="M21,8 C21.5522847,8 22,7.55228475 22,7 L22,3 C21.99842,2.86932274 21.971241,2.74022231 21.92,2.62 C21.8185251,2.37565068 21.6243493,2.18147492 21.38,2.08 C21.2597777,2.02875903 21.1306773,2.00157999 21,2 L17,2 C16.4477153,2 16,2.44771525 16,3 C16,3.55228475 16.4477153,4 17,4 L18.59,4 L12,10.59 L5.41,4 L7,4 C7.55228475,4 8,3.55228475 8,3 C8,2.44771525 7.55228475,2 7,2 L3,2 C2.86932274,2.00157999 2.74022231,2.02875903 2.62,2.08 C2.37565068,2.18147492 2.18147492,2.37565068 2.08,2.62 C2.02875903,2.74022231 2.00157999,2.86932274 2,3 L2,7 C2,7.55228475 2.44771525,8 3,8 C3.55228475,8 4,7.55228475 4,7 L4,5.41 L10.59,12 L4,18.59 L4,17 C4,16.4477153 3.55228475,16 3,16 C2.44771525,16 2,16.4477153 2,17 L2,21 C2.00157999,21.1306773 2.02875903,21.2597777 2.08,21.38 C2.18147492,21.6243493 2.37565068,21.8185251 2.62,21.92 C2.74022231,21.971241 2.86932274,21.99842 3,22 L7,22 C7.55228475,22 8,21.5522847 8,21 C8,20.4477153 7.55228475,20 7,20 L5.41,20 L12,13.41 L18.59,20 L17,20 C16.4477153,20 16,20.4477153 16,21 C16,21.5522847 16.4477153,22 17,22 L21,22 C21.1306773,21.99842 21.2597777,21.971241 21.38,21.92 C21.6243493,21.8185251 21.8185251,21.6243493 21.92,21.38 C21.971241,21.2597777 21.99842,21.1306773 22,21 L22,17 C22,16.4477153 21.5522847,16 21,16 C20.4477153,16 20,16.4477153 20,17 L20,18.59 L13.41,12 L20,5.41 L20,7 C20,7.55228475 20.4477153,8 21,8 Z" id="Path" fill="#000000" fill-rule="nonzero"></path>
    </g>
</svg>