<?xml version="1.0" encoding="UTF-8"?>
<svg width="22px" height="22px" viewBox="0 0 22 22" version="1.1" xmlns="http://www.w3.org/2000/svg" xmlns:xlink="http://www.w3.org/1999/xlink">
    <!-- Generator: Sketch 55.1 (78136) - https://sketchapp.com -->
    <title>uEA57-globe</title>
    <desc>Created with Sketch.</desc>
    <g id="uEA57-globe" stroke="none" stroke-width="1" fill="none" fill-rule="evenodd">
        <path d="M20.3701564,7.61082859 C20.3701564,7.61082859 20.3701564,7.61082859 20.3701564,7.56082859 C18.9268792,3.62023603 15.1767406,1 10.9801564,1 C6.78357223,1 3.03343366,3.62023603 1.59015642,7.56082859 C1.59015642,7.56082859 1.59015642,7.56082859 1.59015642,7.61082859 C0.803281193,9.7817245 0.803281193,12.1599327 1.59015642,14.3308286 C1.59015642,14.3308286 1.59015642,14.3308286 1.59015642,14.3808286 C3.03343366,18.3214211 6.78357223,20.9416572 10.9801564,20.9416572 C15.1767406,20.9416572 18.9268792,18.3214211 20.3701564,14.3808286 C20.3701564,14.3808286 20.3701564,14.3808286 20.3701564,14.3308286 C21.1570316,12.1599327 21.1570316,9.7817245 20.3701564,7.61082859 L20.3701564,7.61082859 Z M3.22015642,12.9708286 C2.87338393,11.6600423 2.87338393,10.2816148 3.22015642,8.97082859 L5.08015642,8.97082859 C4.92018853,10.2993638 4.92018853,11.6422933 5.08015642,12.9708286 L3.22015642,12.9708286 Z M4.04015642,14.9708286 L5.44015642,14.9708286 C5.67487522,15.8626702 6.01036898,16.7248892 6.44015642,17.5408286 C5.45945442,16.8727586 4.6396531,15.994888 4.04015642,14.9708286 L4.04015642,14.9708286 Z M5.44015642,6.97082859 L4.04015642,6.97082859 C4.63102642,5.94991377 5.44034832,5.07229466 6.41015642,4.40082859 C5.99071056,5.2180725 5.665298,6.08024804 5.44015642,6.97082859 L5.44015642,6.97082859 Z M9.96015642,18.6708286 C8.73192134,17.76951 7.8693048,16.4560609 7.53015642,14.9708286 L9.96015642,14.9708286 L9.96015642,18.6708286 Z M9.96015642,12.9708286 L7.10015642,12.9708286 C6.91354601,11.6440247 6.91354601,10.2976325 7.10015642,8.97082859 L9.96015642,8.97082859 L9.96015642,12.9708286 Z M9.96015642,6.97082859 L7.53015642,6.97082859 C7.8693048,5.48559627 8.73192134,4.17214721 9.96015642,3.27082859 L9.96015642,6.97082859 Z M17.8801564,6.97082859 L16.4801564,6.97082859 C16.2454376,6.07898697 15.9099439,5.21676801 15.4801564,4.40082859 C16.4608584,5.0688986 17.2806597,5.94676918 17.8801564,6.97082859 Z M11.9601564,3.27082859 C13.1883915,4.17214721 14.051008,5.48559627 14.3901564,6.97082859 L11.9601564,6.97082859 L11.9601564,3.27082859 Z M11.9601564,18.6708286 L11.9601564,14.9708286 L14.3901564,14.9708286 C14.051008,16.4560609 13.1883915,17.76951 11.9601564,18.6708286 L11.9601564,18.6708286 Z M14.8201564,12.9708286 L11.9601564,12.9708286 L11.9601564,8.97082859 L14.8201564,8.97082859 C15.0067668,10.2976325 15.0067668,11.6440247 14.8201564,12.9708286 Z M15.5101564,17.5408286 C15.9399439,16.7248892 16.2754376,15.8626702 16.5101564,14.9708286 L17.9101564,14.9708286 C17.3106597,15.994888 16.4908584,16.8727586 15.5101564,17.5408286 Z M18.7001564,12.9708286 L16.8401564,12.9708286 C16.921486,12.3072858 16.961563,11.6393356 16.9601564,10.9708286 C16.961257,10.3023305 16.9211811,9.6343992 16.8401564,8.97082859 L18.7001564,8.97082859 C19.0469289,10.2816148 19.0469289,11.6600423 18.7001564,12.9708286 L18.7001564,12.9708286 Z" id="Shape" fill="#000000" fill-rule="nonzero"></path>
    </g>
</svg>
