<?xml version="1.0" encoding="UTF-8"?>
<svg width="22px" height="22px" viewBox="0 0 22 22" version="1.1" xmlns="http://www.w3.org/2000/svg" xmlns:xlink="http://www.w3.org/1999/xlink">
    <!-- Generator: Sketch 55.1 (78136) - https://sketchapp.com -->
    <title>uEA69-sun</title>
    <desc>Created with Sketch.</desc>
    <g id="uEA69-sun" stroke="none" stroke-width="1" fill="none" fill-rule="evenodd">
        <path d="M4,11 C4,10.4477153 3.55228475,10 3,10 L2,10 C1.44771525,10 1,10.4477153 1,11 C1,11.5522847 1.44771525,12 2,12 L3,12 C3.55228475,12 4,11.5522847 4,11 Z M4.64,16 L3.93,16.71 C3.54227641,17.1000375 3.54227641,17.7299625 3.93,18.12 C4.32003745,18.5077236 4.94996255,18.5077236 5.34,18.12 L6.05,17.41 C6.3897768,17.0132397 6.36693227,16.4218058 5.99756322,16.0524368 C5.62819417,15.6830677 5.03676028,15.6602232 4.64,16 L4.64,16 Z M11,4 C11.5522847,4 12,3.55228475 12,3 L12,2 C12,1.44771525 11.5522847,1 11,1 C10.4477153,1 10,1.44771525 10,2 L10,3 C10,3.55228475 10.4477153,4 11,4 Z M16.66,6.34 C16.9223399,6.33889538 17.1737394,6.23474416 17.36,6.05 L18.07,5.34 C18.3553762,5.09561012 18.4796819,4.7118816 18.3918101,4.34658103 C18.3039383,3.98128045 18.0187195,3.69606167 17.653419,3.60818987 C17.2881184,3.52031806 16.9043899,3.64462384 16.66,3.93 L16,4.64 C15.6122764,5.03003745 15.6122764,5.65996255 16,6.05 C16.1762929,6.22536187 16.4115961,6.32875266 16.66,6.34 Z M4.66,6.05 C4.84626064,6.23474416 5.09766012,6.33889538 5.36,6.34001674 C5.62580298,6.34153676 5.88128117,6.23718651 6.07,6.05 C6.45772359,5.65996255 6.45772359,5.03003745 6.07,4.64 L5.36,3.93 C5.10812776,3.6745551 4.73910998,3.57288653 4.39195209,3.66329184 C4.0447942,3.75369715 3.77223774,4.02244163 3.67695209,4.36829184 C3.58166644,4.71414204 3.67812776,5.0845551 3.93,5.34 L4.66,6.05 Z M20,10 L19,10 C18.4477153,10 18,10.4477153 18,11 C18,11.5522847 18.4477153,12 19,12 L20,12 C20.5522847,12 21,11.5522847 21,11 C21,10.4477153 20.5522847,10 20,10 Z M17.36,16 C16.9696508,15.7828764 16.4826446,15.8509562 16.1668004,16.1668004 C15.8509562,16.4826446 15.7828764,16.9696508 16,17.36 L16.71,18.07 C17.1000375,18.4577236 17.7299625,18.4577236 18.12,18.07 C18.5077236,17.6799625 18.5077236,17.0500375 18.12,16.66 L17.36,16 Z M11,5.5 C7.96243388,5.5 5.5,7.96243388 5.5,11 C5.5,14.0375661 7.96243388,16.5 11,16.5 C14.0375661,16.5 16.5,14.0375661 16.5,11 C16.4944963,7.96471651 14.0352835,5.5055037 11,5.5 Z M11,14.5 C9.58438214,14.5 8.30815514,13.6472524 7.76642164,12.339392 C7.22468814,11.0315316 7.52413328,9.52611925 8.52512627,8.52512627 C9.52611925,7.52413328 11.0315316,7.22468814 12.339392,7.76642164 C13.6472524,8.30815514 14.5,9.58438214 14.5,11 C14.5,12.9329966 12.9329966,14.5 11,14.5 L11,14.5 Z M11,18 C10.4477153,18 10,18.4477153 10,19 L10,20 C10,20.5522847 10.4477153,21 11,21 C11.5522847,21 12,20.5522847 12,20 L12,19 C12,18.4477153 11.5522847,18 11,18 Z" id="Shape" fill="#000000" fill-rule="nonzero"></path>
    </g>
</svg>
