<?xml version="1.0" encoding="UTF-8"?>
<svg width="22px" height="22px" viewBox="0 0 22 22" version="1.1" xmlns="http://www.w3.org/2000/svg" xmlns:xlink="http://www.w3.org/1999/xlink">
    <!-- Generator: Sketch 55.1 (78136) - https://sketchapp.com -->
    <title>uEA68-copy</title>
    <desc>Created with Sketch.</desc>
    <g id="uEA68-copy" stroke="none" stroke-width="1" fill="none" fill-rule="evenodd">
        <path d="M20,7.94 C19.9895837,7.8481349 19.9694716,7.75763058 19.94,7.67 L19.94,7.58 C19.8919189,7.47717975 19.8277838,7.38266483 19.75,7.3 L19.75,7.3 L13.75,1.3 L13.75,1.3 C13.6673352,1.22221621 13.5728202,1.15808108 13.47,1.11 C13.4401498,1.10576018 13.4098502,1.10576018 13.38,1.11 C13.2784148,1.05174135 13.1662233,1.0143442 13.05,1 L9,1 C7.34314575,1 6,2.34314575 6,4 L6,5 L5,5 C3.34314575,5 2,6.34314575 2,8 L2,18 C2,19.6568542 3.34314575,21 5,21 L13,21 C14.6568542,21 16,19.6568542 16,18 L16,17 L17,17 C18.6568542,17 20,15.6568542 20,14 L20,8 C20,8 20,8 20,7.94 Z M14,4.41 L16.59,7 L15,7 C14.4477153,7 14,6.55228475 14,6 L14,4.41 Z M14,18 C14,18.5522847 13.5522847,19 13,19 L5,19 C4.44771525,19 4,18.5522847 4,18 L4,8 C4,7.44771525 4.44771525,7 5,7 L6,7 L6,14 C6,15.6568542 7.34314575,17 9,17 L14,17 L14,18 Z M18,14 C18,14.5522847 17.5522847,15 17,15 L9,15 C8.44771525,15 8,14.5522847 8,14 L8,4 C8,3.44771525 8.44771525,3 9,3 L12,3 L12,6 C12,7.65685425 13.3431458,9 15,9 L18,9 L18,14 Z" id="Shape" fill="#000000" fill-rule="nonzero"></path>
    </g>
</svg>
