<?xml version="1.0" encoding="UTF-8"?>
<svg width="22px" height="22px" viewBox="0 0 22 22" version="1.1" xmlns="http://www.w3.org/2000/svg" xmlns:xlink="http://www.w3.org/1999/xlink">
    <!-- Generator: Sketch 55.1 (78136) - https://sketchapp.com -->
    <title>uEA62-piggybank</title>
    <desc>Created with Sketch.</desc>
    <g id="uEA62-piggybank" stroke="none" stroke-width="1" fill="none" fill-rule="evenodd">
        <path d="M5.11860684,2.00192322 C5.21313109,2.00890771 5.3053373,2.03405486 5.38998842,2.07593638 L8.29226364,3.49698901 C9.10715136,3.30248007 9.96198114,3.18613375 10.8553119,3.18613375 C14.8764299,3.18613375 18.3720338,5.3208177 19.4415237,8.34485086 C19.8945923,8.21941217 20.2632069,7.85928428 20.2632069,7.21244954 C20.2591351,7.02016983 20.3346182,6.83448093 20.4724162,6.69779367 C20.6102141,6.5611064 20.7985575,6.48509512 20.9944294,6.48712059 C21.1876867,6.48907498 21.3721203,6.56683702 21.5066405,6.70308219 C21.6411607,6.83932735 21.7145922,7.02273703 21.7107318,7.21244954 C21.7107318,8.50768217 20.8073071,9.43413033 19.7505972,9.72149559 C19.7691428,9.91017349 19.7807507,10.098193 19.7807507,10.2913945 C19.7807507,12.3789209 18.6245617,14.2167209 16.8860139,15.4945314 L16.8860139,18.817734 C16.8859739,19.2101306 16.5619929,19.5282603 16.1623297,19.5282603 L13.0263645,19.5282603 C12.7033307,19.526874 12.4203434,19.3154725 12.3328338,19.0101682 L11.8428393,17.3226682 C11.5154028,17.3522261 11.1937734,17.3966814 10.8553119,17.3966814 C10.5168503,17.3966814 10.1952209,17.3522261 9.86778447,17.3226682 L9.37778995,19.0101682 C9.29028032,19.3154725 9.0072931,19.526874 8.68425925,19.5282603 L5.54829434,19.5282603 C5.14863114,19.5282603 4.82465009,19.2101306 4.82461013,18.817734 L4.82461013,15.5167472 C3.93795947,14.8686761 3.21107416,14.0759893 2.70632614,13.1705182 L0.550350356,12.6376235 C0.227716406,12.5594291 0.000775877035,12.2755648 2.41920461e-05,11.9492893 L2.41920461e-05,8.87034428 C-0.0027004223,8.54131474 0.224980419,8.25346718 0.550350356,8.17462059 L2.57063535,7.67873244 C3.05611408,6.70089901 3.79762022,5.84424349 4.71907285,5.14748244 L4.34969236,2.81606796 C4.31703718,2.60244396 4.38512696,2.38583497 4.53472512,2.22743691 C4.68432329,2.06903885 4.89918459,1.98605259 5.11860684,2.00192322 L5.11860684,2.00192322 Z M5.99305859,3.95587059 L6.21167153,5.33991665 C6.25399077,5.61094824 6.13370893,5.8817024 5.90259807,6.03564033 C4.89006013,6.71798717 4.13973228,7.59072901 3.73154544,8.55948901 C3.64406854,8.77021758 3.4590908,8.92706647 3.23401254,8.98136401 L1.44741715,9.42544296 L1.44741715,11.3867893 L3.35462658,11.8604735 C3.56622738,11.91097 3.74342431,12.0523248 3.83708272,12.2453419 C4.26996649,13.1365077 5.00139412,13.9448972 5.95536671,14.5767682 C6.15481181,14.7099987 6.27353889,14.9320338 6.27197855,15.1688735 L6.27197855,18.1072077 L8.14149609,18.1072077 L8.64656736,16.3752998 C8.74800213,16.0354983 9.08876404,15.8208709 9.44563535,15.8720103 C9.90383359,15.9387761 10.3746683,15.9756288 10.8553119,15.9756288 C11.3359554,15.9756288 11.8067902,15.9387761 12.2649884,15.8720103 C12.6218597,15.8208709 12.9626216,16.0354983 13.0640564,16.3752998 L13.5691277,18.1072077 L15.4386452,18.1072077 L15.4386452,15.1688735 C15.4370849,14.9320338 15.5558121,14.7099987 15.7552573,14.5767682 C17.3669915,13.5092024 18.3333823,11.9774735 18.3333823,10.2913945 C18.3333823,7.24322954 15.0744299,4.60718638 10.8553119,4.60718638 C9.9858521,4.60718638 9.1500803,4.71763296 8.37518579,4.92544296 C8.20362874,4.9705049 8.02118518,4.95206542 7.86257614,4.87363375 L5.99305859,3.95587059 L5.99305859,3.95587059 Z M11.952107,5.91333413 C13.0691224,6.10671299 14.0944884,6.48912061 14.968021,7.02166074 C15.3089518,7.23010796 15.4132217,7.67044178 15.2009143,8.00517385 C14.988607,8.33990593 14.5401189,8.44228005 14.199188,8.23383284 C13.4879994,7.80026235 12.6394982,7.47531068 11.7007741,7.31279778 C11.0944071,7.20782291 10.5015968,7.17869048 9.93436379,7.21742881 C9.67559883,7.2344239 9.42725818,7.11457702 9.28290321,6.90304003 C9.13854824,6.69150304 9.12011378,6.42041911 9.23454494,6.19191806 C9.3489761,5.963417 9.578885,5.81221971 9.83765434,5.79528917 C10.5222449,5.7485375 11.2300486,5.78833064 11.952107,5.91333413 L11.952107,5.91333413 Z M6.03075048,7.92297586 C6.56365947,7.92297586 6.99566276,8.34713638 6.99566276,8.87034428 C6.99566276,9.39357586 6.56365947,9.8177127 6.03075048,9.8177127 C5.49784631,9.8177127 5.0658382,9.39357586 5.0658382,8.87034428 C5.0658382,8.34713638 5.49784631,7.92297586 6.03075048,7.92297586 Z" id="Shape" stroke="#111111" stroke-width="0.2" fill="#000000" fill-rule="nonzero"></path>
    </g>
</svg>
