<?xml version="1.0" encoding="UTF-8"?>
<svg width="22px" height="22px" viewBox="0 0 22 22" version="1.1" xmlns="http://www.w3.org/2000/svg" xmlns:xlink="http://www.w3.org/1999/xlink">
    <!-- Generator: Sketch 55.1 (78136) - https://sketchapp.com -->
    <title>uEA64-paper</title>
    <desc>Created with Sketch.</desc>
    <g id="uEA64-paper" stroke="none" stroke-width="1" fill="none" fill-rule="evenodd">
        <path d="M19,7.94 C18.9895837,7.8481349 18.9694716,7.75763058 18.94,7.67 L18.94,7.58 C18.8919189,7.47717975 18.8277838,7.38266483 18.75,7.3 L12.75,1.3 C12.6673352,1.22221621 12.5728202,1.15808108 12.47,1.11 L12.38,1.11 L12.06,1 L6,1 C4.34314575,1 3,2.34314575 3,4 L3,18 C3,19.6568542 4.34314575,21 6,21 L16,21 C17.6568542,21 19,19.6568542 19,18 L19,8 C19,8 19,8 19,7.94 Z M13,4.41 L15.59,7 L13,7 L13,4.41 Z M17,18 C17,18.5522847 16.5522847,19 16,19 L6,19 C5.44771525,19 5,18.5522847 5,18 L5,4 C5,3.44771525 5.44771525,3 6,3 L11,3 L11,8 C11,8.55228475 11.4477153,9 12,9 L17,9 L17,18 Z" id="Shape" fill="#000000" fill-rule="nonzero"></path>
    </g>
</svg>
