<?xml version="1.0" encoding="UTF-8"?>
<svg width="22px" height="22px" viewBox="0 0 22 22" version="1.1" xmlns="http://www.w3.org/2000/svg" xmlns:xlink="http://www.w3.org/1999/xlink">
    <!-- Generator: Sketch 55.1 (78136) - https://sketchapp.com -->
    <title>uEA63-office</title>
    <desc>Created with Sketch.</desc>
    <g id="uEA63-office" stroke="none" stroke-width="1" fill="none" fill-rule="evenodd">
        <path d="M13,7 L14,7 C14.5522847,7 15,6.55228475 15,6 C15,5.44771525 14.5522847,5 14,5 L13,5 C12.4477153,5 12,5.44771525 12,6 C12,6.55228475 12.4477153,7 13,7 Z M13,11 L14,11 C14.5522847,11 15,10.5522847 15,10 C15,9.44771525 14.5522847,9 14,9 L13,9 C12.4477153,9 12,9.44771525 12,10 C12,10.5522847 12.4477153,11 13,11 Z M8,7 L9,7 C9.55228475,7 10,6.55228475 10,6 C10,5.44771525 9.55228475,5 9,5 L8,5 C7.44771525,5 7,5.44771525 7,6 C7,6.55228475 7.44771525,7 8,7 Z M8,11 L9,11 C9.55228475,11 10,10.5522847 10,10 C10,9.44771525 9.55228475,9 9,9 L8,9 C7.44771525,9 7,9.44771525 7,10 C7,10.5522847 7.44771525,11 8,11 Z M20,19 L19,19 L19,2 C19,1.44771525 18.5522847,1 18,1 L4,1 C3.44771525,1 3,1.44771525 3,2 L3,19 L2,19 C1.44771525,19 1,19.4477153 1,20 C1,20.5522847 1.44771525,21 2,21 L20,21 C20.5522847,21 21,20.5522847 21,20 C21,19.4477153 20.5522847,19 20,19 Z M12,19 L10,19 L10,15 L12,15 L12,19 Z M17,19 L14,19 L14,14 C14,13.4477153 13.5522847,13 13,13 L9,13 C8.44771525,13 8,13.4477153 8,14 L8,19 L5,19 L5,3 L17,3 L17,19 Z" id="Shape" fill="#000000" fill-rule="nonzero"></path>
    </g>
</svg>
