<?xml version="1.0" encoding="UTF-8"?>
<svg width="22px" height="22px" viewBox="0 0 22 22" version="1.1" xmlns="http://www.w3.org/2000/svg" xmlns:xlink="http://www.w3.org/1999/xlink">
    <!-- Generator: Sketch 55.1 (78136) - https://sketchapp.com -->
    <title>uEA61-time-filled</title>
    <desc>Created with Sketch.</desc>
    <g id="uEA61-time-filled" stroke="none" stroke-width="1" fill="none" fill-rule="evenodd">
        <path d="M10.9999,1 C16.522592,1 21,5.47702985 21,10.9997333 C21,16.5224368 16.5225254,21 10.9998333,21 C5.47714129,21 1,16.5222368 1,10.9997333 C1,5.47722985 5.47714129,1 10.9999,1 Z M11.8154448,12.2225415 C11.8149722,12.2318439 11.8148736,12.2337852 11.814828,12.2337444 C11.8157327,12.2282037 11.8157544,12.2277723 11.8165115,12.2099414 L11.8165115,5.149961 C11.8165115,4.69898925 11.450875,4.33335639 10.9999,4.33335639 C10.548925,4.33335639 10.1832885,4.69898925 10.1832885,5.149961 L10.1832885,10.9218521 L7.51382363,9.66299919 C7.10596408,9.47071997 6.6192516,9.64557536 6.42690589,10.0533316 C6.23458028,10.4612814 6.40935558,10.9479645 6.81726152,11.1402656 L10.651636,12.9488669 C10.6659903,12.9545768 10.6696429,12.9560297 10.6731081,12.9570496 C10.7100238,12.9728893 10.7443247,12.9840126 10.7874081,12.9957111 L10.7945161,12.9981029 L10.7973387,12.9990767 C10.8094249,13.00323 10.8094249,13.00323 10.8291542,13.0082807 C10.8721666,13.01744 10.9153909,13.0218044 10.9667066,13.0239392 C10.9770793,13.0256995 10.9770793,13.0256995 10.9994333,13.0268793 C11.0463728,13.0268793 11.0936174,13.021812 11.1459373,13.0122372 C11.1669972,13.0081943 11.1669972,13.0081943 11.1868471,13.0035675 C11.2228439,12.9951938 11.2591404,12.9838769 11.3006363,12.968051 C11.3094492,12.9651565 11.3094492,12.9651565 11.3253381,12.9587056 C11.3661854,12.9410112 11.4070298,12.9187864 11.4466299,12.8928666 L11.4693101,12.8767097 L11.475257,12.8723246 C11.5050285,12.851118 11.5338271,12.8272809 11.5612399,12.8011396 L11.5670531,12.7958021 L11.5868878,12.7765922 C11.6201804,12.7418613 11.6479375,12.7085887 11.672127,12.6733385 L11.6768833,12.667029 C11.7013091,12.6306282 11.7216515,12.5950441 11.7389536,12.5581434 C11.7446004,12.5440001 11.7456379,12.5414015 11.7466537,12.5380614 C11.7557125,12.5168825 11.7617565,12.4992213 11.7709602,12.4700976 L11.7744418,12.459138 L11.7790112,12.4454931 L11.7842575,12.4298754 C11.7902992,12.4110441 11.7902992,12.4110441 11.7960963,12.387731 C11.8015561,12.3591632 11.8015561,12.3591632 11.8044799,12.3328732 L11.8069064,12.3129986 C11.8124428,12.2740313 11.8148725,12.2519959 11.8154448,12.2225415 Z" id="Combined-Shape" fill="#111111" fill-rule="nonzero"></path>
    </g>
</svg>
