<?xml version="1.0" encoding="UTF-8"?>
<svg width="22px" height="22px" viewBox="0 0 22 22" version="1.1" xmlns="http://www.w3.org/2000/svg" xmlns:xlink="http://www.w3.org/1999/xlink">
    <!-- Generator: Sketch 55.1 (78136) - https://sketchapp.com -->
    <title>uEA73-sending</title>
    <desc>Created with Sketch.</desc>
    <g id="uEA73-sending" stroke="none" stroke-width="1" fill="none" fill-rule="evenodd">
        <path d="M11,21 C5.4771525,21 1,16.5228475 1,11 C1,5.4771525 5.4771525,1 11,1 C16.5228475,1 21,5.4771525 21,11 C21,16.5228475 16.5228475,21 11,21 Z M16.7013736,9.43794325 L8.53239258,5.35345275 C7.871893,5.02471343 7.07618136,5.14539233 6.5428555,5.65518911 C6.00952963,6.16498589 5.85309497,6.95444685 6.15171811,7.62909746 L7.55211486,10.7624852 C7.6163022,10.9155167 7.6163022,11.0879226 7.55211486,11.2409541 L6.15171811,14.3743418 C5.91070312,14.9157819 5.96001713,15.542403 6.28276135,16.0394762 C6.60550558,16.5365494 7.15784463,16.8365619 7.7505044,16.8367061 C8.02371654,16.8339796 8.29286008,16.7701826 8.53822757,16.6499865 L16.7072086,12.565496 C17.2981491,12.2682212 17.671041,11.6632202 17.671041,11.0017196 C17.671041,10.340219 17.2981491,9.73521808 16.7072086,9.43794325 L16.7013736,9.43794325 Z M16.1820598,11.5210334 L8.01307879,15.6055239 C7.79340168,15.7110032 7.53130854,15.6688566 7.35577503,15.4998244 C7.18024152,15.3307921 7.12823811,15.0704754 7.22535562,14.8469757 L8.61991738,11.713588 C8.63797036,11.6717462 8.65355701,11.6288829 8.66659727,11.5852183 L12.6869029,11.5852183 C13.0091603,11.5852183 13.2704016,11.323977 13.2704016,11.0017196 C13.2704016,10.6794622 13.0091603,10.418221 12.6869029,10.418221 L8.66659727,10.418221 C8.65355701,10.3745564 8.63797036,10.3316931 8.61991738,10.2898513 L7.22535562,7.15646356 C7.12823811,6.93296387 7.18024152,6.67264714 7.35577503,6.50361487 C7.53130854,6.33458261 7.79340168,6.29243599 8.01307879,6.39791532 L16.1820598,10.4824058 C16.3769286,10.5822401 16.4995061,10.7827659 16.4995061,11.0017196 C16.4995061,11.2206734 16.3769286,11.4211991 16.1820598,11.5210334 Z" id="Combined-Shape" fill="#111111" transform="translate(11.000000, 11.000000) rotate(-45.000000) translate(-11.000000, -11.000000) "></path>
    </g>
</svg>
