<?xml version="1.0" encoding="UTF-8"?>
<svg width="22px" height="22px" viewBox="0 0 22 22" version="1.1" xmlns="http://www.w3.org/2000/svg" xmlns:xlink="http://www.w3.org/1999/xlink">
    <!-- Generator: Sketch 55.1 (78136) - https://sketchapp.com -->
    <title>uEA72-money</title>
    <desc>Created with Sketch.</desc>
    <g id="uEA72-money" stroke="none" stroke-width="1" fill="none" fill-rule="evenodd">
        <path d="M10.9999,1 C16.522592,1 21,5.47702985 21,10.9997333 C21,16.5224368 16.5225254,21 10.9998333,21 C5.47714129,21 1,16.5222368 1,10.9997333 C1,5.47722985 5.47714129,1 10.9999,1 Z M11.4916667,7.39166667 C12.3588917,7.41380335 13.1662062,7.83903004 13.675,8.54166667 C13.9536877,8.90713613 14.4756545,8.97797448 14.8416667,8.7 C15.0183453,8.56476578 15.133608,8.36449438 15.1617828,8.14379142 C15.1899577,7.92308847 15.1287047,7.70028315 14.9916667,7.525 C14.1698621,6.41164194 12.8753188,5.74587681 11.4916667,5.725 C9.53652884,5.78189577 7.82685873,7.05831614 7.21666667,8.91666667 L6,8.91666667 C5.53976271,8.91666667 5.16666667,9.28976271 5.16666667,9.75 C5.16666667,10.2102373 5.53976271,10.5833333 6,10.5833333 L6.83333333,10.5833333 C6.83333333,10.725 6.83333333,10.8583333 6.83333333,11 C6.83333333,11.1416667 6.83333333,11.275 6.83333333,11.4166667 L6,11.4166667 C5.53976271,11.4166667 5.16666667,11.7897627 5.16666667,12.25 C5.16666667,12.7102373 5.53976271,13.0833333 6,13.0833333 L7.21666667,13.0833333 C7.82685873,14.9416839 9.53652884,16.2181042 11.4916667,16.275 C12.8753188,16.2541232 14.1698621,15.5883581 14.9916667,14.475 C15.2368026,14.2471603 15.3218556,13.8947752 15.2076389,13.5802008 C15.0934222,13.2656263 14.8020967,13.0498979 14.4678862,13.0324092 C14.1336757,13.0149204 13.8214254,13.1990646 13.675,13.5 C13.1662062,14.2026366 12.3588917,14.6278633 11.4916667,14.65 C10.4560239,14.6090886 9.52423138,14.0091674 9.05833333,13.0833333 L11,13.0833333 C11.4602373,13.0833333 11.8333333,12.7102373 11.8333333,12.25 C11.8333333,11.7897627 11.4602373,11.4166667 11,11.4166667 L8.54166667,11.4166667 C8.51953326,11.2787262 8.50561982,11.1395919 8.5,11 C8.50561982,10.8604081 8.51953326,10.7212738 8.54166667,10.5833333 L11,10.5833333 C11.4602373,10.5833333 11.8333333,10.2102373 11.8333333,9.75 C11.8333333,9.28976271 11.4602373,8.91666667 11,8.91666667 L9.05833333,8.91666667 C9.53536224,8.006972 10.4650058,7.42435293 11.4916667,7.39166667 Z" id="Combined-Shape" fill="#111111" fill-rule="nonzero"></path>
    </g>
</svg>
