<?xml version="1.0" encoding="UTF-8"?>
<svg width="22px" height="22px" viewBox="0 0 22 22" version="1.1" xmlns="http://www.w3.org/2000/svg" xmlns:xlink="http://www.w3.org/1999/xlink">
    <!-- Generator: Sketch 55.1 (78136) - https://sketchapp.com -->
    <title>uEA70-operator-plus-slim-filled</title>
    <desc>Created with Sketch.</desc>
    <g id="uEA70-operator-plus-slim-filled" stroke="none" stroke-width="1" fill="none" fill-rule="evenodd">
        <path d="M11,1 C13.6521649,1 16.195704,2.0535684 18.0710678,3.92893219 C19.9464316,5.80429597 21,8.3478351 21,11 C21,16.5228475 16.5228475,21 11,21 C5.4771525,21 1,16.5228475 1,11 C1,5.4771525 5.4771525,1 11,1 Z M15,10 L12,10 L12,7 C12,6.44771525 11.5522847,6 11,6 C10.4477153,6 10,6.44771525 10,7 L10,10 L7,10 C6.44771525,10 6,10.4477153 6,11 C6,11.5522847 6.44771525,12 7,12 L10,12 L10,15 C10,15.5522847 10.4477153,16 11,16 C11.5522847,16 12,15.5522847 12,15 L12,12 L15,12 C15.5522847,12 16,11.5522847 16,11 C16,10.4477153 15.5522847,10 15,10 Z" id="Combined-Shape" fill="#000000" fill-rule="nonzero"></path>
    </g>
</svg>
