<?xml version="1.0" encoding="UTF-8"?>
<svg width="22px" height="22px" viewBox="0 0 22 22" version="1.1" xmlns="http://www.w3.org/2000/svg" xmlns:xlink="http://www.w3.org/1999/xlink">
    <!-- Generator: Sketch 55.1 (78136) - https://sketchapp.com -->
    <title>uEA71-edit-filled</title>
    <desc>Created with Sketch.</desc>
    <g id="uEA71-edit-filled" stroke="none" stroke-width="1" fill="none" fill-rule="evenodd">
        <path d="M11,1 C16.5228475,1 21,5.4771525 21,11 C21,16.5228475 16.5228475,21 11,21 C5.4771525,21 1,16.5228475 1,11 C1,5.4771525 5.4771525,1 11,1 Z M17.6666771,7.60833333 C17.6676271,7.44220647 17.6024082,7.2825326 17.4854167,7.16458333 L14.8354167,4.51458333 C14.7174674,4.39759176 14.5577935,4.33237286 14.3916667,4.33332287 C14.2255398,4.33237286 14.0658659,4.39759176 13.9479167,4.51458333 L12.1791667,6.28333333 L5.34791667,13.1145833 C5.2309251,13.2325326 5.16570619,13.3922065 5.16665621,13.5583333 L5.16665621,16.2083333 C5.16665621,16.5535113 5.4464887,16.8333333 5.79166667,16.8333333 L8.44166667,16.8333333 C8.61853001,16.8429536 8.79116951,16.777078 8.91666667,16.6520833 L15.7104167,9.82083333 L17.4854167,8.08333333 C17.5424647,8.02275896 17.5889434,7.95304088 17.6229167,7.87708333 C17.6289384,7.82726464 17.6289384,7.77690203 17.6229167,7.72708333 C17.6258407,7.69798995 17.6258407,7.66867672 17.6229167,7.63958333 L17.6666771,7.60833333 Z M8.18541667,15.5833333 L6.41666667,15.5833333 L6.41666667,13.8145833 L12.6229167,7.60833333 L14.3916667,9.37708333 L8.18541667,15.5833333 Z M15.2729167,8.49583333 L13.5041667,6.72708333 L14.3916667,5.84583333 L16.1541667,7.60833333 L15.2729167,8.49583333 Z" id="Combined-Shape" fill="#111111"></path>
    </g>
</svg>
