<?xml version="1.0" encoding="UTF-8"?>
<svg width="24px" height="24px" viewBox="0 0 24 24" version="1.1" xmlns="http://www.w3.org/2000/svg" xmlns:xlink="http://www.w3.org/1999/xlink">
    <!-- Generator: Sketch 55.1 (78136) - https://sketchapp.com -->
    <title>Artboard Copy 104</title>
    <desc>Created with Sketch.</desc>
    <g id="Artboard-Copy-104" stroke="none" stroke-width="1" fill="none" fill-rule="evenodd">
        <path d="M17.2457983,13.5357983 L12.9557983,9.29579832 C12.7680317,9.10648567 12.5124359,9 12.2457983,9 C11.9791608,9 11.7235649,9.10648567 11.5357983,9.29579832 L7.29579832,13.5357983 C7.10648567,13.7235649 7,13.9791608 7,14.2457983 C7,14.5124359 7.10648567,14.7680317 7.29579832,14.9557983 C7.68583578,15.3435219 8.31576087,15.3435219 8.70579832,14.9557983 L12.2457983,11.4157983 L15.7857983,14.9557983 C15.972059,15.1405425 16.2234584,15.2446937 16.4857983,15.2457983 C16.7516013,15.2473351 17.0070795,15.1429848 17.1957983,14.9557983 C17.3918734,14.7747853 17.5074666,14.5229119 17.5168571,14.2562229 C17.5262475,13.989534 17.4286562,13.7301541 17.2457983,13.5357983 Z" id="Path" fill="#000000" fill-rule="nonzero" transform="translate(12.258739, 12.123296) rotate(90.000000) translate(-12.258739, -12.123296) "></path>
    </g>
</svg>