<?xml version="1.0" encoding="UTF-8"?>
<svg width="22px" height="22px" viewBox="0 0 22 22" version="1.1" xmlns="http://www.w3.org/2000/svg" xmlns:xlink="http://www.w3.org/1999/xlink">
    <!-- Generator: Sketch 55.1 (78136) - https://sketchapp.com -->
    <title>Artboard Copy 67</title>
    <desc>Created with Sketch.</desc>
    <g id="Artboard-Copy-67" stroke="none" stroke-width="1" fill="none" fill-rule="evenodd">
        <path d="M10.0740916,5.12409162 C10.3772581,5.04231771 10.6900975,5.00195135 11.0040916,5.00409162 C13.2132306,5.00409162 15.0040916,6.79495262 15.0040916,9.00409162 L15.0040916,10.3440916 C15.0040916,10.8963764 15.4518069,11.3440916 16.0040916,11.3440916 C16.5563764,11.3440916 17.0040916,10.8963764 17.0040916,10.3440916 L17.0040916,9.00409162 C17.0011269,6.0785709 14.8886957,3.58167715 12.0040916,3.09409162 L12.0040916,2.00409162 C12.0040916,1.45180687 11.5563764,1.00409162 11.0040916,1.00409162 C10.4518069,1.00409162 10.0040916,1.45180687 10.0040916,2.00409162 L10.0040916,3.10409162 L9.55409162,3.18409162 C9.01837542,3.32768566 8.70049761,3.87837541 8.84409164,4.41409161 C8.98768567,4.94980781 9.53837542,5.26768564 10.0740916,5.12409162 Z M20.7140916,19.2940916 L2.71409162,1.29409162 C2.32196944,0.901969456 1.6862138,0.901969461 1.29409163,1.29409163 C0.901969461,1.6862138 0.901969456,2.32196944 1.29409162,2.71409162 L5.41409162,6.82409162 C5.14311976,7.51895969 5.00407736,8.25825827 5.00409162,9.00409162 L5.00409162,12.1840916 C3.80836292,12.6068399 3.00765598,13.7358367 3.00409162,15.0040916 L3.00409162,17.0040916 C3.00409162,17.5563764 3.45180687,18.0040916 4.00409162,18.0040916 L7.14409162,18.0040916 C7.61748944,19.746052 9.19895136,20.9550921 11.0040916,20.9550921 C12.8092319,20.9550921 14.3906938,19.746052 14.8640916,18.0040916 L16.5940916,18.0040916 L19.2940916,20.7140916 C19.4818582,20.9034043 19.7374541,21.0098899 20.0040916,21.0098899 C20.2707292,21.0098899 20.526325,20.9034043 20.7140916,20.7140916 C20.9034043,20.526325 21.0098899,20.2707292 21.0098899,20.0040916 C21.0098899,19.7374541 20.9034043,19.4818582 20.7140916,19.2940916 Z M7.00409162,9.00409162 C6.98883362,8.82107575 6.98883362,8.63710749 7.00409162,8.45409162 L10.5940916,12.0040916 L7.00409162,12.0040916 L7.00409162,9.00409162 Z M11.0040916,19.0040916 C10.2938695,18.9998047 9.63919621,18.6191807 9.28409162,18.0040916 L12.7240916,18.0040916 C12.368987,18.6191807 11.7143137,18.9998047 11.0040916,19.0040916 Z M5.00409162,16.0040916 L5.00409162,15.0040916 C5.00409162,14.4518069 5.45180687,14.0040916 6.00409162,14.0040916 L12.5940916,14.0040916 L14.5940916,16.0040916 L5.00409162,16.0040916 Z" id="Shape" fill="#000000" fill-rule="nonzero"></path>
    </g>
</svg>