<?xml version="1.0" encoding="UTF-8"?>
<svg width="22px" height="22px" viewBox="0 0 22 22" version="1.1" xmlns="http://www.w3.org/2000/svg" xmlns:xlink="http://www.w3.org/1999/xlink">
    <!-- Generator: Sketch 55.1 (78136) - https://sketchapp.com -->
    <title>bolt</title>
    <desc>Created with Sketch.</desc>
    <g id="bolt" stroke="none" stroke-width="1" fill="none" fill-rule="evenodd">
        <path d="M18.8776577,8.60016005 C18.7082074,8.2638804 18.3642159,8.05130135 17.9876577,8.05016005 L12.9876577,8.05016005 L12.9876577,2.05016005 C13.0097197,1.59929899 12.7269962,1.18955475 12.2976577,1.05016005 C11.8857582,0.914640885 11.4334538,1.06002447 11.1776577,1.41016005 L3.17765766,12.41016 C2.97362742,12.7050407 2.94310327,13.0865926 3.09765766,13.41016 C3.24054933,13.7815805 3.59007238,14.0329229 3.98765766,14.05016 L8.98765766,14.05016 L8.98765766,20.05016 C8.98797631,20.482734 9.26639369,20.8660622 9.67765766,21.00016 C9.77813035,21.0313013 9.88248907,21.0481334 9.98765766,21.0501634 C10.3077116,21.0509904 10.6088263,20.8985743 10.7976577,20.64016 L18.7976577,9.64016005 C19.0173304,9.33595754 19.048221,8.93438071 18.8776577,8.60016005 Z M10.9876577,16.97016 L10.9876577,13.05016 C10.9876577,12.4978753 10.5399424,12.05016 9.98765766,12.05016 L5.98765766,12.05016 L10.9876577,5.13016005 L10.9876577,9.05016005 C10.9876577,9.6024448 11.4353729,10.05016 11.9876577,10.05016 L15.9876577,10.05016 L10.9876577,16.97016 Z" id="Shape" fill="#000000" fill-rule="nonzero"></path>
    </g>
</svg>