<?xml version="1.0" encoding="UTF-8"?>
<svg width="22px" height="22px" viewBox="0 0 22 22" version="1.1" xmlns="http://www.w3.org/2000/svg" xmlns:xlink="http://www.w3.org/1999/xlink">
    <!-- Generator: Sketch 55.1 (78136) - https://sketchapp.com -->
    <title>Artboard Copy 49</title>
    <desc>Created with Sketch.</desc>
    <g id="Artboard-Copy-49" stroke="none" stroke-width="1" fill="none" fill-rule="evenodd">
        <path d="M17,9.82 C16.4477153,9.82 16,10.2677153 16,10.82 L16,18 C16,18.5522847 15.5522847,19 15,19 L4,19 C3.44771525,19 3,18.5522847 3,18 L3,7 C3,6.44771525 3.44771525,6 4,6 L11.18,6 C11.7322847,6 12.18,5.55228475 12.18,5 C12.18,4.44771525 11.7322847,4 11.18,4 L4,4 C2.34314575,4 1,5.34314575 1,7 L1,18 C1,19.6568542 2.34314575,21 4,21 L15,21 C16.6568542,21 18,19.6568542 18,18 L18,10.82 C18,10.2677153 17.5522847,9.82 17,9.82 Z M20.92,1.62 C20.8185251,1.37565068 20.6243493,1.18147492 20.38,1.08 C20.2597777,1.02875903 20.1306773,1.00157999 20,1 L14,1 C13.4477153,1 13,1.44771525 13,2 C13,2.55228475 13.4477153,3 14,3 L17.59,3 L7.29,13.29 C7.10068735,13.4777666 6.99420168,13.7333625 6.99420168,14 C6.99420168,14.2666375 7.10068735,14.5222334 7.29,14.71 C7.4777666,14.8993127 7.73336246,15.0057983 8,15.0057983 C8.26663754,15.0057983 8.5222334,14.8993127 8.71,14.71 L19,4.41 L19,8 C19,8.55228475 19.4477153,9 20,9 C20.5522847,9 21,8.55228475 21,8 L21,2 C20.99842,1.86932274 20.971241,1.74022231 20.92,1.62 Z" id="Shape" fill="#000000" fill-rule="nonzero"></path>
    </g>
</svg>