<?xml version="1.0" encoding="UTF-8"?>
<svg width="24px" height="24px" viewBox="0 0 24 24" version="1.1" xmlns="http://www.w3.org/2000/svg" xmlns:xlink="http://www.w3.org/1999/xlink">
    <!-- Generator: Sketch 55.1 (78136) - https://sketchapp.com -->
    <title>filter</title>
    <desc>Created with Sketch.</desc>
    <g id="filter" stroke="none" stroke-width="1" fill="none" fill-rule="evenodd">
        <path d="M19,2 L5,2 C3.34314593,2 2,3.34314575 2,5 L2,6.17 C2,6.58294291 2.0849664,6.991469 2.25000018,7.37 L2.25000018,7.43 C2.39127977,7.75097124 2.59139242,8.04266087 2.84000018,8.29 L9,14.41 L9,21 C8.99930879,21.3455015 9.17701473,21.6668845 9.47000018,21.85 C9.62914143,21.948629 9.81277501,22.0006008 10,22 C10.1565424,21.9990614 10.3106779,21.9613839 10.4500002,21.89 L14.4500002,19.89 C14.7862798,19.7205498 14.9988589,19.3765582 15,19 L15,14.41 L21.1200002,8.29 C21.3686079,8.04266087 21.5687206,7.75097124 21.7100002,7.43 L21.7100002,7.37 C21.8888145,6.99443065 21.9875719,6.5857793 22,6.17 L22,5 C22,3.34314575 20.6568544,2 19,2 Z M13.2900002,13.29 C13.1028137,13.4787188 12.9984634,13.734197 13.0000002,14 L13.0000002,18.38 L11.0000002,19.38 L11.0000002,14 C11.0015369,13.734197 10.8971867,13.4787188 10.7100002,13.29 L5.41000018,8 L18.5900002,8 L13.2900002,13.29 Z M20.0000002,6 L4.00000018,6 L4.00000018,5 C4.00000018,4.44771525 4.44771543,4 5.00000018,4 L19.0000002,4 C19.5522849,4 20.0000002,4.44771525 20.0000002,5 L20.0000002,6 Z" id="Shape" fill="#000000" fill-rule="nonzero"></path>
    </g>
</svg>