<?xml version="1.0" encoding="UTF-8"?>
<svg width="22px" height="22px" viewBox="0 0 22 22" version="1.1" xmlns="http://www.w3.org/2000/svg" xmlns:xlink="http://www.w3.org/1999/xlink">
    <!-- Generator: Sketch 55.1 (78136) - https://sketchapp.com -->
    <title>Artboard Copy 17</title>
    <desc>Created with Sketch.</desc>
    <g id="Artboard-Copy-17" stroke="none" stroke-width="1" fill="none" fill-rule="evenodd">
        <path d="M21.5828841,16.447992 C22.1322095,17.3743741 22.1394217,18.5249571 21.6017527,19.4581528 C21.0640836,20.3913485 20.0650624,20.9621812 18.9881086,20.9517134 L2.96213855,20.9517134 C1.89406844,20.9442758 0.911436117,20.3663911 0.385939863,19.436509 C-0.139556392,18.506627 -0.127681996,17.3667252 0.417071347,16.447992 L8.37040635,2.52965575 C8.8971507,1.58528784 9.89378626,1 10.9751236,1 C12.0564609,1 13.0530964,1.58528784 13.5798408,2.52965575 L21.5828841,16.447992 Z M10.9751236,14.9865667 C10.4260604,14.9865667 9.98095669,15.4316704 9.98095669,15.9807336 C9.98095669,16.5297968 10.4260604,16.9749005 10.9751236,16.9749005 C11.5241868,16.9749005 11.9692904,16.5297968 11.9692904,15.9807336 C11.9692904,15.4316704 11.5241868,14.9865667 10.9751236,14.9865667 Z M10.9751236,7.0332317 C10.4260604,7.0332317 9.98095669,7.47833537 9.98095669,8.02739857 L9.98095669,12.0040661 C9.98095669,12.5531293 10.4260604,12.998233 10.9751236,12.998233 C11.5241868,12.998233 11.9692904,12.5531293 11.9692904,12.0040661 L11.9692904,8.02739857 C11.9692904,7.47833537 11.5241868,7.0332317 10.9751236,7.0332317 Z" id="Combined-Shape" fill="#000000" fill-rule="nonzero"></path>
    </g>
</svg>