<?xml version="1.0" encoding="UTF-8"?>
<svg width="22px" height="22px" viewBox="0 0 22 22" version="1.1" xmlns="http://www.w3.org/2000/svg" xmlns:xlink="http://www.w3.org/1999/xlink">
    <!-- Generator: Sketch 55.1 (78136) - https://sketchapp.com -->
    <title>eye</title>
    <desc>Created with Sketch.</desc>
    <g id="eye" stroke="none" stroke-width="1" fill="none" fill-rule="evenodd">
        <path d="M20.9234849,10.6 C18.9034849,5.91 15.1034849,3 11.0034849,3 C6.90348486,3 3.10348486,5.91 1.08348486,10.6 C0.972171713,10.8550505 0.972171713,11.1449495 1.08348486,11.4 C3.10348486,16.09 6.90348486,19 11.0034849,19 C15.1034849,19 18.9034849,16.09 20.9234849,11.4 C21.034798,11.1449495 21.034798,10.8550505 20.9234849,10.6 Z M11.0034849,17 C7.83348486,17 4.83348486,14.71 3.10348486,11 C4.83348486,7.29 7.83348486,5 11.0034849,5 C14.1734849,5 17.1734849,7.29 18.9034849,11 C17.1734849,14.71 14.1734849,17 11.0034849,17 Z M11.0034849,7 C8.79434586,7 7.00348486,8.790861 7.00348486,11 C7.00348486,13.209139 8.79434586,15 11.0034849,15 C13.2126239,15 15.0034849,13.209139 15.0034849,11 C15.0034849,9.93913404 14.5820575,8.92171839 13.831912,8.17157288 C13.0817665,7.42142736 12.0643508,7 11.0034849,7 Z M11.0034849,13 C9.89891536,13 9.00348486,12.1045695 9.00348486,11 C9.00348486,9.8954305 9.89891536,9 11.0034849,9 C12.1080544,9 13.0034849,9.8954305 13.0034849,11 C13.0034849,12.1045695 12.1080544,13 11.0034849,13 Z" id="Shape" fill="#000000" fill-rule="nonzero"></path>
    </g>
</svg>