<?xml version="1.0" encoding="UTF-8"?>
<svg width="22px" height="22px" viewBox="0 0 22 22" version="1.1" xmlns="http://www.w3.org/2000/svg" xmlns:xlink="http://www.w3.org/1999/xlink">
    <!-- Generator: Sketch 55.1 (78136) - https://sketchapp.com -->
    <title>Artboard Copy 41</title>
    <desc>Created with Sketch.</desc>
    <g id="Artboard-Copy-41" stroke="none" stroke-width="1" fill="none" fill-rule="evenodd">
        <path d="M11,-8.8817842e-16 C4.92486775,-8.8817842e-16 -8.8817842e-16,4.92486775 -8.8817842e-16,11 C-8.8817842e-16,17.0751322 4.92486775,22 11,22 C17.0751322,22 22,17.0751322 22,11 C22,8.08261861 20.8410748,5.28472557 18.7781746,3.22182541 C16.7152744,1.15892524 13.9173814,-8.8817842e-16 11,-8.8817842e-16 Z M11,20 C6.02943725,20 2,15.9705627 2,11 C2,6.02943725 6.02943725,2 11,2 C15.9705627,2 20,6.02943725 20,11 C20,15.9705627 15.9705627,20 11,20 Z M11.59,6.67 C12.6306701,6.69656402 13.5994474,7.20683605 14.21,8.05 C14.5444252,8.48856336 15.1707853,8.57356938 15.61,8.24 C15.8220143,8.07771894 15.9603296,7.83739326 15.9941394,7.57254971 C16.0279492,7.30770616 15.9544457,7.04033979 15.79,6.83 C14.8038345,5.49397033 13.2503825,4.69505217 11.59,4.67 C9.24383461,4.73827492 7.19223048,6.26997937 6.46,8.5 L5,8.5 C4.44771525,8.5 4,8.94771525 4,9.5 C4,10.0522847 4.44771525,10.5 5,10.5 L6,10.5 C6,10.67 6,10.83 6,11 C6,11.17 6,11.33 6,11.5 L5,11.5 C4.44771525,11.5 4,11.9477153 4,12.5 C4,13.0522847 4.44771525,13.5 5,13.5 L6.46,13.5 C7.19223048,15.7300206 9.24383461,17.2617251 11.59,17.33 C13.2503825,17.3049478 14.8038345,16.5060297 15.79,15.17 C16.0841631,14.8965924 16.1862267,14.4737303 16.0491667,14.0962409 C15.9121067,13.7187516 15.5625161,13.4598775 15.1614634,13.438891 C14.7604108,13.4179045 14.3857105,13.6388775 14.21,14 C13.5994474,14.8431639 12.6306701,15.353436 11.59,15.38 C10.3472287,15.3309063 9.22907765,14.6110009 8.67,13.5 L11,13.5 C11.5522847,13.5 12,13.0522847 12,12.5 C12,11.9477153 11.5522847,11.5 11,11.5 L8.05,11.5 C8.02343991,11.3344714 8.00674379,11.1675102 8,11 C8.00674379,10.8324898 8.02343991,10.6655286 8.05,10.5 L11,10.5 C11.5522847,10.5 12,10.0522847 12,9.5 C12,8.94771525 11.5522847,8.5 11,8.5 L8.67,8.5 C9.24243469,7.4083664 10.3580069,6.70922352 11.59,6.67 Z" id="Shape" fill="#000000" fill-rule="nonzero"></path>
    </g>
</svg>