<?xml version="1.0" encoding="UTF-8"?>
<svg width="24px" height="24px" viewBox="0 0 24 24" version="1.1" xmlns="http://www.w3.org/2000/svg" xmlns:xlink="http://www.w3.org/1999/xlink">
    <!-- Generator: Sketch 55.1 (78136) - https://sketchapp.com -->
    <title>Artboard Copy 109</title>
    <desc>Created with Sketch.</desc>
    <g id="Artboard-Copy-109" stroke="none" stroke-width="1" fill="none" fill-rule="evenodd">
        <path d="M17.7019526,9.78501351 L12.7060795,4.78501351 C12.6110543,4.69397288 12.4990019,4.6226079 12.3763519,4.57501351 C12.1330915,4.4749955 11.8602396,4.4749955 11.6169792,4.57501351 C11.4943292,4.6226079 11.3822768,4.69397288 11.2872516,4.78501351 L6.2913785,9.78501351 C6.0379293,10.0386721 5.93894611,10.4083875 6.03171496,10.7548916 C6.12448381,11.1013956 6.39491089,11.3720461 6.74112894,11.4648916 C7.08734699,11.557737 7.45675725,11.4586721 7.71020645,11.2050135 L10.9974909,7.90501351 L10.9974909,18.4950135 C10.9974909,19.0472983 11.4448366,19.4950135 11.9966655,19.4950135 C12.5484944,19.4950135 12.9958402,19.0472983 12.9958402,18.4950135 L12.9958402,7.90501351 L16.2831246,11.2050135 C16.4707362,11.3943262 16.7261211,11.5008118 16.9925386,11.5008118 C17.2589561,11.5008118 17.514341,11.3943262 17.7019526,11.2050135 C17.891109,11.0172469 17.9975068,10.761651 17.9975068,10.4950135 C17.9975068,10.228376 17.891109,9.97278011 17.7019526,9.78501351 Z" id="Path" fill="#000000" fill-rule="nonzero"></path>
    </g>
</svg>