<?xml version="1.0" encoding="UTF-8"?>
<svg width="22px" height="22px" viewBox="0 0 22 22" version="1.1" xmlns="http://www.w3.org/2000/svg" xmlns:xlink="http://www.w3.org/1999/xlink">
    <!-- Generator: Sketch 55.1 (78136) - https://sketchapp.com -->
    <title>Artboard Copy 16</title>
    <desc>Created with Sketch.</desc>
    <g id="Artboard-Copy-16" stroke="none" stroke-width="1" fill="none" fill-rule="evenodd">
        <path d="M11,1 C13.6521649,1 16.195704,2.0535684 18.0710678,3.92893219 C19.9464316,5.80429597 21,8.3478351 21,11 C21,16.5228475 16.5228475,21 11,21 C5.4771525,21 1,16.5228475 1,11 C1,5.4771525 5.4771525,1 11,1 Z M11,10 C10.4477153,10 10,10.4477153 10,11 L10,15 C10,15.5522847 10.4477153,16 11,16 C11.5522847,16 12,15.5522847 12,15 L12,11 C12,10.4477153 11.5522847,10 11,10 Z M11.3800002,6.08000001 C11.1365388,5.97998198 10.8634615,5.97998198 10.6200001,6.08000001 C10.4972487,6.1275944 10.3851038,6.19895939 10.29,6.29000003 C10.2016691,6.38720099 10.1306419,6.49881516 10.08,6.62000007 C10.0240186,6.73867947 9.99661989,6.86882357 10,7.00000012 C9.99846324,7.26580313 10.1028135,7.52128135 10.29,7.7100002 C10.387201,7.79833115 10.4988152,7.86935835 10.6200001,7.92000022 C10.9276386,8.04638813 11.2779821,8.01155624 11.5547128,7.82706912 C11.8314435,7.642582 11.9983435,7.33258488 12.0000002,7.00000012 C11.9963167,6.7352331 11.8927339,6.48163384 11.7100002,6.29000003 C11.6148965,6.19895939 11.5027515,6.1275944 11.3800002,6.08000001 Z" id="Combined-Shape" fill="#000000" fill-rule="nonzero"></path>
    </g>
</svg>