<?xml version="1.0" encoding="UTF-8"?>
<svg width="22px" height="22px" viewBox="0 0 22 22" version="1.1" xmlns="http://www.w3.org/2000/svg" xmlns:xlink="http://www.w3.org/1999/xlink">
    <!-- Generator: Sketch 55.1 (78136) - https://sketchapp.com -->
    <title>Artboard Copy 65</title>
    <desc>Created with Sketch.</desc>
    <g id="Artboard-Copy-65" stroke="none" stroke-width="1" fill="none" fill-rule="evenodd">
        <path d="M17.9990246,1 L5.26902464,1 C3.82082488,1.00048267 2.57970054,2.03545415 2.31902464,3.46 L1.04902464,10.46 C0.888826438,11.3354532 1.12560305,12.2368443 1.69536061,12.9205534 C2.26511816,13.6042624 3.10903494,13.9997034 3.99902464,14 L8.55902464,14 L7.99902464,15.43 C7.52620111,16.7009399 7.70740564,18.1230145 8.48383869,19.2347708 C9.26027174,20.3465271 10.5329971,21.0063008 11.8890246,21.0000447 C12.2819241,20.9991802 12.6379364,20.768359 12.7990246,20.41 L15.6490246,14 L17.9990246,14 C19.6558789,14 20.9990246,12.6568542 20.9990246,11 L20.9990246,4 C20.9990246,2.34314575 19.6558789,1 17.9990246,1 Z M13.9990246,12.79 L11.2790246,18.91 C10.7165126,18.7398026 10.2493174,18.3447534 9.98800754,17.8183466 C9.72669768,17.2919398 9.69449642,16.6809584 9.89902464,16.13 L10.4290246,14.7 C10.6582466,14.0865069 10.5725806,13.3996563 10.1996915,12.8612603 C9.82680246,12.3228644 9.21394078,12.0011455 8.55902464,12 L3.99902464,12 C3.70159241,12.000483 3.41938113,11.8685401 3.22902464,11.64 C3.03398116,11.4146045 2.94965161,11.1139513 2.99902464,10.82 L4.26902464,3.82 C4.35699198,3.33890747 4.78002091,2.99202375 5.26902464,2.99986522 L13.9990246,2.99986522 L13.9990246,12.79 Z M18.9990246,11 C18.9990246,11.5522847 18.5513094,12 17.9990246,12 L15.9990246,12 L15.9990246,3 L17.9990246,3 C18.5513094,3 18.9990246,3.44771525 18.9990246,4 L18.9990246,11 Z" id="Shape" fill="#000000" fill-rule="nonzero"></path>
    </g>
</svg>