<?xml version="1.0" encoding="UTF-8"?>
<svg width="22px" height="22px" viewBox="0 0 22 22" version="1.1" xmlns="http://www.w3.org/2000/svg" xmlns:xlink="http://www.w3.org/1999/xlink">
    <!-- Generator: Sketch 55.1 (78136) - https://sketchapp.com -->
    <title>pause-circle</title>
    <desc>Created with Sketch.</desc>
    <g id="pause-circle" stroke="none" stroke-width="1" fill="none" fill-rule="evenodd">
        <path d="M9,6 C8.44771525,6 8,6.44771525 8,7 L8,15 C8,15.5522847 8.44771525,16 9,16 C9.55228475,16 10,15.5522847 10,15 L10,7 C10,6.44771525 9.55228475,6 9,6 Z M11,1 C5.4771525,1 1,5.4771525 1,11 C1,16.5228475 5.4771525,21 11,21 C16.5228475,21 21,16.5228475 21,11 C21,8.3478351 19.9464316,5.80429597 18.0710678,3.92893219 C16.195704,2.0535684 13.6521649,1 11,1 Z M11,19 C6.581722,19 3,15.418278 3,11 C3,6.581722 6.581722,3 11,3 C15.418278,3 19,6.581722 19,11 C19,13.1217319 18.1571453,15.1565632 16.6568542,16.6568542 C15.1565632,18.1571453 13.1217319,19 11,19 Z M13,6 C12.4477153,6 12,6.44771525 12,7 L12,15 C12,15.5522847 12.4477153,16 13,16 C13.5522847,16 14,15.5522847 14,15 L14,7 C14,6.44771525 13.5522847,6 13,6 Z" id="Shape" fill="#000000" fill-rule="nonzero"></path>
    </g>
</svg>