<?xml version="1.0" encoding="UTF-8"?>
<svg width="22px" height="22px" viewBox="0 0 22 22" version="1.1" xmlns="http://www.w3.org/2000/svg" xmlns:xlink="http://www.w3.org/1999/xlink">
    <!-- Generator: Sketch 55.1 (78136) - https://sketchapp.com -->
    <title>send</title>
    <desc>Created with Sketch.</desc>
    <g id="send" stroke="none" stroke-width="1" fill="none" fill-rule="evenodd">
        <path d="M19.3392788,8.31433383 L5.33927878,1.31433383 C4.20731457,0.750940381 2.84362393,0.957759871 1.92961005,1.83144962 C1.01559616,2.70513936 0.747498423,4.05811758 1.25927878,5.21433383 L3.65927878,10.5843338 L3.65927878,10.5843338 C3.76928305,10.8465992 3.76928305,11.1420684 3.65927878,11.4043338 L1.25927878,16.7743338 C0.846227275,17.7022539 0.930741633,18.7761572 1.48386069,19.6280413 C2.03697976,20.4799254 2.98357846,20.9940868 3.99927878,20.9943338 C4.46750977,20.9896612 4.92876798,20.880326 5.34927878,20.6743338 L19.3492788,13.6743338 C20.3620327,13.1648642 21.0010948,12.1280136 21.0010948,10.9943338 C21.0010948,9.8606541 20.3620327,8.82380345 19.3492788,8.31433383 L19.3392788,8.31433383 Z M18.4492788,11.8843338 L4.44927878,18.8843338 C4.07279615,19.0651043 3.62362091,18.9928734 3.32279157,18.7031859 C3.02196224,18.4134984 2.9328388,17.9673676 3.09927878,17.5843338 L5.48927878,12.2143338 C5.52021798,12.1426254 5.54693039,12.0691662 5.56927878,11.9943338 L12.4592788,11.9943338 C13.0115635,11.9943338 13.4592788,11.5466186 13.4592788,10.9943338 C13.4592788,10.4420491 13.0115635,9.99433383 12.4592788,9.99433383 L5.56927878,9.99433383 C5.54693039,9.91950144 5.52021798,9.8460423 5.48927878,9.77433383 L3.09927878,4.40433383 C2.9328388,4.02130006 3.02196224,3.57516924 3.32279157,3.28548173 C3.62362091,2.99579422 4.07279615,2.92356335 4.44927878,3.10433383 L18.4492788,10.1043338 C18.783245,10.2754298 18.9933183,10.6190909 18.9933183,10.9943338 C18.9933183,11.3695768 18.783245,11.7132379 18.4492788,11.8843338 Z" id="Shape" fill="#000000" fill-rule="nonzero"></path>
    </g>
</svg>