<?xml version="1.0" encoding="UTF-8"?>
<svg width="24px" height="24px" viewBox="0 0 24 24" version="1.1" xmlns="http://www.w3.org/2000/svg" xmlns:xlink="http://www.w3.org/1999/xlink">
    <!-- Generator: Sketch 55.1 (78136) - https://sketchapp.com -->
    <title>sorting_v2</title>
    <desc>Created with Sketch.</desc>
    <g id="sorting_v2" stroke="none" stroke-width="1" fill="none" fill-rule="evenodd">
        <path d="M9.7141145,9.71579832 L12.0041145,7.41579832 L14.2941145,9.71579832 C14.4818811,9.90511098 14.737477,10.0115966 15.0041145,10.0115966 C15.270752,10.0115966 15.5263479,9.90511098 15.7141145,9.71579832 C15.9034271,9.52803172 16.0099128,9.27243586 16.0099128,9.00579832 C16.0099128,8.73916079 15.9034271,8.48356492 15.7141145,8.29579832 L12.7141145,5.29579832 C12.5263479,5.10648567 12.270752,5 12.0041145,5 C11.737477,5 11.4818811,5.10648567 11.2941145,5.29579832 L8.2941145,8.29579832 C7.90199233,8.6879205 7.90199233,9.32367615 8.2941145,9.71579832 C8.68623667,10.1079205 9.32199233,10.1079205 9.7141145,9.71579832 L9.7141145,9.71579832 Z M14.2941145,14.2957983 L12.0041145,16.5957983 L9.7141145,14.2957983 C9.46045593,14.0421398 9.09074051,13.9430748 8.74423646,14.0359203 C8.39773241,14.1287658 8.12708194,14.3994162 8.03423646,14.7459203 C7.94139098,15.0924243 8.04045593,15.4621398 8.2941145,15.7157983 L11.2941145,18.7157983 C11.4818811,18.905111 11.737477,19.0115966 12.0041145,19.0115966 C12.270752,19.0115966 12.5263479,18.905111 12.7141145,18.7157983 L15.7141145,15.7157983 C16.1062367,15.3236762 16.1062367,14.6879205 15.7141145,14.2957983 C15.3219923,13.9036762 14.6862367,13.9036762 14.2941145,14.2957983 Z" id="Shape" fill="#000000" fill-rule="nonzero"></path>
    </g>
</svg>