<?xml version="1.0" encoding="UTF-8"?>
<svg width="24px" height="24px" viewBox="0 0 24 24" version="1.1" xmlns="http://www.w3.org/2000/svg" xmlns:xlink="http://www.w3.org/1999/xlink">
    <!-- Generator: Sketch 55.1 (78136) - https://sketchapp.com -->
    <title>sorting</title>
    <desc>Created with Sketch.</desc>
    <g id="sorting" stroke="none" stroke-width="1" fill="none" fill-rule="evenodd">
        <path d="M6.29409163,14.29 L6.00409163,14.59 L6.00409163,7 C6.00409163,6.44771525 5.55637638,6 5.00409163,6 C4.45180688,6 4.00409163,6.44771525 4.00409163,7 L4.00409163,14.59 L3.71409163,14.29 C3.32196946,13.8978778 2.6862138,13.8978778 2.29409163,14.29 C1.90196946,14.6821222 1.90196946,15.3178778 2.29409163,15.71 L4.29409163,17.71 C4.38919534,17.8010406 4.50134031,17.8724056 4.62409163,17.92 C4.86613151,18.0269768 5.14205175,18.0269768 5.38409163,17.92 C5.50684295,17.8724056 5.61898792,17.8010406 5.71409163,17.71 L7.71409163,15.71 C7.9677502,15.4563414 8.06681515,15.086626 7.97396967,14.740122 C7.88112419,14.3936179 7.61047371,14.1229674 7.26396967,14.030122 C6.91746562,13.9372765 6.5477502,14.0363414 6.29409163,14.29 L6.29409163,14.29 Z M11.0040916,8 L21.0040916,8 C21.5563764,8 22.0040916,7.55228475 22.0040916,7 C22.0040916,6.44771525 21.5563764,6 21.0040916,6 L11.0040916,6 C10.4518069,6 10.0040916,6.44771525 10.0040916,7 C10.0040916,7.55228475 10.4518069,8 11.0040916,8 Z M21.0040916,11 L11.0040916,11 C10.4518069,11 10.0040916,11.4477153 10.0040916,12 C10.0040916,12.5522847 10.4518069,13 11.0040916,13 L21.0040916,13 C21.5563764,13 22.0040916,12.5522847 22.0040916,12 C22.0040916,11.4477153 21.5563764,11 21.0040916,11 Z M21.0040916,16 L11.0040916,16 C10.4518069,16 10.0040916,16.4477153 10.0040916,17 C10.0040916,17.5522847 10.4518069,18 11.0040916,18 L21.0040916,18 C21.5563764,18 22.0040916,17.5522847 22.0040916,17 C22.0040916,16.4477153 21.5563764,16 21.0040916,16 Z" id="Shape" fill="#000000" fill-rule="nonzero"></path>
    </g>
</svg>