<?xml version="1.0" encoding="UTF-8"?>
<svg width="22px" height="22px" viewBox="0 0 22 22" version="1.1" xmlns="http://www.w3.org/2000/svg" xmlns:xlink="http://www.w3.org/1999/xlink">
    <!-- Generator: Sketch 55.1 (78136) - https://sketchapp.com -->
    <title>play-circle</title>
    <desc>Created with Sketch.</desc>
    <g id="play-circle" stroke="none" stroke-width="1" fill="none" fill-rule="evenodd">
        <path d="M15,9.27 L10,6.38 C9.38151503,6.02291704 8.6195556,6.02272142 8.00088737,6.37948677 C7.38221913,6.73625212 7.00073209,7.3958352 7,8.11 L7,13.89 C7.00073215,14.6037984 7.38183192,15.263101 8,15.62 C8.61880215,15.9772656 9.38119785,15.9772656 10,15.62 L15,12.73 C15.6168043,12.3722022 15.9964563,11.7130686 15.9964563,11 C15.9964563,10.2869314 15.6168043,9.62779776 15,9.27 Z M14,11 L9,13.89 L9,8.11 L14,11 Z M11,1 C5.4771525,1 1,5.4771525 1,11 C1,16.5228475 5.4771525,21 11,21 C16.5228475,21 21,16.5228475 21,11 C21,8.3478351 19.9464316,5.80429597 18.0710678,3.92893219 C16.195704,2.0535684 13.6521649,1 11,1 Z M11,19 C6.581722,19 3,15.418278 3,11 C3,6.581722 6.581722,3 11,3 C15.418278,3 19,6.581722 19,11 C19,13.1217319 18.1571453,15.1565632 16.6568542,16.6568542 C15.1565632,18.1571453 13.1217319,19 11,19 Z" id="Shape" fill="#000000" fill-rule="nonzero"></path>
    </g>
</svg>