<?xml version="1.0" encoding="UTF-8"?>
<svg width="22px" height="22px" viewBox="0 0 22 22" version="1.1" xmlns="http://www.w3.org/2000/svg" xmlns:xlink="http://www.w3.org/1999/xlink">
    <!-- Generator: Sketch 55.1 (78136) - https://sketchapp.com -->
    <title>Artboard Copy 6</title>
    <desc>Created with Sketch.</desc>
    <g id="Artboard-Copy-6" stroke="none" stroke-width="1" fill="none" fill-rule="evenodd">
        <path d="M20.9936555,8.23411011 C20.8646314,7.86041403 20.5275593,7.59781133 20.1336555,7.56411011 L14.4436555,6.73411011 L11.8936555,1.56411011 C11.7265691,1.21911978 11.3769781,1 10.9936555,1 C10.6103329,1 10.2607419,1.21911978 10.0936555,1.56411011 L7.54365551,6.72411011 L1.85365551,7.56411011 C1.47607843,7.61777694 1.16189964,7.88153198 1.04365551,8.24411011 C0.935539907,8.59802387 1.03171173,8.98271118 1.29365551,9.24411011 L5.42365551,13.2441101 L4.42365551,18.9241101 C4.35076255,19.3069072 4.50687293,19.6971832 4.82365551,19.9241101 C5.1320854,20.1446052 5.53868582,20.1717119 5.87365551,19.9941101 L10.9936555,17.3241101 L16.0936555,20.0041101 C16.2340032,20.0832867 16.3925154,20.1246377 16.5536555,20.1241165 C16.765482,20.1248645 16.9720763,20.0583341 17.1436555,19.9341101 C17.4604381,19.7071832 17.6165485,19.3169072 17.5436555,18.9341101 L16.5436555,13.2541101 L20.6736555,9.25411011 C20.9683545,9.00443997 21.0929231,8.6073776 20.9936555,8.23411011 Z M14.8436555,12.2341101 C14.6055366,12.4644272 14.496935,12.7977218 14.5536555,13.1241101 L15.2736555,17.3141101 L11.5136555,15.3141101 C11.2198501,15.1576653 10.8674609,15.1576653 10.5736555,15.3141101 L6.81365551,17.3141101 L7.53365551,13.1241101 C7.59037599,12.7977218 7.48177438,12.4644272 7.24365551,12.2341101 L4.24365551,9.23411011 L8.45365551,8.62411011 C8.78260247,8.57835472 9.0673712,8.37227208 9.21365551,8.07411011 L10.9936555,4.26411011 L12.8736555,8.08411011 C13.0199398,8.38227208 13.3047085,8.58835472 13.6336555,8.63411011 L17.8436555,9.24411011 L14.8436555,12.2341101 Z" id="Shape" fill="#000000" fill-rule="nonzero"></path>
    </g>
</svg>