<?xml version="1.0" encoding="UTF-8"?>
<svg width="22px" height="22px" viewBox="0 0 22 22" version="1.1" xmlns="http://www.w3.org/2000/svg" xmlns:xlink="http://www.w3.org/1999/xlink">
    <!-- Generator: Sketch 55.1 (78136) - https://sketchapp.com -->
    <title>Artboard Copy 68</title>
    <desc>Created with Sketch.</desc>
    <g id="Artboard-Copy-68" stroke="none" stroke-width="1" fill="none" fill-rule="evenodd">
        <path d="M20.3200034,4.05030635 L14.3200034,2.05030635 L14.2500034,2.05030635 C14.2034539,2.04562795 14.1565528,2.04562795 14.1100034,2.05030635 L13.8800034,2.05030635 L13.7500034,2.05030635 L13.6800034,2.05030635 L8,4.00030635 L2.32000336,2.05030635 C2.01493038,1.94971057 1.68010408,2.00179467 1.42000336,2.19030635 C1.15780779,2.37698218 1.00149167,2.67844897 1,3.00030635 L1,17.0003063 C0.998893602,17.4302223 1.27269164,17.8127342 1.68000336,17.9503063 L7.68000336,19.9503063 L7.68000336,19.9503063 C7.88145092,20.0159909 8.09855581,20.0159909 8.30000336,19.9503063 L8.30000336,19.9503063 L14,18.0503063 L19.6800034,20.0003063 C19.7861835,20.0147135 19.8938232,20.0147135 20,20.0003063 C20.2090882,20.0032472 20.4131845,19.936388 20.5800034,19.8103063 C20.8421989,19.6236305 20.998515,19.3221637 21,19.0003063 L21,5.00030635 C21.0011131,4.57039043 20.7273151,4.18787846 20.3200034,4.05030635 Z M7.00000336,17.6103063 L3.00000336,16.2803063 L3.00000336,4.39030635 L7.00000336,5.72030635 L7.00000336,17.6103063 Z M13.0000034,16.2803063 L9.00000336,17.6103063 L9.00000336,5.72030635 L13.0000034,4.39030635 L13.0000034,16.2803063 Z M19.0000034,17.6103063 L15.0000034,16.2803063 L15.0000034,4.39030635 L19.0000034,5.72030635 L19.0000034,17.6103063 Z" id="Shape" fill="#000000" fill-rule="nonzero"></path>
    </g>
</svg>