<?xml version="1.0" encoding="UTF-8"?>
<svg width="24px" height="24px" viewBox="0 0 24 24" version="1.1" xmlns="http://www.w3.org/2000/svg" xmlns:xlink="http://www.w3.org/1999/xlink">
    <!-- Generator: Sketch 55.1 (78136) - https://sketchapp.com -->
    <title>sliders</title>
    <desc>Created with Sketch.</desc>
    <g id="sliders" stroke="none" stroke-width="1" fill="none" fill-rule="evenodd">
        <path d="M7,6 L6,6 L6,3 C6,2.44771525 5.55228475,2 5,2 C4.44771525,2 4,2.44771525 4,3 L4,6 L3,6 C2.44771525,6 2,6.44771525 2,7 C2,7.55228475 2.44771525,8 3,8 L7,8 C7.55228475,8 8,7.55228475 8,7 C8,6.44771525 7.55228475,6 7,6 Z M5,10 C4.44771525,10 4,10.4477153 4,11 L4,21 C4,21.5522847 4.44771525,22 5,22 C5.55228475,22 6,21.5522847 6,21 L6,11 C6,10.4477153 5.55228475,10 5,10 Z M12,18 C11.4477153,18 11,18.4477153 11,19 L11,21 C11,21.5522847 11.4477153,22 12,22 C12.5522847,22 13,21.5522847 13,21 L13,19 C13,18.4477153 12.5522847,18 12,18 Z M21,10 L20,10 L20,3 C20,2.44771525 19.5522847,2 19,2 C18.4477153,2 18,2.44771525 18,3 L18,10 L17,10 C16.4477153,10 16,10.4477153 16,11 C16,11.5522847 16.4477153,12 17,12 L21,12 C21.5522847,12 22,11.5522847 22,11 C22,10.4477153 21.5522847,10 21,10 Z M19,14 C18.4477153,14 18,14.4477153 18,15 L18,21 C18,21.5522847 18.4477153,22 19,22 C19.5522847,22 20,21.5522847 20,21 L20,15 C20,14.4477153 19.5522847,14 19,14 Z M14,14 L13,14 L13,3 C13,2.44771525 12.5522847,2 12,2 C11.4477153,2 11,2.44771525 11,3 L11,14 L10,14 C9.44771525,14 9,14.4477153 9,15 C9,15.5522847 9.44771525,16 10,16 L14,16 C14.5522847,16 15,15.5522847 15,15 C15,14.4477153 14.5522847,14 14,14 Z" id="Shape" fill="#000000" fill-rule="nonzero"></path>
    </g>
</svg>