<?xml version="1.0" encoding="UTF-8"?>
<svg width="22px" height="22px" viewBox="0 0 22 22" version="1.1" xmlns="http://www.w3.org/2000/svg" xmlns:xlink="http://www.w3.org/1999/xlink">
    <!-- Generator: Sketch 55.1 (78136) - https://sketchapp.com -->
    <title>play-outline</title>
    <desc>Created with Sketch.</desc>
    <g id="play-outline" stroke="none" stroke-width="1" fill="none" fill-rule="evenodd">
        <path d="M17.7902156,7.99831708 L8.13021558,2.45831708 C7.06614003,1.84386994 5.75422687,1.84747332 4.69354271,2.46775646 C3.63285855,3.0880396 2.986449,4.22965417 3.00021558,5.45831708 L3.00021558,16.5783171 C3.00021558,18.4671309 4.53140174,19.9983171 6.42021558,19.9983171 C7.0206529,19.9972987 7.6103035,19.8386793 8.13021558,19.5383171 L17.7902156,13.9983171 C18.8466054,13.3869223 19.4970898,12.2588756 19.4970898,11.0383171 C19.4970898,9.81775856 18.8466054,8.6897119 17.7902156,8.07831708 L17.7902156,7.99831708 Z M16.7902156,12.1883171 L7.13021558,17.8083171 C6.68978837,18.0579212 6.1506428,18.0579212 5.71021558,17.8083171 C5.27079058,17.5546149 5.00021556,17.0857214 5.00021556,16.5783171 L5.00021556,5.41831708 C5.00021556,4.91091279 5.27079058,4.44201921 5.71021558,4.18831708 C5.92762122,4.06747328 6.17151234,4.00220664 6.42021558,3.99831708 C6.66874833,4.00341846 6.91235243,4.06860828 7.13021558,4.18831708 L16.7902156,9.76831708 C17.2298033,10.0219118 17.5006382,10.4908256 17.5006382,10.9983171 C17.5006382,11.5058086 17.2298033,11.9747224 16.7902156,12.2283171 L16.7902156,12.1883171 Z" id="Shape" fill="#000000" fill-rule="nonzero"></path>
    </g>
</svg>