<?xml version="1.0" encoding="UTF-8"?>
<svg width="22px" height="22px" viewBox="0 0 22 22" version="1.1" xmlns="http://www.w3.org/2000/svg" xmlns:xlink="http://www.w3.org/1999/xlink">
    <!-- Generator: Sketch 55.1 (78136) - https://sketchapp.com -->
    <title>Artboard Copy 55</title>
    <desc>Created with Sketch.</desc>
    <g id="Artboard-Copy-55" stroke="none" stroke-width="1" fill="none" fill-rule="evenodd">
        <path d="M17.2710895,11.3977543 L11.0910895,17.5877543 C9.40918619,19.0824734 6.85372871,19.0072477 5.26266241,17.4161814 C3.6715961,15.8251151 3.59637046,13.2696576 5.09108953,11.5877543 L13.0910895,3.58775428 C14.0829984,2.64552808 15.6391807,2.64552808 16.6310895,3.58775428 C17.5994374,4.56908954 17.5994374,6.14641902 16.6310895,7.12775428 L9.73108953,14.0177543 C9.54531142,14.217823 9.26690998,14.3035827 9.00075632,14.2427285 C8.73460266,14.1818743 8.52113187,13.9836514 8.44075632,13.7227285 C8.36038077,13.4618056 8.42531142,13.177823 8.61108953,12.9777543 L13.7410895,7.85775428 C14.1332117,7.46563211 14.1332117,6.82987646 13.7410895,6.43775429 C13.3489674,6.04563212 12.7132117,6.04563212 12.3210895,6.43775428 L7.19108953,11.5777543 C6.67261929,12.0922036 6.38100533,12.7923643 6.38100533,13.5227543 C6.38100533,14.2531442 6.67261929,14.953305 7.19108953,15.4677543 C8.28023873,16.5052146 9.99194034,16.5052146 11.0810895,15.4677543 L17.9710895,8.56775428 C19.6232427,6.79469575 19.5744928,4.03169595 17.8608203,2.31802349 C16.1471479,0.604351025 13.3841481,0.555601118 11.6110895,2.20775428 L3.61108953,10.2077543 C1.36985202,12.6900576 1.47987018,16.4967998 3.86072849,18.8455205 C6.2415868,21.1942412 10.0494725,21.2525179 12.5010895,18.9777543 L18.6910895,12.7977543 C18.9447481,12.5440957 19.0438131,12.1743803 18.9509676,11.8278762 C18.8581221,11.4813722 18.5874716,11.2107217 18.2409676,11.1178762 C17.8944635,11.0250308 17.5247481,11.1240957 17.2710895,11.3777543 L17.2710895,11.3977543 Z" id="Path" fill="#000000" fill-rule="nonzero"></path>
    </g>
</svg>