<?xml version="1.0" encoding="UTF-8"?>
<svg width="37px" height="37px" viewBox="0 0 37 37" version="1.1" xmlns="http://www.w3.org/2000/svg" xmlns:xlink="http://www.w3.org/1999/xlink">
    <!-- Generator: Sketch 55.1 (78136) - https://sketchapp.com -->
    <title>Artboard</title>
    <desc>Created with Sketch.</desc>
    <g id="Artboard" stroke="none" stroke-width="1" fill="none" fill-rule="evenodd">
        <g id="Group">
            <circle id="Oval-6" fill="#111111" cx="18.5" cy="18.5" r="18.5"></circle>
            <path d="M18.502625,8 L18.497375,8 C12.7079375,8 8,12.70925 8,18.5 C8,20.796875 8.74025,22.92575 9.9989375,24.6543125 L8.690375,28.5550625 L12.7263125,27.264875 C14.386625,28.36475 16.3671875,29 18.502625,29 C24.2920625,29 29,24.2894375 29,18.5 C29,12.7105625 24.2920625,8 18.502625,8 Z M24.6123125,22.8273125 C24.359,23.542625 23.353625,24.135875 22.5516875,24.309125 C22.0030625,24.4259375 21.2864375,24.519125 18.8740625,23.519 C15.788375,22.240625 13.80125,19.1050625 13.646375,18.901625 C13.4980625,18.6981875 12.3995,17.2413125 12.3995,15.7345625 C12.3995,14.2278125 13.1646875,13.494125 13.473125,13.179125 C13.7264375,12.9205625 14.145125,12.8024375 14.54675,12.8024375 C14.6766875,12.8024375 14.7935,12.809 14.8985,12.81425 C15.2069375,12.827375 15.3618125,12.84575 15.56525,13.3326875 C15.8185625,13.943 16.4354375,15.44975 16.5089375,15.604625 C16.58375,15.7595 16.6585625,15.9695 16.5535625,16.1729375 C16.455125,16.3829375 16.3685,16.476125 16.213625,16.654625 C16.05875,16.833125 15.91175,16.969625 15.756875,17.16125 C15.615125,17.3279375 15.455,17.5064375 15.6335,17.814875 C15.812,18.11675 16.428875,19.1234375 17.337125,19.9319375 C18.5091875,20.975375 19.4594375,21.30875 19.799375,21.4505 C20.0526875,21.5555 20.3545625,21.5305625 20.539625,21.3336875 C20.7745625,21.080375 21.064625,20.660375 21.3599375,20.2469375 C21.5699375,19.9503125 21.8350625,19.9135625 22.1133125,20.0185625 C22.3968125,20.117 23.897,20.8585625 24.2054375,21.012125 C24.513875,21.167 24.7173125,21.2405 24.792125,21.3704375 C24.865625,21.500375 24.865625,22.1106875 24.6123125,22.8273125 Z" id="Shape" fill="#FFFFFF" fill-rule="nonzero"></path>
        </g>
    </g>
</svg>