<?xml version="1.0" encoding="UTF-8"?>
<svg width="22px" height="22px" viewBox="0 0 22 22" version="1.1" xmlns="http://www.w3.org/2000/svg" xmlns:xlink="http://www.w3.org/1999/xlink">
    <!-- Generator: Sketch 55.1 (78136) - https://sketchapp.com -->
    <title>Artboard Copy 73</title>
    <desc>Created with Sketch.</desc>
    <g id="Artboard-Copy-73" stroke="none" stroke-width="1" fill="none" fill-rule="evenodd">
        <path d="M14.6461192,11.7154957 C16.6557673,10.1343694 17.4425126,7.45331109 16.6059064,5.03696337 C15.7693002,2.62061566 13.4931968,1 10.9361192,1 C8.3790415,1 6.10293813,2.62061566 5.26633194,5.03696337 C4.42972576,7.45331109 5.21647103,10.1343694 7.22611917,11.7154957 C3.80321605,13.0868419 1.41273605,16.2305921 1.00611917,19.8954957 C0.945367848,20.4477805 1.34383442,20.9447444 1.89611917,21.0054957 C2.44840392,21.0662471 2.94536785,20.6677805 3.00611917,20.1154957 C3.46075031,16.0682371 6.88340608,13.0085243 10.9561192,13.0085243 C15.0288323,13.0085243 18.451488,16.0682371 18.9061192,20.1154957 C18.9624343,20.6244307 19.3940874,21.008602 19.9061192,21.0054957 L20.0161192,21.0054957 C20.5617602,20.9427137 20.9546433,20.4516099 20.8961192,19.9054957 C20.4875367,16.229805 18.0836336,13.0797304 14.6461192,11.7154957 L14.6461192,11.7154957 Z M10.9361192,11.0054957 C8.72698017,11.0054957 6.93611917,9.21463473 6.93611917,7.00549573 C6.93611917,4.79635673 8.72698017,3.00549573 10.9361192,3.00549573 C13.1452582,3.00549573 14.9361192,4.79635673 14.9361192,7.00549573 C14.9361192,8.06636169 14.5146918,9.08377734 13.7645463,9.83392286 C13.0144008,10.5840684 11.9969851,11.0054957 10.9361192,11.0054957 Z" id="Shape" fill="#000000" fill-rule="nonzero"></path>
    </g>
</svg>