<?xml version="1.0" encoding="UTF-8"?>
<svg width="22px" height="22px" viewBox="0 0 22 22" version="1.1" xmlns="http://www.w3.org/2000/svg" xmlns:xlink="http://www.w3.org/1999/xlink">
    <!-- Generator: Sketch 55.1 (78136) - https://sketchapp.com -->
    <title>Artboard Copy 69</title>
    <desc>Created with Sketch.</desc>
    <g id="Artboard-Copy-69" stroke="none" stroke-width="1" fill="none" fill-rule="evenodd">
        <path d="M7.71,6.70501351 L10,4.40501351 L10,13.9950135 C10,14.5472983 10.4477153,14.9950135 11,14.9950135 C11.5522847,14.9950135 12,14.5472983 12,13.9950135 L12,4.40501351 L14.29,6.70501351 C14.4777666,6.89432616 14.7333625,7.00081184 15,7.00081184 C15.2666375,7.00081184 15.5222334,6.89432616 15.71,6.70501351 C15.8993127,6.51724691 16.0057983,6.26165105 16.0057983,5.99501351 C16.0057983,5.72837598 15.8993127,5.47278011 15.71,5.28501351 L11.71,1.28501351 C11.6148963,1.19397288 11.5027513,1.1226079 11.38,1.07501351 C11.1365386,0.974995495 10.8634614,0.974995495 10.62,1.07501351 C10.4972487,1.1226079 10.3851037,1.19397288 10.29,1.28501351 L6.29,5.28501351 C6.03634142,5.53867208 5.93727647,5.9083875 6.03012195,6.25489156 C6.12296743,6.60139561 6.3936179,6.87204608 6.74012196,6.96489156 C7.08662601,7.05773704 7.45634143,6.95867209 7.71,6.70501351 Z M20,10.9950135 C19.4477153,10.9950135 19,11.4427288 19,11.9950135 L19,17.9950135 C19,18.5472983 18.5522847,18.9950135 18,18.9950135 L4,18.9950135 C3.44771525,18.9950135 3,18.5472983 3,17.9950135 L3,11.9950135 C3,11.4427288 2.55228475,10.9950135 2,10.9950135 C1.44771525,10.9950135 1,11.4427288 1,11.9950135 L1,17.9950135 C1,19.6518678 2.34314575,20.9950135 4,20.9950135 L18,20.9950135 C19.6568542,20.9950135 21,19.6518678 21,17.9950135 L21,11.9950135 C21,11.4427288 20.5522847,10.9950135 20,10.9950135 Z" id="Shape" fill="#000000" fill-rule="nonzero"></path>
    </g>
</svg>