<?xml version="1.0" encoding="UTF-8"?>
<svg width="22px" height="22px" viewBox="0 0 22 22" version="1.1" xmlns="http://www.w3.org/2000/svg" xmlns:xlink="http://www.w3.org/1999/xlink">
    <!-- Generator: Sketch 55.1 (78136) - https://sketchapp.com -->
    <title>Artboard Copy 36</title>
    <desc>Created with Sketch.</desc>
    <g id="Artboard-Copy-36" stroke="none" stroke-width="1" fill="none" fill-rule="evenodd">
        <path d="M20.3,9.08004472 C19.7311697,8.39711249 18.8887981,8.00156409 18,8.00004472 L13.44,8.00004472 L14,6.57004472 C14.4728235,5.29910479 14.291619,3.87703025 13.5151859,2.76527393 C12.7387529,1.6535176 11.4660275,0.993743955 10.11,1 C9.71710057,1.00086451 9.36108826,1.23168568 9.2,1.59004472 L6.35,8.00004472 L4,8.00004472 C2.34314575,8.00004472 1,9.34319048 1,11.0000447 L1,18.0000447 C1,19.656899 2.34314575,21.0000447 4,21.0000447 L16.73,21.0000447 C18.1781998,20.9995621 19.4193241,19.9645906 19.68,18.5400447 L20.95,11.5400447 C21.109022,10.6642207 20.8708957,9.76300427 20.3,9.08004472 L20.3,9.08004472 Z M6,19.0000447 L4,19.0000447 C3.44771525,19.0000447 3,18.5523295 3,18.0000447 L3,11.0000447 C3,10.44776 3.44771525,10.0000447 4,10.0000447 L6,10.0000447 L6,19.0000447 Z M19,11.1800447 L17.73,18.1800447 C17.6420327,18.6611373 17.2190037,19.008021 16.73,19.0001795 L8,19.0001795 L8,9.21004472 L10.72,3.09004472 C11.2860519,3.25506902 11.7572339,3.64941114 12.0193976,4.17753802 C12.2815613,4.7056649 12.310789,5.31939437 12.1,5.87004472 L11.57,7.30004472 C11.340778,7.91353779 11.4264441,8.60038841 11.7993331,9.13878437 C12.1722222,9.67718034 12.7850839,9.99889919 13.44,10.0000447 L18,10.0000447 C18.2974322,9.9995617 18.5796435,10.1315046 18.77,10.3600447 C18.9650435,10.5854402 19.049373,10.8860934 19,11.1800447 Z" id="Shape" fill="#000000" fill-rule="nonzero"></path>
    </g>
</svg>