<?xml version="1.0" encoding="UTF-8"?>
<svg width="22px" height="22px" viewBox="0 0 22 22" version="1.1" xmlns="http://www.w3.org/2000/svg" xmlns:xlink="http://www.w3.org/1999/xlink">
    <!-- Generator: Sketch 55.1 (78136) - https://sketchapp.com -->
    <title>uEA2E-network-whatsapp</title>
    <desc>Created with Sketch.</desc>
    <g id="uEA2E-network-whatsapp" stroke="none" stroke-width="1" fill="none" fill-rule="evenodd">
        <path d="M11.158,19.9497822 C9.63681065,19.9423768 8.14223518,19.5553741 6.81333333,18.8247822 L2,20.0747822 L3.26666667,15.4247822 C2.44981045,14.0703471 2.01264862,12.5259004 2,10.9497822 C2.01408063,6.00446553 6.07927015,2.00222337 11.0905436,2 C16.1018171,1.99777849 20.1706501,5.9964133 20.1892988,10.9417154 C20.2078196,15.8870176 16.1691523,19.9153244 11.158,19.9497822 Z M15.5913333,14.1872822 L15.5913333,14.1497822 C15.7044171,13.8375091 15.7349342,13.5019353 15.68,13.1747822 C15.6166667,13.0747822 15.4773333,13.0247822 15.2493333,12.9122822 C15.0213333,12.7997822 13.894,12.2622822 13.6913333,12.1872822 C13.4886667,12.1122822 13.3366667,12.0747822 13.1846667,12.2997822 C13.0326667,12.5247822 12.5893333,13.0747822 12.4626667,13.1747822 C12.336,13.2747822 12.1966667,13.2872822 11.9686667,13.1747822 C11.3010106,12.9089529 10.6841718,12.5327285 10.1446667,12.0622822 C9.64924292,11.6082923 9.2226433,11.0862691 8.878,10.5122822 C8.75133333,10.2872822 8.878,10.1622822 8.97933333,10.0622822 C9.08066667,9.96228215 9.20733333,9.79978215 9.32133333,9.66228215 C9.4164329,9.54960376 9.49333833,9.42311457 9.54933333,9.28728215 C9.61247478,9.16563023 9.61247478,9.02143408 9.54933333,8.89978215 C9.486,8.78728215 9.01733333,7.62478215 8.84,7.23728215 C8.66266667,6.84978215 8.47266667,6.84978215 8.33333333,6.84978215 L7.97866667,6.84978215 C7.74570082,6.85242805 7.52477731,6.95235233 7.37066667,7.12478215 C6.84744911,7.60995419 6.55741374,8.29142827 6.57266667,8.99978215 C6.64637156,9.84296924 6.96771897,10.6466274 7.49733333,11.3122822 C8.47195662,12.7490289 9.80740608,13.9118622 11.3733333,14.6872822 C11.7855223,14.8705363 12.2085084,15.029156 12.64,15.1622822 C13.0986032,15.3050706 13.5856162,15.3351084 14.0586667,15.2497822 C14.6988997,15.1256159 15.2558297,14.7395319 15.5913333,14.1872822 Z" id="Shape" fill="#000000" fill-rule="nonzero"></path>
    </g>
</svg>