<?xml version="1.0" encoding="UTF-8"?>
<svg width="20px" height="20px" viewBox="0 0 20 20" version="1.1" xmlns="http://www.w3.org/2000/svg" xmlns:xlink="http://www.w3.org/1999/xlink">
    <!-- Generator: Sketch 60 (88103) - https://sketch.com -->
    <title>Combined Shape</title>
    <desc>Created with Sketch.</desc>
    <defs>
        <path d="M12,1.99999996 C6.47715248,1.99999996 1.99999996,6.47715248 1.99999996,12 C1.99999996,17.5228475 6.47715248,22 12,22 C17.5228475,22 22,17.5228475 22,12 C22,9.34783509 20.9464316,6.80429595 19.0710678,4.92893216 C17.195704,3.05356837 14.6521649,1.99999996 12,1.99999996 Z M12,20 C7.58172198,20 3.99999997,16.418278 3.99999997,12 C3.99999997,7.58172198 7.58172198,3.99999997 12,3.99999997 C16.418278,3.99999997 20,7.58172198 20,12 C20,14.1217319 19.1571453,16.1565632 17.6568543,17.6568543 C16.1565632,19.1571453 14.1217319,20 12,20 Z M12.112,7.84 C13.4026731,7.84 14.3919966,8.19466312 15.08,8.904 C15.7680034,9.61333688 16.112,10.6079936 16.112,11.888 C16.112,12.2506685 16.0853336,12.5493322 16.032,12.784 L10.576,12.784 C10.6613338,13.2853358 10.8453319,13.6533322 11.128,13.888 C11.4106681,14.1226678 11.7866643,14.24 12.256,14.24 C12.6506686,14.24 12.9733321,14.1653341 13.224,14.016 C13.4746679,13.8666659 13.6426662,13.6480014 13.728,13.36 L15.936,14.064 C15.7119989,14.7466701 15.2773366,15.2666649 14.632,15.624 C13.9866634,15.9813351 13.1946714,16.16 12.256,16.16 C10.8586597,16.16 9.78933704,15.797337 9.048,15.072 C8.30666296,14.346663 7.936,13.3226733 7.936,12 C7.936,10.6773267 8.29866304,9.65333696 9.024,8.928 C9.74933696,8.20266304 10.77866,7.84 12.112,7.84 Z M12.096,9.744 C11.2319957,9.744 10.7200008,10.2666614 10.56,11.312 L10.56,11.312 L13.568,11.312 C13.4399994,10.2666614 12.9493376,9.744 12.096,9.744 Z" id="path-1"></path>
    </defs>
    <g id="Symbols" stroke="none" stroke-width="1" fill="none" fill-rule="evenodd">
        <g id="Icons-/-circle-e-Copy" transform="translate(-2.000000, -2.000000)">
            <mask id="mask-2" fill="white">
                <use xlink:href="#path-1"></use>
            </mask>
            <use id="Combined-Shape" fill="#111111" fill-rule="nonzero" xlink:href="#path-1"></use>
        </g>
    </g>
</svg>